<?xml version="1.0" encoding="utf-8" standalone="no"?>
<!DOCTYPE svg PUBLIC "-//W3C//DTD SVG 1.1//EN"
        "http://www.w3.org/Graphics/SVG/1.1/DTD/svg11.dtd">
<svg xmlns:xlink="http://www.w3.org/1999/xlink" width="720pt" height="288pt" viewBox="0 0 720 288"
     xmlns="http://www.w3.org/2000/svg" version="1.1">
    <metadata>
        <rdf:RDF xmlns:dc="http://purl.org/dc/elements/1.1/" xmlns:cc="http://creativecommons.org/ns#"
                 xmlns:rdf="http://www.w3.org/1999/02/22-rdf-syntax-ns#">
            <cc:Work>
                <dc:type rdf:resource="http://purl.org/dc/dcmitype/StillImage"/>
                <dc:date>2024-02-14T14:49:42.572482</dc:date>
                <dc:format>image/svg+xml</dc:format>
                <dc:creator>
                    <cc:Agent>
                        <dc:title>Matplotlib v3.8.2, https://matplotlib.org/</dc:title>
                    </cc:Agent>
                </dc:creator>
            </cc:Work>
        </rdf:RDF>
    </metadata>
    <defs>
        <style type="text/css">*{stroke-linejoin: round; stroke-linecap: butt}</style>
    </defs>
    <g id="figure_1">
        <g id="patch_1">
            <path d="M 0 288
L 720 288 
L 720 0 
L 0 0 
z
" style="fill: #ffffff"/>
        </g>
        <g id="axes_1">
            <g id="patch_2">
                <path d="M 59.00625 240.66
L 707.04 240.66 
L 707.04 27.6 
L 59.00625 27.6 
z
" style="fill: #ffffff"/>
            </g>
            <g id="matplotlib.axis_1">
                <g id="xtick_1">
                    <g id="line2d_1">
                        <path d="M 88.46233 240.66
L 88.46233 27.6 
" clip-path="url(#pb2719c50be)" style="fill: none; stroke: #cccccc; stroke-linecap: round"/>
                    </g>
                    <g id="text_1">
                        <!-- 0.00 -->
                        <g style="fill: #262626" transform="translate(77.758814 258.033594) scale(0.11 -0.11)">
                            <defs>
                                <path id="ArialMT-30" d="M 266 2259
Q 266 3072 433 3567 
Q 600 4063 929 4331 
Q 1259 4600 1759 4600 
Q 2128 4600 2406 4451 
Q 2684 4303 2865 4023 
Q 3047 3744 3150 3342 
Q 3253 2941 3253 2259 
Q 3253 1453 3087 958 
Q 2922 463 2592 192 
Q 2263 -78 1759 -78 
Q 1097 -78 719 397 
Q 266 969 266 2259 
z
M 844 2259 
Q 844 1131 1108 757 
Q 1372 384 1759 384 
Q 2147 384 2411 759 
Q 2675 1134 2675 2259 
Q 2675 3391 2411 3762 
Q 2147 4134 1753 4134 
Q 1366 4134 1134 3806 
Q 844 3388 844 2259 
z
" transform="scale(0.015625)"/>
                                <path id="ArialMT-2e" d="M 581 0
L 581 641 
L 1222 641 
L 1222 0 
L 581 0 
z
" transform="scale(0.015625)"/>
                            </defs>
                            <use xlink:href="#ArialMT-30"/>
                            <use xlink:href="#ArialMT-2e" x="55.615234"/>
                            <use xlink:href="#ArialMT-30" x="83.398438"/>
                            <use xlink:href="#ArialMT-30" x="139.013672"/>
                        </g>
                    </g>
                </g>
                <g id="xtick_2">
                    <g id="line2d_2">
                        <path d="M 162.27157 240.66
L 162.27157 27.6 
" clip-path="url(#pb2719c50be)" style="fill: none; stroke: #cccccc; stroke-linecap: round"/>
                    </g>
                    <g id="text_2">
                        <!-- 0.25 -->
                        <g style="fill: #262626" transform="translate(151.568054 258.033594) scale(0.11 -0.11)">
                            <defs>
                                <path id="ArialMT-32" d="M 3222 541
L 3222 0 
L 194 0 
Q 188 203 259 391 
Q 375 700 629 1000 
Q 884 1300 1366 1694 
Q 2113 2306 2375 2664 
Q 2638 3022 2638 3341 
Q 2638 3675 2398 3904 
Q 2159 4134 1775 4134 
Q 1369 4134 1125 3890 
Q 881 3647 878 3216 
L 300 3275 
Q 359 3922 746 4261 
Q 1134 4600 1788 4600 
Q 2447 4600 2831 4234 
Q 3216 3869 3216 3328 
Q 3216 3053 3103 2787 
Q 2991 2522 2730 2228 
Q 2469 1934 1863 1422 
Q 1356 997 1212 845 
Q 1069 694 975 541 
L 3222 541 
z
" transform="scale(0.015625)"/>
                                <path id="ArialMT-35" d="M 266 1200
L 856 1250 
Q 922 819 1161 601 
Q 1400 384 1738 384 
Q 2144 384 2425 690 
Q 2706 997 2706 1503 
Q 2706 1984 2436 2262 
Q 2166 2541 1728 2541 
Q 1456 2541 1237 2417 
Q 1019 2294 894 2097 
L 366 2166 
L 809 4519 
L 3088 4519 
L 3088 3981 
L 1259 3981 
L 1013 2750 
Q 1425 3038 1878 3038 
Q 2478 3038 2890 2622 
Q 3303 2206 3303 1553 
Q 3303 931 2941 478 
Q 2500 -78 1738 -78 
Q 1113 -78 717 272 
Q 322 622 266 1200 
z
" transform="scale(0.015625)"/>
                            </defs>
                            <use xlink:href="#ArialMT-30"/>
                            <use xlink:href="#ArialMT-2e" x="55.615234"/>
                            <use xlink:href="#ArialMT-32" x="83.398438"/>
                            <use xlink:href="#ArialMT-35" x="139.013672"/>
                        </g>
                    </g>
                </g>
                <g id="xtick_3">
                    <g id="line2d_3">
                        <path d="M 236.08081 240.66
L 236.08081 27.6 
" clip-path="url(#pb2719c50be)" style="fill: none; stroke: #cccccc; stroke-linecap: round"/>
                    </g>
                    <g id="text_3">
                        <!-- 0.50 -->
                        <g style="fill: #262626" transform="translate(225.377295 258.033594) scale(0.11 -0.11)">
                            <use xlink:href="#ArialMT-30"/>
                            <use xlink:href="#ArialMT-2e" x="55.615234"/>
                            <use xlink:href="#ArialMT-35" x="83.398438"/>
                            <use xlink:href="#ArialMT-30" x="139.013672"/>
                        </g>
                    </g>
                </g>
                <g id="xtick_4">
                    <g id="line2d_4">
                        <path d="M 309.890051 240.66
L 309.890051 27.6 
" clip-path="url(#pb2719c50be)" style="fill: none; stroke: #cccccc; stroke-linecap: round"/>
                    </g>
                    <g id="text_4">
                        <!-- 0.75 -->
                        <g style="fill: #262626" transform="translate(299.186535 258.033594) scale(0.11 -0.11)">
                            <defs>
                                <path id="ArialMT-37" d="M 303 3981
L 303 4522 
L 3269 4522 
L 3269 4084 
Q 2831 3619 2401 2847 
Q 1972 2075 1738 1259 
Q 1569 684 1522 0 
L 944 0 
Q 953 541 1156 1306 
Q 1359 2072 1739 2783 
Q 2119 3494 2547 3981 
L 303 3981 
z
" transform="scale(0.015625)"/>
                            </defs>
                            <use xlink:href="#ArialMT-30"/>
                            <use xlink:href="#ArialMT-2e" x="55.615234"/>
                            <use xlink:href="#ArialMT-37" x="83.398438"/>
                            <use xlink:href="#ArialMT-35" x="139.013672"/>
                        </g>
                    </g>
                </g>
                <g id="xtick_5">
                    <g id="line2d_5">
                        <path d="M 383.699291 240.66
L 383.699291 27.6 
" clip-path="url(#pb2719c50be)" style="fill: none; stroke: #cccccc; stroke-linecap: round"/>
                    </g>
                    <g id="text_5">
                        <!-- 1.00 -->
                        <g style="fill: #262626" transform="translate(372.995775 258.033594) scale(0.11 -0.11)">
                            <defs>
                                <path id="ArialMT-31" d="M 2384 0
L 1822 0 
L 1822 3584 
Q 1619 3391 1289 3197 
Q 959 3003 697 2906 
L 697 3450 
Q 1169 3672 1522 3987 
Q 1875 4303 2022 4600 
L 2384 4600 
L 2384 0 
z
" transform="scale(0.015625)"/>
                            </defs>
                            <use xlink:href="#ArialMT-31"/>
                            <use xlink:href="#ArialMT-2e" x="55.615234"/>
                            <use xlink:href="#ArialMT-30" x="83.398438"/>
                            <use xlink:href="#ArialMT-30" x="139.013672"/>
                        </g>
                    </g>
                </g>
                <g id="xtick_6">
                    <g id="line2d_6">
                        <path d="M 457.508532 240.66
L 457.508532 27.6 
" clip-path="url(#pb2719c50be)" style="fill: none; stroke: #cccccc; stroke-linecap: round"/>
                    </g>
                    <g id="text_6">
                        <!-- 1.25 -->
                        <g style="fill: #262626" transform="translate(446.805016 258.033594) scale(0.11 -0.11)">
                            <use xlink:href="#ArialMT-31"/>
                            <use xlink:href="#ArialMT-2e" x="55.615234"/>
                            <use xlink:href="#ArialMT-32" x="83.398438"/>
                            <use xlink:href="#ArialMT-35" x="139.013672"/>
                        </g>
                    </g>
                </g>
                <g id="xtick_7">
                    <g id="line2d_7">
                        <path d="M 531.317772 240.66
L 531.317772 27.6 
" clip-path="url(#pb2719c50be)" style="fill: none; stroke: #cccccc; stroke-linecap: round"/>
                    </g>
                    <g id="text_7">
                        <!-- 1.50 -->
                        <g style="fill: #262626" transform="translate(520.614256 258.033594) scale(0.11 -0.11)">
                            <use xlink:href="#ArialMT-31"/>
                            <use xlink:href="#ArialMT-2e" x="55.615234"/>
                            <use xlink:href="#ArialMT-35" x="83.398438"/>
                            <use xlink:href="#ArialMT-30" x="139.013672"/>
                        </g>
                    </g>
                </g>
                <g id="xtick_8">
                    <g id="line2d_8">
                        <path d="M 605.127012 240.66
L 605.127012 27.6 
" clip-path="url(#pb2719c50be)" style="fill: none; stroke: #cccccc; stroke-linecap: round"/>
                    </g>
                    <g id="text_8">
                        <!-- 1.75 -->
                        <g style="fill: #262626" transform="translate(594.423497 258.033594) scale(0.11 -0.11)">
                            <use xlink:href="#ArialMT-31"/>
                            <use xlink:href="#ArialMT-2e" x="55.615234"/>
                            <use xlink:href="#ArialMT-37" x="83.398438"/>
                            <use xlink:href="#ArialMT-35" x="139.013672"/>
                        </g>
                    </g>
                </g>
                <g id="xtick_9">
                    <g id="line2d_9">
                        <path d="M 678.936253 240.66
L 678.936253 27.6 
" clip-path="url(#pb2719c50be)" style="fill: none; stroke: #cccccc; stroke-linecap: round"/>
                    </g>
                    <g id="text_9">
                        <!-- 2.00 -->
                        <g style="fill: #262626" transform="translate(668.232737 258.033594) scale(0.11 -0.11)">
                            <use xlink:href="#ArialMT-32"/>
                            <use xlink:href="#ArialMT-2e" x="55.615234"/>
                            <use xlink:href="#ArialMT-30" x="83.398438"/>
                            <use xlink:href="#ArialMT-30" x="139.013672"/>
                        </g>
                    </g>
                </g>
                <g id="text_10">
                    <!-- Time (s) -->
                    <g style="fill: #262626" transform="translate(361.253438 272.955469) scale(0.12 -0.12)">
                        <defs>
                            <path id="ArialMT-54" d="M 1659 0
L 1659 4041 
L 150 4041 
L 150 4581 
L 3781 4581 
L 3781 4041 
L 2266 4041 
L 2266 0 
L 1659 0 
z
" transform="scale(0.015625)"/>
                            <path id="ArialMT-69" d="M 425 3934
L 425 4581 
L 988 4581 
L 988 3934 
L 425 3934 
z
M 425 0 
L 425 3319 
L 988 3319 
L 988 0 
L 425 0 
z
" transform="scale(0.015625)"/>
                            <path id="ArialMT-6d" d="M 422 0
L 422 3319 
L 925 3319 
L 925 2853 
Q 1081 3097 1340 3245 
Q 1600 3394 1931 3394 
Q 2300 3394 2536 3241 
Q 2772 3088 2869 2813 
Q 3263 3394 3894 3394 
Q 4388 3394 4653 3120 
Q 4919 2847 4919 2278 
L 4919 0 
L 4359 0 
L 4359 2091 
Q 4359 2428 4304 2576 
Q 4250 2725 4106 2815 
Q 3963 2906 3769 2906 
Q 3419 2906 3187 2673 
Q 2956 2441 2956 1928 
L 2956 0 
L 2394 0 
L 2394 2156 
Q 2394 2531 2256 2718 
Q 2119 2906 1806 2906 
Q 1569 2906 1367 2781 
Q 1166 2656 1075 2415 
Q 984 2175 984 1722 
L 984 0 
L 422 0 
z
" transform="scale(0.015625)"/>
                            <path id="ArialMT-65" d="M 2694 1069
L 3275 997 
Q 3138 488 2766 206 
Q 2394 -75 1816 -75 
Q 1088 -75 661 373 
Q 234 822 234 1631 
Q 234 2469 665 2931 
Q 1097 3394 1784 3394 
Q 2450 3394 2872 2941 
Q 3294 2488 3294 1666 
Q 3294 1616 3291 1516 
L 816 1516 
Q 847 969 1125 678 
Q 1403 388 1819 388 
Q 2128 388 2347 550 
Q 2566 713 2694 1069 
z
M 847 1978 
L 2700 1978 
Q 2663 2397 2488 2606 
Q 2219 2931 1791 2931 
Q 1403 2931 1139 2672 
Q 875 2413 847 1978 
z
" transform="scale(0.015625)"/>
                            <path id="ArialMT-20" transform="scale(0.015625)"/>
                            <path id="ArialMT-28" d="M 1497 -1347
Q 1031 -759 709 28 
Q 388 816 388 1659 
Q 388 2403 628 3084 
Q 909 3875 1497 4659 
L 1900 4659 
Q 1522 4009 1400 3731 
Q 1209 3300 1100 2831 
Q 966 2247 966 1656 
Q 966 153 1900 -1347 
L 1497 -1347 
z
" transform="scale(0.015625)"/>
                            <path id="ArialMT-73" d="M 197 991
L 753 1078 
Q 800 744 1014 566 
Q 1228 388 1613 388 
Q 2000 388 2187 545 
Q 2375 703 2375 916 
Q 2375 1106 2209 1216 
Q 2094 1291 1634 1406 
Q 1016 1563 777 1677 
Q 538 1791 414 1992 
Q 291 2194 291 2438 
Q 291 2659 392 2848 
Q 494 3038 669 3163 
Q 800 3259 1026 3326 
Q 1253 3394 1513 3394 
Q 1903 3394 2198 3281 
Q 2494 3169 2634 2976 
Q 2775 2784 2828 2463 
L 2278 2388 
Q 2241 2644 2061 2787 
Q 1881 2931 1553 2931 
Q 1166 2931 1000 2803 
Q 834 2675 834 2503 
Q 834 2394 903 2306 
Q 972 2216 1119 2156 
Q 1203 2125 1616 2013 
Q 2213 1853 2448 1751 
Q 2684 1650 2818 1456 
Q 2953 1263 2953 975 
Q 2953 694 2789 445 
Q 2625 197 2315 61 
Q 2006 -75 1616 -75 
Q 969 -75 630 194 
Q 291 463 197 991 
z
" transform="scale(0.015625)"/>
                            <path id="ArialMT-29" d="M 791 -1347
L 388 -1347 
Q 1322 153 1322 1656 
Q 1322 2244 1188 2822 
Q 1081 3291 891 3722 
Q 769 4003 388 4659 
L 791 4659 
Q 1378 3875 1659 3084 
Q 1900 2403 1900 1659 
Q 1900 816 1576 28 
Q 1253 -759 791 -1347 
z
" transform="scale(0.015625)"/>
                        </defs>
                        <use xlink:href="#ArialMT-54"/>
                        <use xlink:href="#ArialMT-69" x="57.333984"/>
                        <use xlink:href="#ArialMT-6d" x="79.550781"/>
                        <use xlink:href="#ArialMT-65" x="162.851562"/>
                        <use xlink:href="#ArialMT-20" x="218.466797"/>
                        <use xlink:href="#ArialMT-28" x="246.25"/>
                        <use xlink:href="#ArialMT-73" x="279.550781"/>
                        <use xlink:href="#ArialMT-29" x="329.550781"/>
                    </g>
                </g>
            </g>
            <g id="matplotlib.axis_2">
                <g id="ytick_1">
                    <g id="line2d_10">
                        <path d="M 59.00625 214.592556
L 707.04 214.592556 
" clip-path="url(#pb2719c50be)" style="fill: none; stroke: #cccccc; stroke-linecap: round"/>
                    </g>
                    <g id="text_11">
                        <!-- −0.2 -->
                        <g style="fill: #262626" transform="translate(27.791563 218.529353) scale(0.11 -0.11)">
                            <defs>
                                <path id="ArialMT-2212" d="M 3381 1997
L 356 1997 
L 356 2522 
L 3381 2522 
L 3381 1997 
z
" transform="scale(0.015625)"/>
                            </defs>
                            <use xlink:href="#ArialMT-2212"/>
                            <use xlink:href="#ArialMT-30" x="58.398438"/>
                            <use xlink:href="#ArialMT-2e" x="114.013672"/>
                            <use xlink:href="#ArialMT-32" x="141.796875"/>
                        </g>
                    </g>
                </g>
                <g id="ytick_2">
                    <g id="line2d_11">
                        <path d="M 59.00625 171.8107
L 707.04 171.8107 
" clip-path="url(#pb2719c50be)" style="fill: none; stroke: #cccccc; stroke-linecap: round"/>
                    </g>
                    <g id="text_12">
                        <!-- −0.1 -->
                        <g style="fill: #262626" transform="translate(27.791563 175.747497) scale(0.11 -0.11)">
                            <use xlink:href="#ArialMT-2212"/>
                            <use xlink:href="#ArialMT-30" x="58.398438"/>
                            <use xlink:href="#ArialMT-2e" x="114.013672"/>
                            <use xlink:href="#ArialMT-31" x="141.796875"/>
                        </g>
                    </g>
                </g>
                <g id="ytick_3">
                    <g id="line2d_12">
                        <path d="M 59.00625 129.028845
L 707.04 129.028845 
" clip-path="url(#pb2719c50be)" style="fill: none; stroke: #cccccc; stroke-linecap: round"/>
                    </g>
                    <g id="text_13">
                        <!-- 0.0 -->
                        <g style="fill: #262626" transform="translate(34.21625 132.965642) scale(0.11 -0.11)">
                            <use xlink:href="#ArialMT-30"/>
                            <use xlink:href="#ArialMT-2e" x="55.615234"/>
                            <use xlink:href="#ArialMT-30" x="83.398438"/>
                        </g>
                    </g>
                </g>
                <g id="ytick_4">
                    <g id="line2d_13">
                        <path d="M 59.00625 86.24699
L 707.04 86.24699 
" clip-path="url(#pb2719c50be)" style="fill: none; stroke: #cccccc; stroke-linecap: round"/>
                    </g>
                    <g id="text_14">
                        <!-- 0.1 -->
                        <g style="fill: #262626" transform="translate(34.21625 90.183787) scale(0.11 -0.11)">
                            <use xlink:href="#ArialMT-30"/>
                            <use xlink:href="#ArialMT-2e" x="55.615234"/>
                            <use xlink:href="#ArialMT-31" x="83.398438"/>
                        </g>
                    </g>
                </g>
                <g id="ytick_5">
                    <g id="line2d_14">
                        <path d="M 59.00625 43.465135
L 707.04 43.465135 
" clip-path="url(#pb2719c50be)" style="fill: none; stroke: #cccccc; stroke-linecap: round"/>
                    </g>
                    <g id="text_15">
                        <!-- 0.2 -->
                        <g style="fill: #262626" transform="translate(34.21625 47.401931) scale(0.11 -0.11)">
                            <use xlink:href="#ArialMT-30"/>
                            <use xlink:href="#ArialMT-2e" x="55.615234"/>
                            <use xlink:href="#ArialMT-32" x="83.398438"/>
                        </g>
                    </g>
                </g>
                <g id="text_16">
                    <!-- Amplitude -->
                    <g style="fill: #262626" transform="translate(21.406562 160.809375) rotate(-90) scale(0.12 -0.12)">
                        <defs>
                            <path id="ArialMT-41" d="M -9 0
L 1750 4581 
L 2403 4581 
L 4278 0 
L 3588 0 
L 3053 1388 
L 1138 1388 
L 634 0 
L -9 0 
z
M 1313 1881 
L 2866 1881 
L 2388 3150 
Q 2169 3728 2063 4100 
Q 1975 3659 1816 3225 
L 1313 1881 
z
" transform="scale(0.015625)"/>
                            <path id="ArialMT-70" d="M 422 -1272
L 422 3319 
L 934 3319 
L 934 2888 
Q 1116 3141 1344 3267 
Q 1572 3394 1897 3394 
Q 2322 3394 2647 3175 
Q 2972 2956 3137 2557 
Q 3303 2159 3303 1684 
Q 3303 1175 3120 767 
Q 2938 359 2589 142 
Q 2241 -75 1856 -75 
Q 1575 -75 1351 44 
Q 1128 163 984 344 
L 984 -1272 
L 422 -1272 
z
M 931 1641 
Q 931 1000 1190 694 
Q 1450 388 1819 388 
Q 2194 388 2461 705 
Q 2728 1022 2728 1688 
Q 2728 2322 2467 2637 
Q 2206 2953 1844 2953 
Q 1484 2953 1207 2617 
Q 931 2281 931 1641 
z
" transform="scale(0.015625)"/>
                            <path id="ArialMT-6c" d="M 409 0
L 409 4581 
L 972 4581 
L 972 0 
L 409 0 
z
" transform="scale(0.015625)"/>
                            <path id="ArialMT-74" d="M 1650 503
L 1731 6 
Q 1494 -44 1306 -44 
Q 1000 -44 831 53 
Q 663 150 594 308 
Q 525 466 525 972 
L 525 2881 
L 113 2881 
L 113 3319 
L 525 3319 
L 525 4141 
L 1084 4478 
L 1084 3319 
L 1650 3319 
L 1650 2881 
L 1084 2881 
L 1084 941 
Q 1084 700 1114 631 
Q 1144 563 1211 522 
Q 1278 481 1403 481 
Q 1497 481 1650 503 
z
" transform="scale(0.015625)"/>
                            <path id="ArialMT-75" d="M 2597 0
L 2597 488 
Q 2209 -75 1544 -75 
Q 1250 -75 995 37 
Q 741 150 617 320 
Q 494 491 444 738 
Q 409 903 409 1263 
L 409 3319 
L 972 3319 
L 972 1478 
Q 972 1038 1006 884 
Q 1059 663 1231 536 
Q 1403 409 1656 409 
Q 1909 409 2131 539 
Q 2353 669 2445 892 
Q 2538 1116 2538 1541 
L 2538 3319 
L 3100 3319 
L 3100 0 
L 2597 0 
z
" transform="scale(0.015625)"/>
                            <path id="ArialMT-64" d="M 2575 0
L 2575 419 
Q 2259 -75 1647 -75 
Q 1250 -75 917 144 
Q 584 363 401 755 
Q 219 1147 219 1656 
Q 219 2153 384 2558 
Q 550 2963 881 3178 
Q 1213 3394 1622 3394 
Q 1922 3394 2156 3267 
Q 2391 3141 2538 2938 
L 2538 4581 
L 3097 4581 
L 3097 0 
L 2575 0 
z
M 797 1656 
Q 797 1019 1065 703 
Q 1334 388 1700 388 
Q 2069 388 2326 689 
Q 2584 991 2584 1609 
Q 2584 2291 2321 2609 
Q 2059 2928 1675 2928 
Q 1300 2928 1048 2622 
Q 797 2316 797 1656 
z
" transform="scale(0.015625)"/>
                        </defs>
                        <use xlink:href="#ArialMT-41"/>
                        <use xlink:href="#ArialMT-6d" x="66.699219"/>
                        <use xlink:href="#ArialMT-70" x="150"/>
                        <use xlink:href="#ArialMT-6c" x="205.615234"/>
                        <use xlink:href="#ArialMT-69" x="227.832031"/>
                        <use xlink:href="#ArialMT-74" x="250.048828"/>
                        <use xlink:href="#ArialMT-75" x="277.832031"/>
                        <use xlink:href="#ArialMT-64" x="333.447266"/>
                        <use xlink:href="#ArialMT-65" x="389.0625"/>
                    </g>
                </g>
            </g>
            <g id="line2d_15">
                <path d="M 88.46233 211.37768
L 88.850623 186.962042 
L 89.372811 140.950041 
L 89.948556 89.968602 
L 90.56447 54.973328 
L 90.859038 48.437972 
L 90.979543 47.866594 
L 91.006321 47.910818 
L 91.126826 48.728366 
L 91.300889 51.770003 
L 91.582067 61.894537 
L 92.037308 88.695544 
L 92.532717 129.043558 
L 93.429809 208.205515 
L 93.804713 223.163971 
L 94.005554 225.376132 
L 94.018943 225.340942 
L 94.072501 225.12993 
L 94.206396 223.345429 
L 94.460795 215.650353 
L 94.849088 194.803278 
L 95.545339 142.2795 
L 96.482599 68.535508 
L 96.884282 50.825159 
L 97.138681 47.233717 
L 97.17885 47.24741 
L 97.205628 47.320398 
L 97.259186 47.633741 
L 97.446638 50.585414 
L 97.741206 60.754886 
L 98.209836 86.9029 
L 100.057577 201.820775 
L 100.325366 205.893624 
L 100.405703 205.721104 
L 100.579765 203.60961 
L 100.887722 195.002216 
L 101.316184 172.948309 
L 102.668516 100.542433 
L 103.096978 88.953346 
L 103.337987 86.353432 
L 103.418324 86.156914 
L 103.471882 86.239884 
L 103.52544 86.414757 
L 103.726282 88.310195 
L 104.074406 95.101058 
L 104.609984 110.928434 
L 105.801643 145.962598 
L 106.189936 151.174 
L 106.417557 152.233079 
L 106.471115 152.282822 
L 106.511283 152.25522 
L 106.765682 150.82342 
L 107.07364 147.084821 
L 107.783278 135.179157 
L 108.707149 119.819186 
L 109.175779 115.328778 
L 109.443569 114.445239 
L 109.537295 114.435829 
L 109.550685 114.464069 
L 109.697967 114.78643 
L 109.872031 115.540191 
L 110.36744 119.313669 
L 111.97417 133.872375 
L 112.308907 135.403121 
L 112.549916 135.898795 
L 112.71059 135.894783 
L 113.098883 134.96097 
L 113.513955 133.005082 
L 114.826119 126.255516 
L 115.214414 125.241436 
L 115.361696 125.038413 
L 115.562539 124.89606 
L 115.776769 124.937294 
L 115.924053 125.047669 
L 116.727418 126.553936 
L 117.517396 128.478252 
L 118.200256 129.6168 
L 118.668886 129.946403 
L 118.896507 129.951921 
L 119.873936 129.272985 
L 121.078984 128.172668 
L 121.561003 128.01746 
L 121.694898 128.019052 
L 121.976075 128.040495 
L 122.12336 128.073387 
L 122.484874 128.217916 
L 122.59199 128.255363 
L 122.819611 128.349375 
L 123.207904 128.545042 
L 123.515861 128.675175 
L 123.743482 128.780798 
L 123.756871 128.767803 
L 123.99788 128.85847 
L 124.131775 128.884721 
L 125.765287 128.895238 
L 125.939348 128.848161 
L 126.073243 128.825517 
L 128.49673 128.60514 
L 128.630625 128.638209 
L 128.777907 128.633241 
L 128.925189 128.663463 
L 129.085863 128.661577 
L 129.246537 128.677329 
L 129.460769 128.714952 
L 129.608051 128.715193 
L 129.782113 128.754288 
L 129.942787 128.755185 
L 130.116852 128.78018 
L 130.264134 128.781661 
L 130.451587 128.805978 
L 130.612261 128.808023 
L 130.79971 128.830253 
L 130.987163 128.82172 
L 131.174616 128.830654 
L 131.388847 128.822625 
L 131.616467 128.823187 
L 131.884257 128.829509 
L 132.111876 128.807889 
L 132.245771 128.815094 
L 132.660843 128.787181 
L 135.003993 128.791585 
L 135.445844 128.819432 
L 135.606518 128.807355 
L 135.793971 128.833042 
L 135.954641 128.820529 
L 136.128706 128.834661 
L 136.503608 128.834141 
L 136.69106 128.841971 
L 136.905292 128.845642 
L 137.039187 128.856841 
L 137.253419 128.848686 
L 137.467647 128.845945 
L 138.846758 128.763659 
L 138.873537 127.312749 
L 138.886929 127.349846 
L 139.114548 112.468745 
L 139.127939 115.449847 
L 139.208276 109.18731 
L 139.609957 89.910809 
L 139.623349 92.482007 
L 139.690294 87.797968 
L 139.703685 88.155908 
L 139.73046 86.816187 
L 139.757239 89.341918 
L 139.79741 97.396495 
L 139.850968 87.385633 
L 140.0652 72.43782 
L 140.105366 72.609996 
L 140.26604 78.378192 
L 140.279427 75.665358 
L 140.359764 80.216204 
L 140.373156 78.519089 
L 140.413322 81.031432 
L 140.480272 80.537743 
L 140.493659 79.75978 
L 140.560609 82.225133 
L 140.573996 81.413135 
L 141.270245 139.53454 
L 141.297024 139.259197 
L 141.310416 139.834534 
L 141.497869 132.887614 
L 141.538035 132.562494 
L 141.618372 134.349967 
L 141.631759 132.55503 
L 141.712096 136.07517 
L 141.725488 134.580011 
L 141.845991 137.254585 
L 141.899549 136.11501 
L 141.912941 138.426087 
L 141.926328 136.350034 
L 141.979886 138.282519 
L 142.033444 137.608243 
L 142.060223 137.695409 
L 142.247676 133.864734 
L 142.475295 149.005774 
L 142.542245 153.987178 
L 142.863588 182.116483 
L 143.117986 191.988635 
L 143.171544 191.219218 
L 143.613396 172.216081 
L 144.644384 105.047157 
L 144.95234 99.752871 
L 144.965728 100.122704 
L 145.019286 98.902473 
L 145.099623 97.22809 
L 145.407583 88.578943 
L 145.715539 81.325743 
L 145.728927 81.286556 
L 145.969938 76.158448 
L 145.983325 76.274731 
L 146.023496 75.796527 
L 146.063662 75.427883 
L 146.143999 75.481191 
L 146.318064 77.18777 
L 146.38501 77.819962 
L 146.867027 89.77623 
L 147.067872 102.637243 
L 147.844458 171.284162 
L 148.246143 184.230058 
L 148.25953 184.195671 
L 148.272917 184.401896 
L 148.500541 185.148025 
L 148.594265 185.100289 
L 149.129845 174.476 
L 149.544917 160.872918 
L 150.147442 141.829133 
L 151.513161 84.494405 
L 151.821118 78.56284 
L 152.021962 77.411201 
L 152.062129 77.467014 
L 152.249581 78.172008 
L 152.410255 80.21382 
L 152.932443 103.010895 
L 153.494798 147.402492 
L 153.95004 176.267325 
L 154.365113 188.373982 
L 154.432058 189.223482 
L 154.499003 189.038696 
L 154.619511 187.728215 
L 154.887301 181.208506 
L 155.288981 164.988371 
L 157.042998 84.755757 
L 157.444678 79.172895 
L 157.551794 78.821091 
L 157.591965 78.866577 
L 157.699081 79.601256 
L 157.859751 80.708641 
L 157.980258 82.136623 
L 158.274823 88.792406 
L 158.997855 110.267267 
L 159.399536 126.797552 
L 160.604586 181.560629 
L 160.939321 188.122922 
L 161.019658 188.449488 
L 161.073216 188.319017 
L 161.180332 187.330485 
L 161.421343 182.228741 
L 161.809636 168.251504 
L 162.358598 139.520658 
L 163.054852 101.666055 
L 163.617206 82.777393 
L 163.91178 79.018572 
L 164.018887 78.78716 
L 164.059062 78.848405 
L 164.192952 79.559025 
L 164.367018 81.73075 
L 164.688366 89.700422 
L 165.197162 109.577158 
L 165.813074 144.259522 
L 166.482545 178.726708 
L 166.844059 187.414106 
L 167.031516 188.717212 
L 167.044899 188.714515 
L 167.138632 188.39057 
L 167.299297 186.67198 
L 167.580479 180.394257 
L 167.982159 165.690685 
L 168.691805 130.876866 
L 169.401441 96.140274 
L 169.843297 81.998589 
L 170.137861 78.512153 
L 170.191419 78.413327 
L 170.258369 78.512895 
L 170.432425 79.86718 
L 170.673441 84.18939 
L 171.088513 97.000172 
L 172.320337 148.150876 
L 172.909475 170.230908 
L 173.244206 176.072065 
L 173.391497 176.670355 
L 173.418272 176.628459 
L 173.525387 176.058742 
L 173.712836 173.96309 
L 173.927068 169.775516 
L 174.355532 156.04753 
L 175.841754 108.488891 
L 176.243444 103.263158 
L 176.444284 102.510139 
L 176.591566 102.770348 
L 176.75224 103.775231 
L 177.073588 107.518945 
L 177.582384 116.5801 
L 178.62676 136.745492 
L 179.108782 142.052899 
L 179.403346 143.329643 
L 179.510462 143.427249 
L 179.56402 143.366454 
L 179.63097 143.237985 
L 179.805027 142.496959 
L 180.193324 139.435021 
L 181.077027 129.94451 
L 181.933954 121.909427 
L 182.282077 120.322225 
L 182.496308 119.980442 
L 182.509691 119.99326 
L 182.616807 120.032471 
L 182.804265 120.372526 
L 182.978321 120.935669 
L 183.96914 126.421044 
L 184.625227 130.31891 
L 185.254531 132.779148 
L 185.482146 133.191948 
L 185.749936 133.268507 
L 186.124841 132.715474 
L 186.486355 131.695496 
L 187.825296 127.38645 
L 188.173427 126.771935 
L 188.615274 126.457084 
L 188.802731 126.495375 
L 188.909847 126.534886 
L 189.083904 126.653372 
L 189.7266 127.436929 
L 191.386888 129.495139 
L 192.150083 129.559058 
L 192.33754 129.496029 
L 192.846336 129.215556 
L 193.234634 128.951966 
L 193.435474 128.833402 
L 193.904104 128.572007 
L 194.01122 128.533344 
L 194.238835 128.453951 
L 194.372734 128.441607 
L 194.560183 128.402429 
L 194.734248 128.415226 
L 194.894922 128.402714 
L 195.095762 128.439792 
L 195.229653 128.468617 
L 195.470668 128.510408 
L 195.832182 128.609021 
L 195.939298 128.625814 
L 195.952681 128.642418 
L 197.184515 128.94301 
L 197.452304 128.980008 
L 197.612978 128.996695 
L 201.656583 128.767253 
L 201.803866 128.791624 
L 201.991314 128.796013 
L 202.192163 128.809807 
L 202.459944 128.8293 
L 202.687568 128.836519 
L 202.982132 128.866388 
L 203.531104 128.891657 
L 204.722762 128.893919 
L 204.870044 128.90915 
L 205.097668 128.886843 
L 205.285116 128.896922 
L 205.472574 128.886253 
L 205.660022 128.896685 
L 205.860862 128.884971 
L 206.021536 128.897645 
L 206.222376 128.872013 
L 206.369659 128.88473 
L 206.530333 128.872694 
L 206.691006 128.871473 
L 208.806542 128.90608 
L 209.301947 128.917403 
L 211.564764 128.938144 
L 211.658489 128.90223 
L 211.685263 128.915711 
L 211.765605 129.030926 
L 211.845937 129.25725 
L 211.859329 128.570639 
L 211.872721 129.308991 
L 211.899495 128.075711 
L 211.939661 114.535531 
L 211.979837 126.778327 
L 212.073561 152.025663 
L 212.006611 113.704651 
L 212.086953 132.395019 
L 212.100335 133.731762 
L 212.234235 75.476798 
L 212.247626 80.890889 
L 212.341351 108.784465 
L 212.421683 140.826717 
L 212.475241 118.310535 
L 212.528799 74.981978 
L 212.635915 88.957636 
L 212.689473 114.104143 
L 212.729639 86.195451 
L 212.756423 102.289854 
L 212.769814 104.276743 
L 212.783197 95.997984 
L 212.903705 57.343959 
L 212.943871 62.389728 
L 213.091154 96.787495 
L 212.970655 61.987453 
L 213.104545 86.4498 
L 213.211661 67.623463 
L 213.131329 95.584123 
L 213.225053 72.771806 
L 213.292003 99.824765 
L 213.358943 99.208157 
L 213.452668 67.039386 
L 213.506226 76.276165 
L 213.533009 73.764176 
L 213.559784 98.836195 
L 213.613342 69.193216 
L 213.640125 74.803197 
L 213.653517 57.988318 
L 213.680291 76.827293 
L 213.747241 71.034525 
L 213.760633 65.098845 
L 213.827573 77.794822 
L 213.840965 75.704985 
L 213.974856 137.496656 
L 213.988247 137.389869 
L 214.015031 123.770902 
L 214.041805 141.53931 
L 214.081972 128.60158 
L 214.189088 149.843145 
L 214.122147 125.333954 
L 214.202479 149.212816 
L 214.215871 140.874217 
L 214.269429 161.414152 
L 214.309595 145.6075 
L 214.349762 158.244505 
L 214.376545 137.778287 
L 214.403319 144.489028 
L 214.537219 112.526417 
L 214.550602 112.94618 
L 214.684501 148.753162 
L 214.764834 143.878912 
L 214.898733 123.694204 
L 214.979065 156.302708 
L 215.019232 143.608271 
L 215.059407 161.051437 
L 215.086181 141.62386 
L 215.112965 144.449616 
L 215.153131 129.229778 
L 215.233464 136.977265 
L 215.260247 143.351166 
L 215.327188 135.795834 
L 215.34058 137.390505 
L 215.367363 130.438179 
L 215.380746 141.806695 
L 215.447696 137.064013 
L 215.461087 136.748587 
L 215.621761 167.509334 
L 215.514645 132.609266 
L 215.635153 161.700089 
L 215.648536 161.895148 
L 215.675319 174.77361 
L 215.769043 167.935056 
L 215.782435 164.256028 
L 215.822601 175.525304 
L 215.956492 203.154557 
L 215.876159 171.926981 
L 215.969884 201.71546 
L 216.01005 212.788606 
L 216.103783 181.966158 
L 216.117166 196.779468 
L 216.157332 178.649695 
L 216.21089 181.907097 
L 216.224282 178.069328 
L 216.251065 186.659651 
L 216.304623 184.386673 
L 216.384956 194.835357 
L 216.411739 192.642212 
L 216.54563 168.697272 
L 216.559021 169.765874 
L 216.585796 179.799505 
L 216.612579 160.709833 
L 216.666137 170.654013 
L 216.67952 163.308755 
L 216.759862 179.839517 
L 216.907144 153.071746 
L 216.920535 157.748151 
L 217.107984 137.242956 
L 217.121376 138.097035 
L 217.14815 134.693192 
L 217.255266 117.693067 
L 217.268658 120.388341 
L 217.348999 112.555875 
L 217.322216 129.976861 
L 217.389166 114.720957 
L 217.402557 113.908606 
L 217.429332 124.300328 
L 217.509673 116.200234 
L 217.523056 118.879656 
L 217.563231 111.023936 
L 217.603397 115.125978 
L 217.630172 103.546711 
L 217.723896 106.369926 
L 217.790846 111.995048 
L 217.764071 105.777261 
L 217.831012 107.971285 
L 217.844404 107.959091 
L 217.95152 85.575795 
L 218.01847 89.762517 
L 218.045244 104.212578 
L 218.138968 95.421073 
L 218.192526 105.197474 
L 218.165752 94.435964 
L 218.246084 99.372307 
L 218.286259 100.197687 
L 218.42015 81.962363 
L 218.4871 97.742511 
L 218.527266 82.032016 
L 218.540658 79.328521 
L 218.580824 87.195352 
L 218.607598 84.843684 
L 218.62099 92.121772 
L 218.661156 83.809042 
L 218.701331 85.001185 
L 218.795056 80.237599 
L 218.768272 88.591753 
L 218.82183 81.148955 
L 218.848614 79.415253 
L 218.969121 67.845275 
L 218.982504 75.89365 
L 219.009288 66.498207 
L 219.08962 74.178716 
L 219.143178 78.898509 
L 219.210128 72.69259 
L 219.263686 81.922331 
L 219.29046 69.500586 
L 219.330635 77.691025 
L 219.344018 76.118065 
L 219.384193 80.984534 
L 219.451134 89.946634 
L 219.504692 86.377861 
L 219.638592 74.749915 
L 219.651975 73.994013 
L 219.678758 77.486923 
L 219.69215 78.510246 
L 219.705532 71.010797 
L 219.75909 82.766396 
L 219.785874 79.766397 
L 220.656184 153.838091 
L 220.669576 146.179891 
L 220.736526 163.688641 
L 220.749909 162.080259 
L 220.83025 170.340526 
L 220.910582 164.760045 
L 220.96414 178.534148 
L 220.977532 178.619666 
L 220.990924 175.848032 
L 221.057865 184.472556 
L 221.09804 180.413394 
L 221.178372 189.421228 
L 221.191764 189.901195 
L 221.205156 188.128794 
L 221.285488 183.281083 
L 221.272097 188.926943 
L 221.29888 183.958719 
L 221.312272 189.080988 
L 221.352438 178.908612 
L 221.405996 186.153464 
L 221.526495 179.103598 
L 221.539886 179.647088 
L 221.633611 184.275034 
L 221.660394 183.050085 
L 221.673786 183.334467 
L 221.687169 180.152418 
L 221.713952 188.066612 
L 221.76751 183.472103 
L 221.888009 188.854051 
L 221.901401 186.872435 
L 222.048683 176.407062 
L 222.088858 186.010753 
L 222.129024 173.378497 
L 222.155799 179.701145 
L 222.276306 164.19173 
L 222.289698 169.339467 
L 222.477147 157.09503 
L 222.490538 162.22559 
L 222.517313 164.660419 
L 222.557488 160.1677 
L 222.570871 157.25663 
L 222.611046 160.411783 
L 222.677987 157.963824 
L 222.758328 156.979805 
L 222.798494 162.362215 
L 222.932385 149.798283 
L 223.026118 143.325767 
L 222.985943 151.811259 
L 223.066284 146.412279 
L 223.494748 126.250812 
L 223.508131 127.151218 
L 223.548306 129.84755 
L 223.575081 122.500111 
L 223.588472 121.69484 
L 223.615247 123.209417 
L 223.628639 126.61027 
L 223.695588 117.475533 
L 223.70898 121.625343 
L 223.936595 102.226098 
L 224.016936 102.349605 
L 224.043711 105.079068 
L 224.083877 99.091169 
L 224.124052 102.380409 
L 224.137435 102.530571 
L 224.271334 93.885436 
L 224.284717 94.687149 
L 224.298109 97.793249 
L 224.338275 88.894868 
L 224.391833 93.818795 
L 224.619457 78.452668 
L 224.686406 79.682174 
L 224.699789 79.690098 
L 224.713181 81.121785 
L 224.766739 76.865823 
L 224.780131 75.325781 
L 224.793522 78.606719 
L 224.860463 77.694467 
L 224.954196 79.750527 
L 224.900638 74.513365 
L 224.967579 79.254278 
L 225.101479 75.064496 
L 225.235369 82.62729 
L 225.31571 77.209094 
L 225.342485 82.4308 
L 225.355877 82.359984 
L 225.409435 78.333232 
L 225.449601 83.030933 
L 225.489767 80.645468 
L 225.516551 80.160837 
L 225.663833 87.259753 
L 225.744165 91.080308 
L 225.703999 84.361802 
L 225.78434 90.78025 
L 225.797723 90.634534 
L 225.971789 104.945463 
L 225.998572 102.694714 
L 226.199413 121.51592 
L 226.386861 136.34884 
L 226.400253 134.230619 
L 226.453811 141.045437 
L 226.493977 144.691717 
L 227.056331 180.066177 
L 227.083115 179.567767 
L 227.096498 179.4872 
L 227.270563 185.059732 
L 227.283955 184.385455 
L 227.31073 185.90169 
L 227.324121 185.36584 
L 227.444629 188.499391 
L 227.458021 188.801572 
L 227.484795 187.171059 
L 227.498187 186.456027 
L 227.524961 188.316333 
L 227.565128 187.892524 
L 227.645469 191.20847 
L 227.672244 188.51035 
L 227.806143 183.468839 
L 227.699027 188.671701 
L 227.832918 185.199918 
L 227.859701 185.05504 
L 228.020375 177.154055 
L 228.033758 177.519284 
L 228.047149 178.051462 
L 228.073933 175.36637 
L 228.087316 175.377637 
L 228.408664 158.632178 
L 228.422055 162.345481 
L 228.489005 155.887383 
L 228.502388 156.768165 
L 228.730011 144.276457 
L 228.743403 145.555362 
L 228.810353 141.515544 
L 229.627105 97.962158 
L 230.068952 84.912776 
L 230.443858 79.3998 
L 230.577757 78.802913 
L 230.617923 78.822274 
L 230.738431 79.682496 
L 230.912488 80.809184 
L 231.086553 83.492498 
L 231.581958 96.783425 
L 232.385328 124.360327 
L 233.73766 184.148037 
L 234.00545 188.277586 
L 234.059008 188.402797 
L 234.099174 188.314867 
L 234.219682 187.193493 
L 234.40713 183.411228 
L 234.74187 172.422649 
L 235.223883 149.532513 
L 236.41555 89.047036 
L 236.790447 80.351835 
L 237.031462 78.739284 
L 237.07162 78.739392 
L 237.098403 78.799378 
L 237.245694 79.643041 
L 237.433143 82.235926 
L 237.714315 89.363178 
L 238.249895 110.404483 
L 238.785475 140.408247 
L 239.508503 178.389321 
L 239.870026 187.257842 
L 240.070866 188.654578 
L 240.084258 188.643026 
L 240.151199 188.443693 
L 240.285098 187.244894 
L 240.512704 183.028417 
L 240.874227 171.417989 
L 241.624039 136.590621 
L 242.521124 92.66219 
L 242.922804 81.056846 
L 243.190603 78.379629 
L 243.244152 78.344834 
L 243.284327 78.402397 
L 243.4316 79.383295 
L 243.659224 83.009659 
L 244.034139 93.768882 
L 244.770559 122.379017 
L 246.203223 175.191918 
L 246.390672 176.582552 
L 246.417455 176.569009 
L 246.497788 176.366631 
L 246.71202 174.365416 
L 246.993192 168.870809 
L 247.528772 150.951165 
L 248.720439 111.69966 
L 249.162277 104.193053 
L 249.416684 102.51821 
L 249.510408 102.431237 
L 249.550584 102.47777 
L 249.630916 102.701216 
L 249.871931 104.48798 
L 250.287003 110.321477 
L 251.170697 128.023263 
L 251.853568 139.330073 
L 252.26864 142.793705 
L 252.496246 143.418238 
L 252.576596 143.407932 
L 252.589988 143.384895 
L 252.723869 143.059039 
L 253.031825 141.140676 
L 253.80842 133.314991 
L 254.986696 121.790639 
L 255.348201 120.231468 
L 255.602608 119.992117 
L 255.629374 120.017725 
L 255.856998 120.420514 
L 256.205129 121.80715 
L 256.901374 125.787432 
L 258.159982 132.443895 
L 258.54827 133.231091 
L 258.88301 133.194962 
L 259.08385 132.882696 
L 261.226169 126.749423 
L 261.761731 126.46349 
L 262.886457 127.641984 
L 263.569311 128.659547 
L 264.037949 129.219454 
L 264.345906 129.446863 
L 264.720803 129.602923 
L 264.868094 129.603912 
L 265.015367 129.603148 
L 265.229599 129.538418 
L 265.350107 129.51192 
L 265.658063 129.353755 
L 266.260583 128.96346 
L 266.474815 128.828805 
L 267.117511 128.51023 
L 267.25141 128.48062 
L 267.412075 128.4257 
L 267.599524 128.409002 
L 268.108338 128.434179 
L 269.273204 128.720864 
L 269.433887 128.778388 
L 269.594552 128.814913 
L 269.782 128.87279 
L 269.9159 128.888268 
L 270.585379 129.004329 
L 270.732652 129.002828 
L 270.906727 129.015045 
L 271.562796 128.975977 
L 271.750262 128.951161 
L 271.884144 128.951475 
L 272.031435 128.913703 
L 272.1921 128.911455 
L 272.352783 128.873784 
L 272.486682 128.871987 
L 272.500056 128.853142 
L 272.968695 128.808286 
L 273.089203 128.80712 
L 273.102595 128.785819 
L 273.839015 128.760322 
L 276.222331 128.884211 
L 276.369605 128.885284 
L 276.530287 128.897751 
L 276.690952 128.885901 
L 276.891793 128.911581 
L 277.039084 128.898766 
L 277.199749 128.910813 
L 277.373823 128.898213 
L 284.912062 128.848429 
L 284.925454 128.730742 
L 285.153077 107.252667 
L 285.166469 113.321321 
L 285.246801 103.16844 
L 285.260193 104.000784 
L 285.300368 100.728822 
L 285.795773 70.161801 
L 285.822556 72.65019 
L 285.862714 84.06205 
L 285.929655 71.188659 
L 286.076946 52.266481 
L 286.090337 51.148052 
L 286.157278 53.396487 
L 286.184062 52.562038 
L 286.210845 52.528334 
L 286.251002 54.410608 
L 286.492018 62.250842 
L 286.558959 60.609058 
L 286.57235 63.989819 
L 286.585742 62.215251 
L 286.733033 69.10118 
L 287.000814 108.940888 
L 287.161497 135.015032 
L 287.174888 133.968257 
L 287.215046 138.982304 
L 287.375729 144.118062 
L 287.389103 143.029631 
L 287.603335 134.072926 
L 287.656901 135.248522 
L 287.670293 133.763731 
L 287.697076 133.714438 
L 287.804192 140.213195 
L 287.817567 137.009333 
L 287.911291 140.270841 
L 287.924682 140.489125 
L 287.938074 138.214595 
L 287.951466 142.469325 
L 288.031798 140.198879 
L 288.04519 142.053201 
L 288.138914 140.128804 
L 288.312989 135.423662 
L 288.205873 140.812528 
L 288.339755 136.802702 
L 289.062783 212.426883 
L 289.156525 216.142739 
L 289.223466 215.30771 
L 289.290406 213.746914 
L 289.598363 196.572957 
L 289.906319 165.192779 
L 289.933102 162.586067 
L 290.897146 91.025573 
L 290.923929 91.230105 
L 291.111377 86.757342 
L 291.124769 86.783346 
L 291.539841 71.046172 
L 291.861189 60.957165 
L 292.12897 55.12761 
L 292.209303 55.154601 
L 292.396751 57.665048 
L 292.410143 57.667114 
L 293.012681 80.511194 
L 294.00349 193.836937 
L 294.284663 204.965584 
L 294.298055 204.722295 
L 294.351622 205.548577 
L 294.565854 206.543159 
L 294.806851 205.063134 
L 295.088042 196.733849 
L 295.677171 170.782587 
L 295.904794 162.763578 
L 296.279691 142.521192 
L 297.123227 91.499968 
L 297.712356 63.139006 
L 297.953371 58.593547 
L 298.100662 57.816499 
L 298.127428 57.887147 
L 298.167603 58.125973 
L 298.435384 60.474578 
L 298.5425 64.635804 
L 299.011139 94.137086 
L 299.47976 145.142868 
L 300.068907 196.961206 
L 300.497371 212.134659 
L 300.55092 212.029829 
L 300.711602 209.487788 
L 301.019559 198.20857 
L 301.474788 170.629437 
L 302.96102 72.618436 
L 303.389484 61.737081 
L 303.617107 59.752074 
L 303.643873 59.782897 
L 303.710831 60.111962 
L 303.777772 61.110981 
L 303.965221 62.775638 
L 304.125904 66.42325 
L 304.701641 88.268857 
L 305.438061 123.947903 
L 306.683277 201.959373 
L 307.018016 210.664433 
L 307.084957 211.035846 
L 307.138524 210.879079 
L 307.24564 209.537028 
L 307.486655 202.532715 
L 307.834769 185.71204 
L 308.410524 144.934193 
L 309.160335 89.074602 
L 309.669132 65.660679 
L 309.963696 60.122474 
L 310.084204 59.675281 
L 310.124361 59.750818 
L 310.244869 60.573492 
L 310.418926 63.3816 
L 310.659941 70.720633 
L 311.115188 93.175345 
L 311.664142 131.576446 
L 312.547853 197.47016 
L 312.909376 209.540917 
L 313.110216 211.388543 
L 313.20394 210.967672 
L 313.377997 208.326238 
L 313.672562 198.943377 
L 314.114417 175.774567 
L 314.783896 129.655633 
L 315.520299 80.768677 
L 315.948762 63.094216 
L 316.216561 59.229911 
L 316.283502 59.16386 
L 316.323677 59.26702 
L 316.497734 61.120269 
L 316.698574 65.777304 
L 317.127038 83.363114 
L 318.050906 134.227147 
L 319.028341 187.605241 
L 319.336298 194.203965 
L 319.456805 194.749734 
L 319.483571 194.696516 
L 319.563921 194.226838 
L 319.75137 191.600283 
L 320.005759 184.887811 
L 320.447615 165.136644 
L 321.813339 103.382217 
L 322.215019 94.553366 
L 322.496192 92.446922 
L 322.522975 92.409322 
L 322.589934 92.49993 
L 322.737207 93.320937 
L 322.991614 96.597352 
L 323.339728 103.758812 
L 323.969032 120.962808 
L 324.759018 140.937596 
L 325.200874 147.233018 
L 325.468655 148.77334 
L 325.575771 148.906166 
L 325.62932 148.839455 
L 325.70967 148.604666 
L 325.937276 147.055994 
L 326.24525 143.614576 
L 327.075394 131.364358 
L 327.905538 120.127885 
L 328.267044 117.378911 
L 328.561608 116.554751 
L 328.816015 116.899689 
L 329.17752 118.660712 
L 329.646159 122.128596 
L 330.958316 132.51572 
L 331.306448 134.164002 
L 331.560837 134.79074 
L 331.775069 134.920103 
L 332.176767 134.17629 
L 332.65878 132.22656 
L 333.944171 126.611787 
L 334.345852 125.751352 
L 334.894805 125.530353 
L 335.216153 125.840183 
L 335.510735 126.284606 
L 335.872241 127.018196 
L 337.304905 129.541391 
L 337.733369 129.807599 
L 338.027934 129.818741 
L 338.175225 129.785629 
L 338.362673 129.694896 
L 338.697413 129.476236 
L 338.911645 129.298194 
L 339.594498 128.680446 
L 340.130078 128.322747 
L 340.705832 128.168348 
L 340.879889 128.178838 
L 341.040554 128.181929 
L 341.415469 128.284518 
L 341.549368 128.310893 
L 341.830541 128.41509 
L 342.08493 128.520472 
L 342.392904 128.648912 
L 342.500002 128.676459 
L 342.70086 128.766255 
L 342.82135 128.80614 
L 344.013017 129.001312 
L 344.146917 128.994064 
L 344.401306 128.969456 
L 345.137726 128.865904 
L 345.285017 128.840224 
L 345.552798 128.787643 
L 345.753638 128.761901 
L 346.141945 128.709571 
L 346.289218 128.675415 
L 346.436509 128.674567 
L 346.623958 128.664623 
L 346.798014 128.662098 
L 346.985463 128.647993 
L 347.132754 128.662477 
L 347.293419 128.650795 
L 347.480885 128.675785 
L 347.64155 128.663497 
L 347.828999 128.701961 
L 347.989682 128.702343 
L 348.163738 128.727791 
L 348.311029 128.743449 
L 348.605594 128.755804 
L 348.793042 128.780374 
L 348.940333 128.784952 
L 349.221506 128.8176 
L 349.395563 128.82257 
L 349.636578 128.83636 
L 349.944534 128.854607 
L 350.319431 128.850291 
L 350.58723 128.852324 
L 357.763963 128.94408 
L 357.857688 128.795049 
L 357.790747 128.97205 
L 357.884471 128.82294 
L 357.93802 129.007723 
L 357.951412 128.633431 
L 357.978195 125.848932 
L 357.991587 126.788858 
L 358.152252 107.646662 
L 358.165644 113.660066 
L 358.219211 101.337478 
L 358.232585 109.041616 
L 358.353092 92.920963 
L 358.366484 93.296202 
L 358.379876 91.616952 
L 358.553932 77.367299 
L 358.580716 78.837829 
L 358.714615 66.046685 
L 358.728007 70.849344 
L 358.794948 60.742946 
L 358.808339 64.402613 
L 358.821731 60.794889 
L 358.87528 74.135143 
L 358.888672 70.382019 
L 358.902064 79.723631 
L 358.969005 58.609784 
L 359.116296 37.929561 
L 359.129687 38.623581 
L 359.169845 37.284545 
L 359.330527 44.227423 
L 359.343919 43.970065 
L 359.357311 44.302871 
L 359.384077 42.119525 
L 359.491193 51.648565 
L 359.504584 47.224575 
L 359.517976 52.879022 
L 359.598309 49.859895 
L 359.625092 49.67205 
L 359.732208 57.532946 
L 359.7456 55.97818 
L 359.799149 61.491421 
L 360.187455 135.939337 
L 360.200847 134.962743 
L 360.227613 140.108244 
L 360.241004 137.686687 
L 360.374904 146.465902 
L 360.522177 139.258366 
L 360.415079 146.713108 
L 360.54896 139.91387 
L 360.642685 134.579978 
L 360.669468 135.332676 
L 360.709643 135.710662 
L 360.736409 134.81951 
L 360.843525 141.956876 
L 360.856917 137.838912 
L 360.950641 142.995706 
L 361.030991 140.293885 
L 361.017599 144.560839 
L 361.057757 142.611181 
L 361.08454 144.055391 
L 361.151481 142.440763 
L 361.164873 143.135682 
L 361.312164 137.763869 
L 361.338947 138.202103 
L 361.352339 137.228644 
L 361.633512 169.459177 
L 361.646903 169.527615 
L 361.874509 202.887515 
L 361.887901 202.784215 
L 362.048584 223.368838 
L 362.061975 222.587481 
L 362.088741 226.005542 
L 362.22264 230.975455 
L 362.236032 229.180333 
L 362.262816 230.223161 
L 362.316365 228.394303 
L 362.343148 227.053355 
L 362.35654 228.30161 
L 362.503813 218.360388 
L 362.517205 218.394157 
L 362.999235 165.284464 
L 363.347349 125.430188 
L 363.735655 91.16508 
L 363.896321 85.150226 
L 363.923104 85.991014 
L 363.963261 84.068428 
L 363.976653 84.201888 
L 364.217668 77.357122 
L 364.378334 70.059794 
L 364.605957 59.294815 
L 364.619349 59.889538 
L 364.659524 57.426056 
L 364.672916 57.772327 
L 365.128145 43.026183 
L 365.141537 43.122439 
L 365.154929 43.069316 
L 365.16832 42.470443 
L 365.248653 42.638316 
L 365.395944 45.132647 
L 365.409336 44.786153 
L 365.462885 46.181856 
L 365.663725 50.710453 
L 365.944898 64.281966 
L 365.958289 64.067728 
L 366.922333 194.978705 
L 367.270464 216.617249 
L 367.524853 219.662462 
L 367.551637 219.523378 
L 367.565029 219.764538 
L 367.645361 219.542637 
L 367.658753 219.76953 
L 367.712302 219.283857 
L 367.725694 219.515085 
L 368.114 208.744852 
L 368.703129 178.338426 
L 369.305649 145.468759 
L 370.001894 96.034803 
L 370.912389 47.848789 
L 371.113229 45.766627 
L 371.126621 45.74019 
L 371.18017 45.870507 
L 371.514909 50.383066 
L 372.050489 88.76361 
L 372.465561 141.461196 
L 373.041298 204.720415 
L 373.496546 225.786981 
L 373.536721 226.321818 
L 373.603661 226.00748 
L 373.710777 224.160689 
L 373.938401 215.814707 
L 374.313298 193.085937 
L 375.411241 101.004136 
L 375.759355 74.944467 
L 376.187818 56.269027 
L 376.576107 48.327149 
L 376.656457 48.015935 
L 376.710006 48.161725 
L 376.790339 48.959746 
L 376.977805 51.218534 
L 377.151862 55.520717 
L 377.67405 78.23041 
L 378.544352 128.985131 
L 379.588728 207.859117 
L 380.0038 223.909865 
L 380.124307 225.037053 
L 380.164482 224.916489 
L 380.28499 223.161128 
L 380.512614 215.428 
L 380.887511 194.085702 
L 381.436482 148.46397 
L 382.186294 82.869939 
L 382.681698 55.690617 
L 382.989655 48.521874 
L 383.123554 47.920265 
L 383.15032 47.986444 
L 383.244044 48.57673 
L 383.418118 51.370635 
L 383.659116 59.296192 
L 384.074188 82.181321 
L 384.636569 126.121989 
L 385.747886 217.243024 
L 386.042433 224.90576 
L 386.149566 225.444976 
L 386.189724 225.325967 
L 386.310231 223.991898 
L 386.49768 219.348449 
L 386.819045 204.947473 
L 387.31445 171.509413 
L 388.988112 51.767784 
L 389.255911 47.381719 
L 389.282694 47.290473 
L 389.349635 47.396949 
L 389.470143 48.531946 
L 389.697749 53.868376 
L 390.072646 70.542286 
L 390.969766 127.061864 
L 392.148024 200.571945 
L 392.429197 205.802002 
L 392.482764 205.946581 
L 392.53633 205.81722 
L 392.723779 203.493286 
L 393.004952 195.801729 
L 393.420006 174.790465 
L 394.959787 95.384548 
L 395.334719 87.519741 
L 395.548951 86.183322 
L 395.562325 86.200044 
L 395.656049 86.422563 
L 395.789931 87.449001 
L 396.05773 91.67885 
L 396.432627 101.127779 
L 397.142263 124.322056 
L 397.892093 145.086798 
L 398.33393 151.247166 
L 398.574946 152.28731 
L 398.722237 152.041167 
L 398.963252 150.211615 
L 399.351523 144.983244 
L 399.927278 135.028062 
L 400.904713 119.034893 
L 401.346551 115.140505 
L 401.574192 114.454082 
L 401.667916 114.444281 
L 401.6947 114.478556 
L 401.788424 114.643619 
L 402.029439 115.670964 
L 402.270419 117.336043 
L 402.739076 121.51487 
L 404.011058 133.250132 
L 404.493089 135.547747 
L 404.760852 135.930724 
L 405.122375 135.332204 
L 405.296449 134.734079 
L 405.979303 131.101767 
L 406.514865 128.141833 
L 407.104029 125.801054 
L 407.679748 124.890427 
L 407.853823 124.902286 
L 408.054681 125.035264 
L 408.362637 125.474831 
L 409.594461 128.344692 
L 410.531704 129.812752 
L 411.053892 129.952516 
L 411.482356 129.748776 
L 413.571108 128.036746 
L 413.718399 128.037416 
L 413.852281 128.012049 
L 414.093296 128.052628 
L 414.26737 128.076162 
L 414.454819 128.148469 
L 414.829716 128.286862 
L 415.043948 128.38952 
L 415.592919 128.639657 
L 415.766994 128.720743 
L 416.021383 128.80995 
L 416.168674 128.871515 
L 416.182048 128.863443 
L 416.650669 128.958295 
L 416.79796 128.990744 
L 416.958626 128.987522 
L 417.172857 128.978846 
L 417.373715 128.968107 
L 417.53438 128.937114 
L 417.681671 128.927613 
L 417.855746 128.88608 
L 418.003002 128.872758 
L 418.203859 128.820264 
L 418.337741 128.793928 
L 418.511816 128.754809 
L 418.645697 128.741775 
L 418.833146 128.690846 
L 418.967063 128.675249 
L 419.167885 128.637609 
L 419.315176 128.636234 
L 419.516034 128.599415 
L 419.703483 128.612102 
L 419.850739 128.586986 
L 420.06497 128.594837 
L 420.305986 128.588051 
L 420.587158 128.606518 
L 420.854957 128.631806 
L 421.203071 128.652138 
L 421.336988 128.688262 
L 421.53781 128.690552 
L 421.671727 128.728084 
L 421.859176 128.734068 
L 422.193915 128.769379 
L 422.421521 128.789937 
L 422.662537 128.799207 
L 422.796418 128.817114 
L 423.037434 128.816295 
L 423.184725 128.831474 
L 423.372173 128.821063 
L 423.532838 128.822684 
L 423.82742 128.81968 
L 423.988085 128.82134 
L 424.148751 128.807379 
L 424.309451 128.819497 
L 424.496899 128.793394 
L 426.063464 128.777587 
L 426.304479 128.771259 
L 426.599026 128.776137 
L 426.880198 128.782205 
L 427.014115 128.787749 
L 427.884417 128.809633 
L 428.018299 128.828846 
L 428.326255 128.824466 
L 428.460172 128.835719 
L 428.701187 128.843745 
L 428.875226 128.839879 
L 428.995734 128.857425 
L 429.009143 128.847702 
L 429.196592 128.857806 
L 429.38404 128.846976 
L 429.544705 128.846399 
L 430.816687 128.777775 
L 430.897038 128.697358 
L 430.910412 129.00202 
L 431.044329 124.701309 
L 431.057703 125.738942 
L 431.19162 114.317514 
L 431.204994 121.971246 
L 431.285344 106.637255 
L 431.298718 115.356155 
L 431.419226 103.646666 
L 431.4326 104.398064 
L 431.446009 106.153102 
L 431.499576 100.60655 
L 431.539733 98.153213 
L 431.526324 102.78551 
L 431.553107 101.566203 
L 431.660241 93.371726 
L 431.673615 96.467968 
L 431.780749 86.739314 
L 431.794123 90.969689 
L 431.861064 84.612938 
L 431.820906 91.634515 
L 431.887847 86.370769 
L 431.941414 98.952405 
L 431.981571 86.257556 
L 431.99498 88.979499 
L 432.115488 73.520517 
L 432.128862 75.30686 
L 432.155646 71.424496 
L 432.24937 72.790121 
L 432.276153 72.557695 
L 432.369878 76.692395 
L 432.383252 74.879257 
L 432.436818 81.596601 
L 432.450228 74.936428 
L 432.557326 82.354138 
L 432.624267 78.375811 
L 432.664424 79.758811 
L 433.414254 140.284891 
L 433.441037 139.866158 
L 433.548135 136.268358 
L 433.628485 132.034765 
L 433.574919 137.128524 
L 433.682052 132.117416 
L 433.748993 135.261528 
L 433.735584 131.662045 
L 433.789151 134.963597 
L 433.80256 132.786958 
L 433.869501 137.234745 
L 433.896284 135.301287 
L 433.990008 138.240518 
L 434.003383 133.893062 
L 434.016757 139.649142 
L 434.097107 136.224267 
L 434.110516 138.575487 
L 434.20424 137.277986 
L 434.244398 138.149536 
L 434.351496 132.925526 
L 434.485413 139.701277 
L 434.498787 139.497729 
L 434.726428 159.704423 
L 434.739802 158.413133 
L 434.77996 163.315637 
L 434.793369 162.929727 
L 434.954034 177.459847 
L 435.114699 189.232885 
L 435.128109 189.104913 
L 435.154892 189.895196 
L 435.221833 192.877909 
L 435.208424 189.088874 
L 435.302148 191.781046 
L 435.409282 186.709223 
L 435.422656 191.642856 
L 435.503006 184.937262 
L 435.51638 186.48191 
L 435.67708 175.949943 
L 435.690454 176.70077 
L 435.730612 172.862808 
L 435.824336 166.017276 
L 435.837745 166.490384 
L 435.99841 153.29548 
L 436.346524 129.692634 
L 436.493815 118.489689 
L 436.507224 118.958972 
L 436.73483 105.887072 
L 436.748204 106.878603 
L 436.788397 104.240717 
L 436.801771 104.980479 
L 436.935653 100.5836 
L 436.949062 103.288785 
L 437.042787 101.112151 
L 437.06957 101.407542 
L 437.176668 98.163739 
L 437.190078 98.469789 
L 437.230235 97.450342 
L 437.431093 91.73445 
L 437.444467 92.208214 
L 437.457841 90.379878 
L 437.484624 90.763446 
L 437.645325 85.691402 
L 437.658699 85.922135 
L 437.672073 84.685747 
L 437.685482 85.749 
L 437.819364 81.738301 
L 437.832773 82.417432 
L 437.899714 80.333549 
L 438.20767 75.275795 
L 438.261237 75.244296 
L 438.301394 75.872414 
L 438.314769 75.17528 
L 438.368335 76.256304 
L 438.381745 75.59815 
L 438.502217 77.72647 
L 438.515626 77.651114 
L 438.54241 78.027328 
L 439.024405 90.447338 
L 440.202698 181.213915 
L 440.216072 180.929259 
L 440.256265 182.000238 
L 440.403521 184.243898 
L 440.564221 185.128524 
L 440.577595 184.83996 
L 440.671319 184.976602 
L 440.684694 184.952026 
L 440.698103 185.217022 
L 440.778453 184.647391 
L 440.791827 184.716942 
L 440.831985 184.435346 
L 441.006059 181.996984 
L 441.662129 161.180072 
L 441.755853 159.006789 
L 442.237884 143.843974 
L 443.201909 101.295425 
L 443.697349 83.052314 
L 444.179345 77.323452 
L 444.219537 77.42332 
L 444.433769 78.460056 
L 444.487301 78.933517 
L 444.688159 84.992391 
L 445.116622 106.150746 
L 445.55846 141.434376 
L 446.134215 178.080077 
L 446.54927 189.103785 
L 446.562679 189.172029 
L 446.62962 189.004029 
L 446.763502 187.498371 
L 446.95095 183.241475 
L 447.272315 171.943441 
L 448.343475 118.583565 
L 448.785313 95.776581 
L 449.186993 84.558751 
L 449.5753 79.140453 
L 449.682398 78.749133 
L 449.735965 78.838581 
L 449.816315 79.253363 
L 450.311719 86.388616 
L 450.606266 94.383498 
L 451.423036 121.331946 
L 452.079106 155.281957 
L 452.775369 182.474493 
L 453.110108 188.251493 
L 453.163675 188.363706 
L 453.203832 188.264874 
L 453.32434 187.107214 
L 453.511789 183.317529 
L 453.859902 171.77722 
L 454.435657 143.122397 
L 455.292585 97.349518 
L 455.761206 82.539456 
L 456.042379 78.968102 
L 456.162886 78.693429 
L 456.18967 78.748703 
L 456.283394 79.129673 
L 456.484252 81.32458 
L 456.711858 86.253804 
L 457.113538 100.143193 
L 457.66251 126.694075 
L 458.787236 183.674815 
L 459.095192 188.393598 
L 459.175507 188.62093 
L 459.2157 188.57308 
L 459.349581 187.66115 
L 459.523656 185.005525 
L 459.871769 175.294425 
L 460.393957 153.100992 
L 462.000679 81.504995 
L 462.255068 78.483475 
L 462.348828 78.318809 
L 462.388985 78.394136 
L 462.54965 79.535186 
L 462.817449 84.282908 
L 463.20572 96.231335 
L 464.102841 132.013802 
L 465.133807 172.227415 
L 465.41498 176.252592 
L 465.522114 176.555229 
L 465.57568 176.450004 
L 465.74972 175.138983 
L 466.044302 170.16915 
L 466.48614 156.164058 
L 467.958979 108.786642 
L 468.320502 103.63184 
L 468.574892 102.429972 
L 468.668616 102.493704 
L 468.882848 103.636914 
L 469.257745 108.155935 
L 469.779933 117.758165 
L 470.904659 138.677252 
L 471.30634 142.449326 
L 471.600922 143.405593 
L 471.681237 143.390806 
L 471.70802 143.352425 
L 471.815154 143.07584 
L 471.975819 142.288047 
L 472.471223 138.069508 
L 474.305586 120.696229 
L 474.546566 120.049762 
L 474.693857 119.97647 
L 474.707267 119.997043 
L 474.827774 120.121091 
L 474.97503 120.455645 
L 475.282986 121.677903 
L 475.925682 125.296929 
L 476.675511 129.843718 
L 477.063782 131.703625 
L 477.411931 132.841524 
L 477.934119 133.232752 
L 478.027843 133.139455 
L 478.603598 131.759987 
L 479.755073 127.893385 
L 480.464709 126.604555 
L 480.759291 126.463139 
L 480.986897 126.498973 
L 481.214503 126.647299 
L 481.7501 127.274855 
L 482.593619 128.556034 
L 483.584463 129.52513 
L 484.535115 129.470452 
L 485.110835 129.132357 
L 485.298283 129.013671 
L 485.566082 128.832589 
L 487.119272 128.416379 
L 487.373661 128.469916 
L 487.494169 128.472736 
L 487.64146 128.504621 
L 487.909223 128.598026 
L 488.029731 128.619654 
L 488.203805 128.675348 
L 488.337687 128.703033 
L 488.645643 128.80726 
L 488.77956 128.832188 
L 488.967009 128.884938 
L 489.1143 128.898497 
L 489.315122 128.949953 
L 489.43563 128.950118 
L 489.449004 128.965283 
L 489.636488 128.989442 
L 489.77037 128.990568 
L 489.957818 129.014641 
L 490.145267 128.989404 
L 490.279148 129.00312 
L 490.413065 128.99023 
L 490.546947 128.99087 
L 490.680864 128.964572 
L 490.82812 128.964614 
L 490.975411 128.929887 
L 491.269993 128.911883 
L 491.403875 128.878402 
L 491.845712 128.830769 
L 491.993004 128.80931 
L 492.234019 128.787797 
L 493.492627 128.7568 
L 493.720233 128.778916 
L 493.894307 128.780998 
L 494.068382 128.792157 
L 494.242421 128.803341 
L 494.389712 128.81914 
L 494.550377 128.820561 
L 494.737861 128.845462 
L 494.885117 128.846285 
L 495.045817 128.859015 
L 495.193073 128.85984 
L 495.367147 128.884313 
L 495.501029 128.871479 
L 495.514438 128.887924 
L 495.715261 128.88803 
L 495.929493 128.908991 
L 496.116941 128.899832 
L 496.304425 128.909329 
L 496.491873 128.904005 
L 496.933711 128.907739 
L 497.241667 128.889539 
L 497.616564 128.890682 
L 498.272669 128.879731 
L 498.955523 128.872072 
L 503.882821 128.900765 
L 503.963171 128.712361 
L 503.976545 129.189787 
L 504.003329 129.263604 
L 504.043486 124.777657 
L 504.070269 114.479342 
L 504.110462 128.212745 
L 504.190777 151.290204 
L 504.13721 111.281637 
L 504.21756 134.872031 
L 504.364851 76.857925 
L 504.418418 84.941617 
L 504.538926 138.265216 
L 504.619241 115.755469 
L 504.672808 76.735458 
L 504.739748 98.823601 
L 504.753123 100.064216 
L 504.820099 112.611626 
L 504.860256 89.316309 
L 504.887039 104.287047 
L 504.95398 82.726616 
L 504.967354 83.470613 
L 505.020921 57.110545 
L 505.101271 62.884791 
L 505.221779 98.141334 
L 505.235153 84.961093 
L 505.342287 67.812966 
L 505.261937 96.066066 
L 505.355661 74.020348 
L 505.422602 100.64283 
L 505.502952 92.353002 
L 505.583302 63.238207 
L 505.663617 73.796745 
L 505.6904 99.182921 
L 505.743967 70.769612 
L 505.77075 75.942734 
L 505.784125 56.630916 
L 505.810908 76.730897 
L 505.877849 69.116856 
L 505.891258 66.16591 
L 505.94479 76.514848 
L 505.958199 76.250388 
L 506.038514 109.054981 
L 506.172431 139.654653 
L 506.252746 124.736616 
L 506.225962 143.880858 
L 506.279529 131.927199 
L 506.400037 162.528768 
L 506.413446 156.837267 
L 506.480387 157.164266 
L 506.547328 135.722492 
L 506.68121 112.060612 
L 506.694619 117.63825 
L 506.828501 147.182874 
L 506.975792 127.507861 
L 507.109673 155.806105 
L 507.029358 125.353074 
L 507.123083 150.791897 
L 507.149831 142.53398 
L 507.176614 158.533021 
L 507.190024 161.388419 
L 507.203398 145.234292 
L 507.297122 130.391516 
L 507.230181 149.639605 
L 507.350689 131.10217 
L 507.390846 143.184044 
L 507.471196 136.378321 
L 507.48457 130.592793 
L 507.511354 141.306695 
L 507.578295 137.379124 
L 507.591704 136.670087 
L 507.645271 133.314887 
L 507.752369 167.631657 
L 507.765778 161.12992 
L 507.805936 175.389198 
L 507.846093 173.161789 
L 507.913034 165.259854 
L 507.939818 169.377934 
L 508.087109 204.767105 
L 508.100483 199.405959 
L 508.127266 212.609322 
L 508.2344 183.655913 
L 508.247774 196.712269 
L 508.287966 177.778323 
L 508.341498 182.58014 
L 508.354907 177.818227 
L 508.435222 186.85609 
L 508.475415 191.198493 
L 508.569139 182.310404 
L 508.515572 194.411222 
L 508.582513 184.546577 
L 508.63608 190.757732 
L 508.609297 173.010226 
L 508.649454 182.232368 
L 508.743178 160.180565 
L 508.769962 170.332299 
L 508.836903 177.632775 
L 508.810154 164.508016 
L 508.850312 168.297079 
L 508.877095 166.758337 
L 508.890469 179.583035 
L 508.97082 157.33393 
L 508.984194 161.437325 
L 509.064544 153.331873 
L 509.158268 139.580006 
L 509.131485 153.53103 
L 509.198426 144.419535 
L 509.265366 136.245221 
L 509.412657 117.174769 
L 509.426067 121.391712 
L 509.452815 129.596484 
L 509.479598 112.406262 
L 509.506382 116.574449 
L 509.533165 114.366759 
L 509.546539 121.927331 
L 509.559948 124.691082 
L 509.613515 116.830517 
L 509.653673 118.688854 
L 509.760771 105.125524 
L 509.814338 115.294965 
L 509.787554 103.80613 
L 509.881279 110.871776 
L 509.921471 111.197917 
L 510.041979 87.957017 
L 510.082137 86.446584 
L 510.175861 104.455651 
L 510.229428 90.715706 
L 510.296368 94.702834 
L 510.309743 104.252965 
L 510.403467 97.410705 
L 510.416876 99.978253 
L 510.443659 86.281389 
L 510.457034 87.038795 
L 510.483817 87.551533 
L 510.497191 87.065723 
L 510.550758 81.689334 
L 510.617699 98.15488 
L 510.671265 79.311468 
L 510.738206 84.955406 
L 510.751616 92.742065 
L 510.791773 84.03195 
L 510.831931 84.664101 
L 510.925655 80.472909 
L 510.898907 87.940968 
L 510.952438 81.096572 
L 510.965847 80.953791 
L 511.099729 68.435676 
L 511.113103 76.679823 
L 511.139887 67.612626 
L 511.206863 74.902335 
L 511.24702 73.293217 
L 511.260394 74.364521 
L 511.273804 78.995775 
L 511.340745 73.088388 
L 511.367528 74.35172 
L 511.421059 69.725318 
L 511.394311 82.182319 
L 511.434469 77.642753 
L 511.447843 77.73098 
L 511.461252 77.434858 
L 511.474626 76.413161 
L 511.514819 81.264731 
L 511.58176 90.005111 
L 511.635291 86.302506 
L 511.769208 74.446912 
L 511.782582 74.443871 
L 511.970031 87.66256 
L 511.836149 70.623784 
L 511.98344 84.507547 
L 511.996814 82.692526 
L 512.023598 87.365606 
L 512.117322 98.485733 
L 512.077164 87.107706 
L 512.144105 94.923938 
L 512.277987 112.860234 
L 512.30477 110.38983 
L 512.344963 113.553527 
L 512.478845 137.549629 
L 512.492219 133.518589 
L 512.773427 154.015343 
L 512.786801 153.246007 
L 512.800175 146.139233 
L 512.867151 163.875122 
L 512.880525 162.075627 
L 512.960875 170.678776 
L 513.04119 164.803551 
L 513.094757 178.910031 
L 513.121541 176.181141 
L 513.161698 179.765545 
L 513.322363 190.058485 
L 513.416087 182.932192 
L 513.429497 184.439999 
L 513.442871 189.281418 
L 513.483063 178.885372 
L 513.536595 186.29103 
L 513.657103 178.644334 
L 513.670512 180.070684 
L 513.764236 184.362664 
L 513.724044 179.542156 
L 513.79102 183.089024 
L 513.804394 183.250483 
L 513.817768 180.143557 
L 513.844551 188.268737 
L 513.898118 183.794646 
L 513.938275 189.257805 
L 514.032 186.540075 
L 514.179291 176.49191 
L 514.219483 186.065017 
L 514.259641 173.412476 
L 514.286424 179.776874 
L 514.406932 164.648527 
L 514.420306 169.490608 
L 514.51403 167.080835 
L 514.607755 157.406321 
L 514.634538 164.182489 
L 514.647947 164.430416 
L 514.701479 157.082675 
L 514.76842 158.742121 
L 514.821986 162.093936 
L 514.808612 158.418128 
L 514.862144 161.054105 
L 514.888927 157.13116 
L 514.92912 162.549503 
L 514.982652 157.234668 
L 514.996061 157.873716 
L 515.009435 157.418386 
L 515.156726 143.375882 
L 515.196883 146.600059 
L 515.223667 142.825323 
L 515.263859 143.076543 
L 515.344174 136.062078 
L 515.370958 139.984049 
L 515.437899 133.298381 
L 515.571816 126.915395 
L 515.625347 126.309553 
L 515.678914 129.83853 
L 515.826205 117.579926 
L 515.839579 122.229128 
L 515.919929 111.991041 
L 515.933303 112.27296 
L 515.946713 115.575872 
L 516.027028 108.72403 
L 516.147535 102.526242 
L 516.160945 104.459967 
L 516.174319 105.19067 
L 516.187728 104.786239 
L 516.32161 95.867074 
L 516.348393 101.082277 
L 516.40196 93.522833 
L 516.428708 97.63209 
L 516.455491 93.469987 
L 516.468901 89.229919 
L 516.482275 95.006842 
L 516.575999 90.306457 
L 516.683133 82.273255 
L 516.709916 84.344886 
L 516.72329 85.904372 
L 516.750073 78.943826 
L 516.776857 82.973504 
L 516.910739 75.551207 
L 517.004463 79.553948 
L 517.017872 76.998382 
L 517.031246 74.620956 
L 517.084813 79.816859 
L 517.12497 77.432359 
L 517.151754 78.590957 
L 517.191911 75.53548 
L 517.205321 76.193615 
L 517.232104 75.291924 
L 517.258852 78.279223 
L 517.365986 83.141819 
L 517.406143 81.884103 
L 517.446336 77.25961 
L 517.473084 82.541505 
L 517.526651 78.522872 
L 517.54006 78.508589 
L 517.687316 84.839598 
L 517.767666 83.199994 
L 517.740883 85.979278 
L 517.78104 85.476342 
L 517.834607 84.98875 
L 517.968524 96.871205 
L 517.995272 95.699026 
L 518.008681 98.550289 
L 518.048839 98.463966 
L 518.19613 111.652212 
L 518.222913 112.379879 
L 519.133372 178.18913 
L 519.146782 178.042955 
L 519.160156 179.003692 
L 519.401171 185.086526 
L 519.41458 184.379494 
L 519.441364 185.787979 
L 519.454738 185.631632 
L 519.575246 188.68213 
L 519.58862 188.759701 
L 519.602029 188.259908 
L 519.628812 186.638301 
L 519.655561 188.487164 
L 519.709127 188.43334 
L 519.776068 191.363032 
L 519.74932 188.327228 
L 519.802852 188.632093 
L 519.936768 183.490202 
L 519.829635 188.912899 
L 519.950143 184.829868 
L 519.976926 185.212132 
L 520.003709 183.381119 
L 520.151 177.215749 
L 520.177749 178.015998 
L 520.191158 175.38726 
L 520.204532 175.510508 
L 520.217941 175.441011 
L 520.445547 163.694802 
L 520.458957 164.331763 
L 520.472331 165.802219 
L 520.525897 160.094378 
L 520.552681 162.566228 
L 520.766913 149.304043 
L 521.021302 136.806412 
L 521.034676 139.43585 
L 521.101652 133.177655 
L 521.115026 133.696981 
L 521.1284 134.232476 
L 521.155184 131.925328 
L 521.369416 118.795481 
L 521.784505 96.934729 
L 522.19956 84.939153 
L 522.60124 79.249073 
L 522.708374 78.867903 
L 522.761941 78.934257 
L 522.842256 79.347726 
L 523.431384 88.643572 
L 524.194588 111.422655 
L 524.676618 132.781435 
L 525.62727 177.057563 
L 526.042325 187.516373 
L 526.176242 188.489784 
L 526.216399 188.449832 
L 526.323497 187.630473 
L 526.510981 184.148541 
L 526.859095 173.035108 
L 527.381283 148.073747 
L 528.479226 91.358497 
L 528.880906 80.994941 
L 529.135295 78.865184 
L 529.175453 78.812157 
L 529.22902 78.898047 
L 529.389685 79.891073 
L 529.563759 82.36472 
L 529.871715 90.385906 
L 530.44747 113.807118 
L 531.10354 151.987166 
L 531.692669 180.331259 
L 532.027408 187.701204 
L 532.201483 188.748845 
L 532.228266 188.730663 
L 532.295207 188.476097 
L 532.455872 186.797829 
L 532.696888 181.757603 
L 533.098568 167.705916 
L 533.781421 135.122956 
L 534.665132 92.171025 
L 535.080187 80.694657 
L 535.321202 78.50617 
L 535.374769 78.452151 
L 535.414926 78.513718 
L 535.575626 79.653222 
L 535.84339 84.390556 
L 536.218287 95.813722 
L 537.329639 141.136017 
L 538.066059 170.080015 
L 538.400799 176.04981 
L 538.548054 176.700273 
L 538.588247 176.64323 
L 538.722129 175.819246 
L 538.922951 173.287835 
L 539.163967 167.819624 
L 539.820072 145.059344 
L 540.770723 113.70864 
L 541.225935 105.03937 
L 541.507143 102.760631 
L 541.614242 102.53564 
L 541.654399 102.5603 
L 541.8151 103.107579 
L 541.989139 104.466415 
L 542.390819 109.989413 
L 543.033515 122.57053 
L 543.944009 138.844253 
L 544.305532 142.294831 
L 544.586705 143.376254 
L 544.680429 143.439427 
L 544.720587 143.399873 
L 544.974976 142.469282 
L 545.323125 139.762331 
L 546.032761 132.254548 
L 546.889689 123.448405 
L 547.331527 120.716531 
L 547.585916 120.04541 
L 547.867124 120.149771 
L 548.34912 121.877472 
L 549.018599 125.713217 
L 550.22364 132.235743 
L 550.772611 133.295767 
L 550.973469 133.230151 
L 551.254642 132.793997 
L 551.509031 132.141747 
L 552.272235 129.487679 
L 553.048812 127.24309 
L 553.24967 126.903296 
L 553.530842 126.574484 
L 553.771858 126.470224 
L 553.919149 126.469813 
L 555.137564 127.820527 
L 556.021275 129.060363 
L 556.838045 129.596588 
L 557.186159 129.601067 
L 557.346824 129.542682 
L 559.636434 128.41566 
L 559.78369 128.415052 
L 559.94439 128.402591 
L 560.131839 128.42762 
L 560.26572 128.427549 
L 560.279094 128.443743 
L 560.52011 128.491586 
L 560.654027 128.507715 
L 560.841475 128.569398 
L 560.975357 128.600631 
L 561.33688 128.712594 
L 561.484171 128.741563 
L 561.65821 128.802997 
L 561.792127 128.839441 
L 562.80972 128.998272 
L 563.010542 129.01019 
L 565.206428 128.805314 
L 565.621482 128.78028 
L 565.795557 128.75509 
L 565.956222 128.753732 
L 566.772992 128.77931 
L 566.947031 128.782533 
L 567.147889 128.804501 
L 567.335338 128.809511 
L 567.576353 128.829711 
L 567.777211 128.837387 
L 568.178891 128.869123 
L 568.339556 128.879418 
L 569.022409 128.903385 
L 569.557972 128.898305 
L 576.707939 128.922166 
L 576.761506 128.885673 
L 576.801663 128.998648 
L 576.815073 128.852585 
L 576.828447 129.006749 
L 576.908797 128.922791 
L 576.962328 128.736818 
L 576.975738 129.198891 
L 577.243536 112.495208 
L 577.029304 129.498836 
L 577.270285 116.172999 
L 577.310477 100.75415 
L 577.297068 119.080463 
L 577.390792 104.525596 
L 577.538083 91.155884 
L 577.551492 94.425771 
L 577.564867 86.777507 
L 577.618433 87.975881 
L 577.685374 76.990649 
L 577.672 92.278198 
L 577.752315 78.829834 
L 577.792473 84.727934 
L 577.805882 69.669039 
L 577.819256 83.61915 
L 577.92639 66.981151 
L 577.99333 86.300533 
L 578.033488 77.704957 
L 578.180779 52.651403 
L 578.194188 55.673698 
L 578.220936 50.381975 
L 578.287912 54.79333 
L 578.301287 50.020182 
L 578.354853 54.820673 
L 578.395011 54.540141 
L 578.475361 53.576912 
L 578.502144 61.348424 
L 578.515518 54.954643 
L 578.555676 64.308511 
L 578.609243 62.519612 
L 578.636026 60.03536 
L 578.676184 63.985841 
L 578.689593 58.329456 
L 578.702967 66.224108 
L 578.783317 64.102121 
L 578.8101 61.934878 
L 578.997549 84.01746 
L 579.010923 84.560584 
L 579.171588 118.687296 
L 579.506328 144.764309 
L 579.519737 142.632475 
L 579.693776 132.812311 
L 579.814284 137.408551 
L 579.827693 132.75375 
L 579.908008 139.860631 
L 579.921417 135.517632 
L 580.041925 141.163489 
L 580.068708 137.535949 
L 580.082083 143.591693 
L 580.135649 140.547783 
L 580.175807 142.800343 
L 580.162433 139.191396 
L 580.242748 140.313209 
L 580.256157 141.221487 
L 580.282905 139.029745 
L 580.309689 140.338837 
L 580.416822 135.455442 
L 580.336472 141.528456 
L 580.430196 137.620412 
L 580.443605 135.193389 
L 580.510546 141.518498 
L 580.52392 139.159394 
L 580.831877 176.07283 
L 580.845286 176.071463 
L 581.032734 199.260565 
L 581.046108 199.173539 
L 581.220183 213.993097 
L 581.233557 213.161613 
L 581.287124 216.535515 
L 581.300533 213.327363 
L 581.313907 216.651572 
L 581.407631 213.631061 
L 581.447789 214.425226 
L 581.461198 211.923915 
L 582.3315 134.978698 
L 581.487982 214.399471 
L 582.344909 135.497621 
L 582.518948 118.9886 
L 582.73318 100.602996 
L 582.74659 101.590922 
L 582.786747 97.114415 
L 582.800121 98.422649 
L 582.907255 92.182816 
L 582.960821 92.565443 
L 582.974196 92.884878 
L 582.987605 92.700599 
L 583.014353 94.032099 
L 583.108077 89.337452 
L 583.121487 89.214185 
L 583.134861 90.408279 
L 583.175053 87.030441 
L 583.201802 87.86049 
L 584.031946 59.411376 
L 584.045355 60.168419 
L 584.098922 57.510404 
L 584.112296 57.465696 
L 584.125705 57.758767 
L 584.232804 55.147799 
L 584.246178 56.080429 
L 584.259587 54.697253 
L 584.353311 55.685275 
L 584.393469 56.352488 
L 584.406878 54.878124 
L 584.487193 57.647166 
L 584.527386 57.589791 
L 584.54076 57.529178 
L 584.688051 60.674733 
L 584.701425 60.658681 
L 584.714834 60.692067 
L 584.888873 66.198882 
L 584.902283 65.763616 
L 584.929066 67.572381 
L 584.94244 67.420847 
L 586.388497 204.371008 
L 586.401906 204.354184 
L 586.535788 206.166971 
L 586.549162 205.747439 
L 586.629512 206.482501 
L 586.642886 206.17594 
L 586.696453 206.625008 
L 586.750019 206.546028 
L 586.790177 206.620054 
L 586.991035 204.137645 
L 587.446282 185.704722 
L 587.874746 168.429657 
L 587.941687 166.303048 
L 588.396934 143.263968 
L 589.387743 83.584279 
L 589.802798 64.409542 
L 589.990246 59.770549 
L 590.003655 59.762472 
L 590.16432 57.917402 
L 590.217887 57.770191 
L 590.271454 57.878814 
L 590.57941 60.709407 
L 590.740075 67.86389 
L 591.168539 96.555949 
L 592.333423 203.199992 
L 592.62797 212.118531 
L 592.641379 212.107464 
L 592.654753 212.122018 
L 592.681536 212.022415 
L 592.868985 208.753306 
L 593.19035 196.174915 
L 593.511681 176.909115 
L 595.225536 68.334779 
L 595.654 60.126178 
L 595.747724 59.719269 
L 595.787881 59.801716 
L 595.895015 60.741614 
L 596.05568 62.324237 
L 596.135995 63.402013 
L 596.310069 68.240652 
L 597.341071 110.262467 
L 597.796283 140.430588 
L 598.572896 190.76521 
L 599.00136 208.048021 
L 599.215592 211.003321 
L 599.228966 210.998827 
L 599.309316 210.483664 
L 599.469981 207.254628 
L 599.764528 196.203685 
L 600.219775 169.532199 
L 601.772965 66.407746 
L 602.080921 60.194703 
L 602.228212 59.62926 
L 602.241586 59.688063 
L 602.335311 60.175928 
L 602.455818 61.542855 
L 602.67005 66.528998 
L 603.00479 80.287145 
L 603.553761 112.999118 
L 604.932877 207.09946 
L 605.187266 211.222168 
L 605.240833 211.347972 
L 605.294364 211.197548 
L 605.428281 209.770264 
L 605.669297 203.804768 
L 606.01741 188.622467 
L 606.67348 147.761603 
L 607.945497 67.132627 
L 608.253454 59.861966 
L 608.373961 59.083624 
L 608.427493 59.145079 
L 608.507843 59.598513 
L 608.614976 60.841981 
L 608.869366 67.002176 
L 609.29783 85.357741 
L 610.409147 148.503026 
L 611.078626 184.762549 
L 611.399956 193.32848 
L 611.587404 194.666477 
L 611.600814 194.634755 
L 611.667755 194.33578 
L 611.841829 192.218466 
L 612.109592 185.68981 
L 612.511273 168.255871 
L 614.091246 99.307849 
L 614.43936 93.390829 
L 614.653592 92.333779 
L 614.774099 92.654504 
L 614.85445 93.157485 
L 615.055272 95.471831 
L 615.403386 102.115587 
L 616.166589 122.886699 
L 616.916418 141.486293 
L 617.37163 147.604246 
L 617.666212 148.905333 
L 617.826878 148.652365 
L 618.094676 146.788088 
L 618.456199 142.550021 
L 620.183428 118.77396 
L 620.491384 116.968572 
L 620.692242 116.547923 
L 620.705616 116.554133 
L 620.812715 116.611982 
L 621.040356 117.227425 
L 621.241179 118.252111 
L 621.629485 120.956473 
L 622.914876 131.444939 
L 623.396907 134.030014 
L 623.67808 134.774845 
L 623.986036 134.854631 
L 624.200268 134.474678 
L 624.615322 133.023828 
L 625.981064 126.888635 
L 626.543409 125.66677 
L 626.918306 125.487892 
L 627.092381 125.570483 
L 627.681509 126.366239 
L 627.949308 126.894709 
L 629.341798 129.444263 
L 629.850612 129.813082 
L 629.997868 129.812543 
L 630.158568 129.824516 
L 630.506682 129.68188 
L 630.707504 129.563689 
L 632.033088 128.452904 
L 632.220537 128.343479 
L 632.809666 128.167504 
L 632.943547 128.174472 
L 633.264913 128.194726 
L 633.412169 128.247186 
L 633.55946 128.277013 
L 633.840632 128.366353 
L 634.028116 128.451961 
L 634.309289 128.556976 
L 634.644028 128.700285 
L 634.77791 128.739332 
L 634.992142 128.805128 
L 635.273315 128.896609 
L 635.420606 128.925422 
L 635.674995 128.976035 
L 635.822286 128.987718 
L 636.290908 129.002947 
L 636.478356 128.964001 
L 636.639056 128.963013 
L 636.826505 128.925603 
L 636.960387 128.908508 
L 637.187993 128.873026 
L 637.3085 128.857948 
L 637.522732 128.804966 
L 637.736964 128.774593 
L 638.486793 128.678053 
L 638.634049 128.671641 
L 639.049139 128.657086 
L 639.8525 128.683866 
L 640.066731 128.697136 
L 640.575545 128.744188 
L 640.856718 128.778598 
L 641.030757 128.782098 
L 641.258399 128.81899 
L 641.40569 128.815994 
L 641.539571 128.832622 
L 641.686862 128.84392 
L 642.088543 128.858634 
L 642.249208 128.846536 
L 642.409873 128.858624 
L 642.583947 128.846006 
L 650.068654 128.961389 
L 650.095403 127.987694 
L 650.349827 101.699938 
L 650.363201 108.447258 
L 650.443551 96.227602 
L 650.470335 95.799056 
L 650.657783 78.385717 
L 650.671157 80.287834 
L 650.724724 73.085832 
L 650.738098 76.330305 
L 650.872015 63.71732 
L 650.885389 66.235194 
L 650.96574 61.228006 
L 650.979114 61.694528 
L 651.03268 78.427043 
L 651.086247 61.766196 
L 651.246912 37.993234 
L 651.273696 39.508602 
L 651.300479 37.34171 
L 651.354011 40.300414 
L 651.36742 39.052191 
L 651.528085 49.699711 
L 651.541459 45.208649 
L 651.621809 50.343362 
L 651.635219 48.375159 
L 651.742317 52.538648 
L 651.755691 50.421634 
L 651.822667 55.19711 
L 651.836041 53.205383 
L 652.157407 103.126405 
L 652.318072 136.282767 
L 652.331446 134.477847 
L 652.478737 146.154523 
L 652.50552 146.556833 
L 652.773319 134.284188 
L 652.880417 139.534879 
L 652.893791 135.441208 
L 652.974142 140.918223 
L 652.987551 138.537291 
L 653.081275 143.734095 
L 653.108023 142.899165 
L 653.148216 144.081575 
L 653.16159 140.411908 
L 653.174999 144.734379 
L 653.268724 142.440122 
L 653.282098 142.847296 
L 653.322255 141.222233 
L 653.335664 142.397264 
L 653.442763 136.928522 
L 653.375822 142.792787 
L 653.482955 137.96023 
L 653.844443 179.09174 
L 654.058675 211.117217 
L 654.072084 210.387573 
L 654.098868 214.711655 
L 654.286316 230.297251 
L 654.29969 228.140731 
L 654.353257 230.956891 
L 654.406824 229.493524 
L 655.143244 163.033266 
L 655.531515 119.113334 
L 655.585082 114.12786 
L 655.85288 91.213734 
L 655.933195 88.221749 
L 656.093896 83.98882 
L 656.10727 84.096841 
L 656.120679 83.683451 
L 656.134053 83.830883 
L 656.281344 79.52992 
L 656.401852 74.898357 
L 656.709808 60.635878 
L 657.298937 42.487751 
L 657.419445 43.311623 
L 657.432819 43.149616 
L 657.459602 44.085866 
L 657.473011 43.250742 
L 657.606893 46.276454 
L 657.780967 50.16258 
L 658.155864 70.685647 
L 658.329904 90.498453 
L 658.999383 189.704845 
L 659.334122 214.615596 
L 659.347532 214.555161 
L 659.508197 218.679368 
L 659.521571 218.438412 
L 659.561728 219.114174 
L 659.588512 219.084479 
L 659.735803 219.719512 
L 659.789369 219.755307 
L 660.097326 214.967126 
L 660.67308 184.784734 
L 661.302367 155.151543 
L 662.775207 55.810945 
L 663.029596 48.037731 
L 663.243828 45.702609 
L 663.257237 45.675547 
L 663.297395 45.791496 
L 663.350962 46.237879 
L 663.672292 51.815915 
L 664.181106 88.866528 
L 664.60957 143.436854 
L 665.225482 208.059458 
L 665.600379 225.020478 
L 665.66732 226.263703 
L 665.734261 225.939293 
L 665.854768 223.714286 
L 666.095783 214.428019 
L 666.48409 189.919255 
L 668.318417 56.207948 
L 668.706724 48.262832 
L 668.787074 47.95988 
L 668.840605 48.111891 
L 668.920956 48.92703 
L 669.108404 51.174234 
L 669.282479 55.514935 
L 669.83145 79.606748 
L 670.674968 129.089884 
L 671.719344 207.866863 
L 672.121025 223.594723 
L 672.254942 224.976624 
L 672.28169 224.909119 
L 672.36204 224.094032 
L 672.522705 220.000706 
L 672.844071 205.107211 
L 673.339475 169.419805 
L 674.731965 58.802449 
L 675.066704 49.107308 
L 675.254153 47.858874 
L 675.321094 48.115531 
L 675.481794 49.973874 
L 675.7094 56.152077 
L 676.057514 73.180845 
L 676.633269 114.291525 
L 677.58392 201.035363 
L 677.58392 201.035363 
" clip-path="url(#pb2719c50be)" style="fill: none; stroke: #4c72b0; stroke-width: 1.5; stroke-linecap: round"/>
            </g>
            <g id="patch_3">
                <path d="M 59.00625 240.66
L 59.00625 27.6 
" style="fill: none; stroke: #cccccc; stroke-width: 1.25; stroke-linejoin: miter; stroke-linecap: square"/>
            </g>
            <g id="patch_4">
                <path d="M 707.04 240.66
L 707.04 27.6 
" style="fill: none; stroke: #cccccc; stroke-width: 1.25; stroke-linejoin: miter; stroke-linecap: square"/>
            </g>
            <g id="patch_5">
                <path d="M 59.00625 240.66
L 707.04 240.66 
" style="fill: none; stroke: #cccccc; stroke-width: 1.25; stroke-linejoin: miter; stroke-linecap: square"/>
            </g>
            <g id="patch_6">
                <path d="M 59.00625 27.6
L 707.04 27.6 
" style="fill: none; stroke: #cccccc; stroke-width: 1.25; stroke-linejoin: miter; stroke-linecap: square"/>
            </g>
            <g id="text_17">
                <!-- drums Waveform -->
                <g style="fill: #262626" transform="translate(337.576875 21.6) scale(0.12 -0.12)">
                    <defs>
                        <path id="ArialMT-72" d="M 416 0
L 416 3319 
L 922 3319 
L 922 2816 
Q 1116 3169 1280 3281 
Q 1444 3394 1641 3394 
Q 1925 3394 2219 3213 
L 2025 2691 
Q 1819 2813 1613 2813 
Q 1428 2813 1281 2702 
Q 1134 2591 1072 2394 
Q 978 2094 978 1738 
L 978 0 
L 416 0 
z
" transform="scale(0.015625)"/>
                        <path id="ArialMT-57" d="M 1294 0
L 78 4581 
L 700 4581 
L 1397 1578 
Q 1509 1106 1591 641 
Q 1766 1375 1797 1488 
L 2669 4581 
L 3400 4581 
L 4056 2263 
Q 4303 1400 4413 641 
Q 4500 1075 4641 1638 
L 5359 4581 
L 5969 4581 
L 4713 0 
L 4128 0 
L 3163 3491 
Q 3041 3928 3019 4028 
Q 2947 3713 2884 3491 
L 1913 0 
L 1294 0 
z
" transform="scale(0.015625)"/>
                        <path id="ArialMT-61" d="M 2588 409
Q 2275 144 1986 34 
Q 1697 -75 1366 -75 
Q 819 -75 525 192 
Q 231 459 231 875 
Q 231 1119 342 1320 
Q 453 1522 633 1644 
Q 813 1766 1038 1828 
Q 1203 1872 1538 1913 
Q 2219 1994 2541 2106 
Q 2544 2222 2544 2253 
Q 2544 2597 2384 2738 
Q 2169 2928 1744 2928 
Q 1347 2928 1158 2789 
Q 969 2650 878 2297 
L 328 2372 
Q 403 2725 575 2942 
Q 747 3159 1072 3276 
Q 1397 3394 1825 3394 
Q 2250 3394 2515 3294 
Q 2781 3194 2906 3042 
Q 3031 2891 3081 2659 
Q 3109 2516 3109 2141 
L 3109 1391 
Q 3109 606 3145 398 
Q 3181 191 3288 0 
L 2700 0 
Q 2613 175 2588 409 
z
M 2541 1666 
Q 2234 1541 1622 1453 
Q 1275 1403 1131 1340 
Q 988 1278 909 1158 
Q 831 1038 831 891 
Q 831 666 1001 516 
Q 1172 366 1500 366 
Q 1825 366 2078 508 
Q 2331 650 2450 897 
Q 2541 1088 2541 1459 
L 2541 1666 
z
" transform="scale(0.015625)"/>
                        <path id="ArialMT-76" d="M 1344 0
L 81 3319 
L 675 3319 
L 1388 1331 
Q 1503 1009 1600 663 
Q 1675 925 1809 1294 
L 2547 3319 
L 3125 3319 
L 1869 0 
L 1344 0 
z
" transform="scale(0.015625)"/>
                        <path id="ArialMT-66" d="M 556 0
L 556 2881 
L 59 2881 
L 59 3319 
L 556 3319 
L 556 3672 
Q 556 4006 616 4169 
Q 697 4388 901 4523 
Q 1106 4659 1475 4659 
Q 1713 4659 2000 4603 
L 1916 4113 
Q 1741 4144 1584 4144 
Q 1328 4144 1222 4034 
Q 1116 3925 1116 3625 
L 1116 3319 
L 1763 3319 
L 1763 2881 
L 1116 2881 
L 1116 0 
L 556 0 
z
" transform="scale(0.015625)"/>
                        <path id="ArialMT-6f" d="M 213 1659
Q 213 2581 725 3025 
Q 1153 3394 1769 3394 
Q 2453 3394 2887 2945 
Q 3322 2497 3322 1706 
Q 3322 1066 3130 698 
Q 2938 331 2570 128 
Q 2203 -75 1769 -75 
Q 1072 -75 642 372 
Q 213 819 213 1659 
z
M 791 1659 
Q 791 1022 1069 705 
Q 1347 388 1769 388 
Q 2188 388 2466 706 
Q 2744 1025 2744 1678 
Q 2744 2294 2464 2611 
Q 2184 2928 1769 2928 
Q 1347 2928 1069 2612 
Q 791 2297 791 1659 
z
" transform="scale(0.015625)"/>
                    </defs>
                    <use xlink:href="#ArialMT-64"/>
                    <use xlink:href="#ArialMT-72" x="55.615234"/>
                    <use xlink:href="#ArialMT-75" x="88.916016"/>
                    <use xlink:href="#ArialMT-6d" x="144.53125"/>
                    <use xlink:href="#ArialMT-73" x="227.832031"/>
                    <use xlink:href="#ArialMT-20" x="277.832031"/>
                    <use xlink:href="#ArialMT-57" x="305.615234"/>
                    <use xlink:href="#ArialMT-61" x="396.25"/>
                    <use xlink:href="#ArialMT-76" x="451.865234"/>
                    <use xlink:href="#ArialMT-65" x="501.865234"/>
                    <use xlink:href="#ArialMT-66" x="557.480469"/>
                    <use xlink:href="#ArialMT-6f" x="585.263672"/>
                    <use xlink:href="#ArialMT-72" x="640.878906"/>
                    <use xlink:href="#ArialMT-6d" x="674.179688"/>
                </g>
            </g>
        </g>
    </g>
    <defs>
        <clipPath id="pb2719c50be">
            <rect x="59.00625" y="27.6" width="648.03375" height="213.06"/>
        </clipPath>
    </defs>
</svg>
