<?xml version="1.0" encoding="utf-8" standalone="no"?>
<!DOCTYPE svg PUBLIC "-//W3C//DTD SVG 1.1//EN"
  "http://www.w3.org/Graphics/SVG/1.1/DTD/svg11.dtd">
<svg xmlns:xlink="http://www.w3.org/1999/xlink" width="720pt" height="288pt" viewBox="0 0 720 288" xmlns="http://www.w3.org/2000/svg" version="1.1">
 <metadata>
  <rdf:RDF xmlns:dc="http://purl.org/dc/elements/1.1/" xmlns:cc="http://creativecommons.org/ns#" xmlns:rdf="http://www.w3.org/1999/02/22-rdf-syntax-ns#">
   <cc:Work>
    <dc:type rdf:resource="http://purl.org/dc/dcmitype/StillImage"/>
    <dc:date>2024-02-14T14:44:17.326631</dc:date>
    <dc:format>image/svg+xml</dc:format>
    <dc:creator>
     <cc:Agent>
      <dc:title>Matplotlib v3.8.2, https://matplotlib.org/</dc:title>
     </cc:Agent>
    </dc:creator>
   </cc:Work>
  </rdf:RDF>
 </metadata>
 <defs>
  <style type="text/css">*{stroke-linejoin: round; stroke-linecap: butt}</style>
 </defs>
 <g id="figure_1">
  <g id="patch_1">
   <path d="M 0 288 
L 720 288 
L 720 0 
L 0 0 
z
" style="fill: #ffffff"/>
  </g>
  <g id="axes_1">
   <g id="patch_2">
    <path d="M 90 256.32 
L 648 256.32 
L 648 34.56 
L 90 34.56 
z
" style="fill: #ffffff"/>
   </g>
   <g id="matplotlib.axis_1">
    <g id="xtick_1">
     <g id="line2d_1">
      <path d="M 115.363636 256.32 
L 115.363636 34.56 
" clip-path="url(#p5b43390d26)" style="fill: none; stroke: #cccccc; stroke-linecap: round"/>
     </g>
     <g id="text_1">
      <!-- 0.00 -->
      <g style="fill: #262626" transform="translate(104.660121 273.693594) scale(0.11 -0.11)">
       <defs>
        <path id="ArialMT-30" d="M 266 2259 
Q 266 3072 433 3567 
Q 600 4063 929 4331 
Q 1259 4600 1759 4600 
Q 2128 4600 2406 4451 
Q 2684 4303 2865 4023 
Q 3047 3744 3150 3342 
Q 3253 2941 3253 2259 
Q 3253 1453 3087 958 
Q 2922 463 2592 192 
Q 2263 -78 1759 -78 
Q 1097 -78 719 397 
Q 266 969 266 2259 
z
M 844 2259 
Q 844 1131 1108 757 
Q 1372 384 1759 384 
Q 2147 384 2411 759 
Q 2675 1134 2675 2259 
Q 2675 3391 2411 3762 
Q 2147 4134 1753 4134 
Q 1366 4134 1134 3806 
Q 844 3388 844 2259 
z
" transform="scale(0.015625)"/>
        <path id="ArialMT-2e" d="M 581 0 
L 581 641 
L 1222 641 
L 1222 0 
L 581 0 
z
" transform="scale(0.015625)"/>
       </defs>
       <use xlink:href="#ArialMT-30"/>
       <use xlink:href="#ArialMT-2e" x="55.615234"/>
       <use xlink:href="#ArialMT-30" x="83.398438"/>
       <use xlink:href="#ArialMT-30" x="139.013672"/>
      </g>
     </g>
    </g>
    <g id="xtick_2">
     <g id="line2d_2">
      <path d="M 178.918283 256.32 
L 178.918283 34.56 
" clip-path="url(#p5b43390d26)" style="fill: none; stroke: #cccccc; stroke-linecap: round"/>
     </g>
     <g id="text_2">
      <!-- 0.25 -->
      <g style="fill: #262626" transform="translate(168.214768 273.693594) scale(0.11 -0.11)">
       <defs>
        <path id="ArialMT-32" d="M 3222 541 
L 3222 0 
L 194 0 
Q 188 203 259 391 
Q 375 700 629 1000 
Q 884 1300 1366 1694 
Q 2113 2306 2375 2664 
Q 2638 3022 2638 3341 
Q 2638 3675 2398 3904 
Q 2159 4134 1775 4134 
Q 1369 4134 1125 3890 
Q 881 3647 878 3216 
L 300 3275 
Q 359 3922 746 4261 
Q 1134 4600 1788 4600 
Q 2447 4600 2831 4234 
Q 3216 3869 3216 3328 
Q 3216 3053 3103 2787 
Q 2991 2522 2730 2228 
Q 2469 1934 1863 1422 
Q 1356 997 1212 845 
Q 1069 694 975 541 
L 3222 541 
z
" transform="scale(0.015625)"/>
        <path id="ArialMT-35" d="M 266 1200 
L 856 1250 
Q 922 819 1161 601 
Q 1400 384 1738 384 
Q 2144 384 2425 690 
Q 2706 997 2706 1503 
Q 2706 1984 2436 2262 
Q 2166 2541 1728 2541 
Q 1456 2541 1237 2417 
Q 1019 2294 894 2097 
L 366 2166 
L 809 4519 
L 3088 4519 
L 3088 3981 
L 1259 3981 
L 1013 2750 
Q 1425 3038 1878 3038 
Q 2478 3038 2890 2622 
Q 3303 2206 3303 1553 
Q 3303 931 2941 478 
Q 2500 -78 1738 -78 
Q 1113 -78 717 272 
Q 322 622 266 1200 
z
" transform="scale(0.015625)"/>
       </defs>
       <use xlink:href="#ArialMT-30"/>
       <use xlink:href="#ArialMT-2e" x="55.615234"/>
       <use xlink:href="#ArialMT-32" x="83.398438"/>
       <use xlink:href="#ArialMT-35" x="139.013672"/>
      </g>
     </g>
    </g>
    <g id="xtick_3">
     <g id="line2d_3">
      <path d="M 242.47293 256.32 
L 242.47293 34.56 
" clip-path="url(#p5b43390d26)" style="fill: none; stroke: #cccccc; stroke-linecap: round"/>
     </g>
     <g id="text_3">
      <!-- 0.50 -->
      <g style="fill: #262626" transform="translate(231.769414 273.693594) scale(0.11 -0.11)">
       <use xlink:href="#ArialMT-30"/>
       <use xlink:href="#ArialMT-2e" x="55.615234"/>
       <use xlink:href="#ArialMT-35" x="83.398438"/>
       <use xlink:href="#ArialMT-30" x="139.013672"/>
      </g>
     </g>
    </g>
    <g id="xtick_4">
     <g id="line2d_4">
      <path d="M 306.027577 256.32 
L 306.027577 34.56 
" clip-path="url(#p5b43390d26)" style="fill: none; stroke: #cccccc; stroke-linecap: round"/>
     </g>
     <g id="text_4">
      <!-- 0.75 -->
      <g style="fill: #262626" transform="translate(295.324061 273.693594) scale(0.11 -0.11)">
       <defs>
        <path id="ArialMT-37" d="M 303 3981 
L 303 4522 
L 3269 4522 
L 3269 4084 
Q 2831 3619 2401 2847 
Q 1972 2075 1738 1259 
Q 1569 684 1522 0 
L 944 0 
Q 953 541 1156 1306 
Q 1359 2072 1739 2783 
Q 2119 3494 2547 3981 
L 303 3981 
z
" transform="scale(0.015625)"/>
       </defs>
       <use xlink:href="#ArialMT-30"/>
       <use xlink:href="#ArialMT-2e" x="55.615234"/>
       <use xlink:href="#ArialMT-37" x="83.398438"/>
       <use xlink:href="#ArialMT-35" x="139.013672"/>
      </g>
     </g>
    </g>
    <g id="xtick_5">
     <g id="line2d_5">
      <path d="M 369.582224 256.32 
L 369.582224 34.56 
" clip-path="url(#p5b43390d26)" style="fill: none; stroke: #cccccc; stroke-linecap: round"/>
     </g>
     <g id="text_5">
      <!-- 1.00 -->
      <g style="fill: #262626" transform="translate(358.878708 273.693594) scale(0.11 -0.11)">
       <defs>
        <path id="ArialMT-31" d="M 2384 0 
L 1822 0 
L 1822 3584 
Q 1619 3391 1289 3197 
Q 959 3003 697 2906 
L 697 3450 
Q 1169 3672 1522 3987 
Q 1875 4303 2022 4600 
L 2384 4600 
L 2384 0 
z
" transform="scale(0.015625)"/>
       </defs>
       <use xlink:href="#ArialMT-31"/>
       <use xlink:href="#ArialMT-2e" x="55.615234"/>
       <use xlink:href="#ArialMT-30" x="83.398438"/>
       <use xlink:href="#ArialMT-30" x="139.013672"/>
      </g>
     </g>
    </g>
    <g id="xtick_6">
     <g id="line2d_6">
      <path d="M 433.136871 256.32 
L 433.136871 34.56 
" clip-path="url(#p5b43390d26)" style="fill: none; stroke: #cccccc; stroke-linecap: round"/>
     </g>
     <g id="text_6">
      <!-- 1.25 -->
      <g style="fill: #262626" transform="translate(422.433355 273.693594) scale(0.11 -0.11)">
       <use xlink:href="#ArialMT-31"/>
       <use xlink:href="#ArialMT-2e" x="55.615234"/>
       <use xlink:href="#ArialMT-32" x="83.398438"/>
       <use xlink:href="#ArialMT-35" x="139.013672"/>
      </g>
     </g>
    </g>
    <g id="xtick_7">
     <g id="line2d_7">
      <path d="M 496.691518 256.32 
L 496.691518 34.56 
" clip-path="url(#p5b43390d26)" style="fill: none; stroke: #cccccc; stroke-linecap: round"/>
     </g>
     <g id="text_7">
      <!-- 1.50 -->
      <g style="fill: #262626" transform="translate(485.988002 273.693594) scale(0.11 -0.11)">
       <use xlink:href="#ArialMT-31"/>
       <use xlink:href="#ArialMT-2e" x="55.615234"/>
       <use xlink:href="#ArialMT-35" x="83.398438"/>
       <use xlink:href="#ArialMT-30" x="139.013672"/>
      </g>
     </g>
    </g>
    <g id="xtick_8">
     <g id="line2d_8">
      <path d="M 560.246164 256.32 
L 560.246164 34.56 
" clip-path="url(#p5b43390d26)" style="fill: none; stroke: #cccccc; stroke-linecap: round"/>
     </g>
     <g id="text_8">
      <!-- 1.75 -->
      <g style="fill: #262626" transform="translate(549.542649 273.693594) scale(0.11 -0.11)">
       <use xlink:href="#ArialMT-31"/>
       <use xlink:href="#ArialMT-2e" x="55.615234"/>
       <use xlink:href="#ArialMT-37" x="83.398438"/>
       <use xlink:href="#ArialMT-35" x="139.013672"/>
      </g>
     </g>
    </g>
    <g id="xtick_9">
     <g id="line2d_9">
      <path d="M 623.800811 256.32 
L 623.800811 34.56 
" clip-path="url(#p5b43390d26)" style="fill: none; stroke: #cccccc; stroke-linecap: round"/>
     </g>
     <g id="text_9">
      <!-- 2.00 -->
      <g style="fill: #262626" transform="translate(613.097296 273.693594) scale(0.11 -0.11)">
       <use xlink:href="#ArialMT-32"/>
       <use xlink:href="#ArialMT-2e" x="55.615234"/>
       <use xlink:href="#ArialMT-30" x="83.398438"/>
       <use xlink:href="#ArialMT-30" x="139.013672"/>
      </g>
     </g>
    </g>
    <g id="text_10">
     <!-- Time (s) -->
     <g style="fill: #262626" transform="translate(347.230313 288.615469) scale(0.12 -0.12)">
      <defs>
       <path id="ArialMT-54" d="M 1659 0 
L 1659 4041 
L 150 4041 
L 150 4581 
L 3781 4581 
L 3781 4041 
L 2266 4041 
L 2266 0 
L 1659 0 
z
" transform="scale(0.015625)"/>
       <path id="ArialMT-69" d="M 425 3934 
L 425 4581 
L 988 4581 
L 988 3934 
L 425 3934 
z
M 425 0 
L 425 3319 
L 988 3319 
L 988 0 
L 425 0 
z
" transform="scale(0.015625)"/>
       <path id="ArialMT-6d" d="M 422 0 
L 422 3319 
L 925 3319 
L 925 2853 
Q 1081 3097 1340 3245 
Q 1600 3394 1931 3394 
Q 2300 3394 2536 3241 
Q 2772 3088 2869 2813 
Q 3263 3394 3894 3394 
Q 4388 3394 4653 3120 
Q 4919 2847 4919 2278 
L 4919 0 
L 4359 0 
L 4359 2091 
Q 4359 2428 4304 2576 
Q 4250 2725 4106 2815 
Q 3963 2906 3769 2906 
Q 3419 2906 3187 2673 
Q 2956 2441 2956 1928 
L 2956 0 
L 2394 0 
L 2394 2156 
Q 2394 2531 2256 2718 
Q 2119 2906 1806 2906 
Q 1569 2906 1367 2781 
Q 1166 2656 1075 2415 
Q 984 2175 984 1722 
L 984 0 
L 422 0 
z
" transform="scale(0.015625)"/>
       <path id="ArialMT-65" d="M 2694 1069 
L 3275 997 
Q 3138 488 2766 206 
Q 2394 -75 1816 -75 
Q 1088 -75 661 373 
Q 234 822 234 1631 
Q 234 2469 665 2931 
Q 1097 3394 1784 3394 
Q 2450 3394 2872 2941 
Q 3294 2488 3294 1666 
Q 3294 1616 3291 1516 
L 816 1516 
Q 847 969 1125 678 
Q 1403 388 1819 388 
Q 2128 388 2347 550 
Q 2566 713 2694 1069 
z
M 847 1978 
L 2700 1978 
Q 2663 2397 2488 2606 
Q 2219 2931 1791 2931 
Q 1403 2931 1139 2672 
Q 875 2413 847 1978 
z
" transform="scale(0.015625)"/>
       <path id="ArialMT-20" transform="scale(0.015625)"/>
       <path id="ArialMT-28" d="M 1497 -1347 
Q 1031 -759 709 28 
Q 388 816 388 1659 
Q 388 2403 628 3084 
Q 909 3875 1497 4659 
L 1900 4659 
Q 1522 4009 1400 3731 
Q 1209 3300 1100 2831 
Q 966 2247 966 1656 
Q 966 153 1900 -1347 
L 1497 -1347 
z
" transform="scale(0.015625)"/>
       <path id="ArialMT-73" d="M 197 991 
L 753 1078 
Q 800 744 1014 566 
Q 1228 388 1613 388 
Q 2000 388 2187 545 
Q 2375 703 2375 916 
Q 2375 1106 2209 1216 
Q 2094 1291 1634 1406 
Q 1016 1563 777 1677 
Q 538 1791 414 1992 
Q 291 2194 291 2438 
Q 291 2659 392 2848 
Q 494 3038 669 3163 
Q 800 3259 1026 3326 
Q 1253 3394 1513 3394 
Q 1903 3394 2198 3281 
Q 2494 3169 2634 2976 
Q 2775 2784 2828 2463 
L 2278 2388 
Q 2241 2644 2061 2787 
Q 1881 2931 1553 2931 
Q 1166 2931 1000 2803 
Q 834 2675 834 2503 
Q 834 2394 903 2306 
Q 972 2216 1119 2156 
Q 1203 2125 1616 2013 
Q 2213 1853 2448 1751 
Q 2684 1650 2818 1456 
Q 2953 1263 2953 975 
Q 2953 694 2789 445 
Q 2625 197 2315 61 
Q 2006 -75 1616 -75 
Q 969 -75 630 194 
Q 291 463 197 991 
z
" transform="scale(0.015625)"/>
       <path id="ArialMT-29" d="M 791 -1347 
L 388 -1347 
Q 1322 153 1322 1656 
Q 1322 2244 1188 2822 
Q 1081 3291 891 3722 
Q 769 4003 388 4659 
L 791 4659 
Q 1378 3875 1659 3084 
Q 1900 2403 1900 1659 
Q 1900 816 1576 28 
Q 1253 -759 791 -1347 
z
" transform="scale(0.015625)"/>
      </defs>
      <use xlink:href="#ArialMT-54"/>
      <use xlink:href="#ArialMT-69" x="57.333984"/>
      <use xlink:href="#ArialMT-6d" x="79.550781"/>
      <use xlink:href="#ArialMT-65" x="162.851562"/>
      <use xlink:href="#ArialMT-20" x="218.466797"/>
      <use xlink:href="#ArialMT-28" x="246.25"/>
      <use xlink:href="#ArialMT-73" x="279.550781"/>
      <use xlink:href="#ArialMT-29" x="329.550781"/>
     </g>
    </g>
   </g>
   <g id="matplotlib.axis_2">
    <g id="ytick_1">
     <g id="line2d_10">
      <path d="M 90 229.188129 
L 648 229.188129 
" clip-path="url(#p5b43390d26)" style="fill: none; stroke: #cccccc; stroke-linecap: round"/>
     </g>
     <g id="text_11">
      <!-- −0.2 -->
      <g style="fill: #262626" transform="translate(58.785313 233.124926) scale(0.11 -0.11)">
       <defs>
        <path id="ArialMT-2212" d="M 3381 1997 
L 356 1997 
L 356 2522 
L 3381 2522 
L 3381 1997 
z
" transform="scale(0.015625)"/>
       </defs>
       <use xlink:href="#ArialMT-2212"/>
       <use xlink:href="#ArialMT-30" x="58.398438"/>
       <use xlink:href="#ArialMT-2e" x="114.013672"/>
       <use xlink:href="#ArialMT-32" x="141.796875"/>
      </g>
     </g>
    </g>
    <g id="ytick_2">
     <g id="line2d_11">
      <path d="M 90 184.659338 
L 648 184.659338 
" clip-path="url(#p5b43390d26)" style="fill: none; stroke: #cccccc; stroke-linecap: round"/>
     </g>
     <g id="text_12">
      <!-- −0.1 -->
      <g style="fill: #262626" transform="translate(58.785313 188.596135) scale(0.11 -0.11)">
       <use xlink:href="#ArialMT-2212"/>
       <use xlink:href="#ArialMT-30" x="58.398438"/>
       <use xlink:href="#ArialMT-2e" x="114.013672"/>
       <use xlink:href="#ArialMT-31" x="141.796875"/>
      </g>
     </g>
    </g>
    <g id="ytick_3">
     <g id="line2d_12">
      <path d="M 90 140.130547 
L 648 140.130547 
" clip-path="url(#p5b43390d26)" style="fill: none; stroke: #cccccc; stroke-linecap: round"/>
     </g>
     <g id="text_13">
      <!-- 0.0 -->
      <g style="fill: #262626" transform="translate(65.21 144.067344) scale(0.11 -0.11)">
       <use xlink:href="#ArialMT-30"/>
       <use xlink:href="#ArialMT-2e" x="55.615234"/>
       <use xlink:href="#ArialMT-30" x="83.398438"/>
      </g>
     </g>
    </g>
    <g id="ytick_4">
     <g id="line2d_13">
      <path d="M 90 95.601756 
L 648 95.601756 
" clip-path="url(#p5b43390d26)" style="fill: none; stroke: #cccccc; stroke-linecap: round"/>
     </g>
     <g id="text_14">
      <!-- 0.1 -->
      <g style="fill: #262626" transform="translate(65.21 99.538553) scale(0.11 -0.11)">
       <use xlink:href="#ArialMT-30"/>
       <use xlink:href="#ArialMT-2e" x="55.615234"/>
       <use xlink:href="#ArialMT-31" x="83.398438"/>
      </g>
     </g>
    </g>
    <g id="ytick_5">
     <g id="line2d_14">
      <path d="M 90 51.072965 
L 648 51.072965 
" clip-path="url(#p5b43390d26)" style="fill: none; stroke: #cccccc; stroke-linecap: round"/>
     </g>
     <g id="text_15">
      <!-- 0.2 -->
      <g style="fill: #262626" transform="translate(65.21 55.009761) scale(0.11 -0.11)">
       <use xlink:href="#ArialMT-30"/>
       <use xlink:href="#ArialMT-2e" x="55.615234"/>
       <use xlink:href="#ArialMT-32" x="83.398438"/>
      </g>
     </g>
    </g>
    <g id="text_16">
     <!-- Amplitude -->
     <g style="fill: #262626" transform="translate(52.400312 172.119375) rotate(-90) scale(0.12 -0.12)">
      <defs>
       <path id="ArialMT-41" d="M -9 0 
L 1750 4581 
L 2403 4581 
L 4278 0 
L 3588 0 
L 3053 1388 
L 1138 1388 
L 634 0 
L -9 0 
z
M 1313 1881 
L 2866 1881 
L 2388 3150 
Q 2169 3728 2063 4100 
Q 1975 3659 1816 3225 
L 1313 1881 
z
" transform="scale(0.015625)"/>
       <path id="ArialMT-70" d="M 422 -1272 
L 422 3319 
L 934 3319 
L 934 2888 
Q 1116 3141 1344 3267 
Q 1572 3394 1897 3394 
Q 2322 3394 2647 3175 
Q 2972 2956 3137 2557 
Q 3303 2159 3303 1684 
Q 3303 1175 3120 767 
Q 2938 359 2589 142 
Q 2241 -75 1856 -75 
Q 1575 -75 1351 44 
Q 1128 163 984 344 
L 984 -1272 
L 422 -1272 
z
M 931 1641 
Q 931 1000 1190 694 
Q 1450 388 1819 388 
Q 2194 388 2461 705 
Q 2728 1022 2728 1688 
Q 2728 2322 2467 2637 
Q 2206 2953 1844 2953 
Q 1484 2953 1207 2617 
Q 931 2281 931 1641 
z
" transform="scale(0.015625)"/>
       <path id="ArialMT-6c" d="M 409 0 
L 409 4581 
L 972 4581 
L 972 0 
L 409 0 
z
" transform="scale(0.015625)"/>
       <path id="ArialMT-74" d="M 1650 503 
L 1731 6 
Q 1494 -44 1306 -44 
Q 1000 -44 831 53 
Q 663 150 594 308 
Q 525 466 525 972 
L 525 2881 
L 113 2881 
L 113 3319 
L 525 3319 
L 525 4141 
L 1084 4478 
L 1084 3319 
L 1650 3319 
L 1650 2881 
L 1084 2881 
L 1084 941 
Q 1084 700 1114 631 
Q 1144 563 1211 522 
Q 1278 481 1403 481 
Q 1497 481 1650 503 
z
" transform="scale(0.015625)"/>
       <path id="ArialMT-75" d="M 2597 0 
L 2597 488 
Q 2209 -75 1544 -75 
Q 1250 -75 995 37 
Q 741 150 617 320 
Q 494 491 444 738 
Q 409 903 409 1263 
L 409 3319 
L 972 3319 
L 972 1478 
Q 972 1038 1006 884 
Q 1059 663 1231 536 
Q 1403 409 1656 409 
Q 1909 409 2131 539 
Q 2353 669 2445 892 
Q 2538 1116 2538 1541 
L 2538 3319 
L 3100 3319 
L 3100 0 
L 2597 0 
z
" transform="scale(0.015625)"/>
       <path id="ArialMT-64" d="M 2575 0 
L 2575 419 
Q 2259 -75 1647 -75 
Q 1250 -75 917 144 
Q 584 363 401 755 
Q 219 1147 219 1656 
Q 219 2153 384 2558 
Q 550 2963 881 3178 
Q 1213 3394 1622 3394 
Q 1922 3394 2156 3267 
Q 2391 3141 2538 2938 
L 2538 4581 
L 3097 4581 
L 3097 0 
L 2575 0 
z
M 797 1656 
Q 797 1019 1065 703 
Q 1334 388 1700 388 
Q 2069 388 2326 689 
Q 2584 991 2584 1609 
Q 2584 2291 2321 2609 
Q 2059 2928 1675 2928 
Q 1300 2928 1048 2622 
Q 797 2316 797 1656 
z
" transform="scale(0.015625)"/>
      </defs>
      <use xlink:href="#ArialMT-41"/>
      <use xlink:href="#ArialMT-6d" x="66.699219"/>
      <use xlink:href="#ArialMT-70" x="150"/>
      <use xlink:href="#ArialMT-6c" x="205.615234"/>
      <use xlink:href="#ArialMT-69" x="227.832031"/>
      <use xlink:href="#ArialMT-74" x="250.048828"/>
      <use xlink:href="#ArialMT-75" x="277.832031"/>
      <use xlink:href="#ArialMT-64" x="333.447266"/>
      <use xlink:href="#ArialMT-65" x="389.0625"/>
     </g>
    </g>
   </g>
   <g id="line2d_15">
    <path d="M 115.363636 225.841978 
L 115.721041 198.399848 
L 116.216796 143.458473 
L 116.654905 98.510557 
L 117.16219 63.553405 
L 117.43889 56.104662 
L 117.531124 55.654152 
L 117.57724 55.795802 
L 117.681003 56.885525 
L 117.819353 60.081096 
L 118.049937 70.254906 
L 118.476517 100.975594 
L 118.972272 152.721125 
L 119.675553 224.886215 
L 119.99837 238.915424 
L 120.13672 240.412037 
L 120.171308 240.333628 
L 120.27507 239.016586 
L 120.471066 232.918692 
L 120.782355 214.738867 
L 121.393402 161.062326 
L 122.477145 64.345554 
L 122.765375 55.488893 
L 122.846079 54.985379 
L 122.903725 55.118901 
L 123.019017 56.602151 
L 123.180425 61.173752 
L 123.457126 75.079736 
L 124.068173 120.486727 
L 125.497792 219.44121 
L 125.601555 220.134281 
L 125.636143 220.051704 
L 125.797551 217.756711 
L 126.074252 208.226366 
L 126.466244 183.422391 
L 127.722926 105.321693 
L 128.080331 96.539666 
L 128.241739 95.508001 
L 128.264797 95.540558 
L 128.345501 95.861282 
L 128.483852 97.387714 
L 128.714436 102.229405 
L 129.117958 115.46721 
L 130.282405 157.482181 
L 130.628281 163.179968 
L 130.835806 164.322202 
L 130.939569 164.195675 
L 131.124036 162.815072 
L 131.412266 158.528783 
L 132.046371 145.50528 
L 132.957177 128.219935 
L 133.314581 125.232232 
L 133.510578 124.941646 
L 133.533637 124.986973 
L 133.706574 125.549334 
L 134.144683 129.161106 
L 135.89712 146.765107 
L 136.116174 147.292323 
L 136.473578 146.729609 
L 136.761809 145.350853 
L 138.364366 136.273333 
L 138.664125 135.835124 
L 138.986941 135.952229 
L 139.217526 136.315102 
L 139.86316 138.044349 
L 141.154429 140.960703 
L 141.408071 141.095311 
L 141.546422 141.0959 
L 141.638656 141.082685 
L 141.650185 141.063682 
L 142.249702 140.575156 
L 143.587088 139.155366 
L 143.794612 139.104004 
L 143.921434 139.091311 
L 144.440248 139.189931 
L 146.769143 140.088129 
L 146.953611 140.064762 
L 147.103489 140.061019 
L 147.287955 140.026316 
L 147.414779 140.005229 
L 147.564657 139.957444 
L 147.679949 139.935704 
L 148.060413 139.835623 
L 148.175705 139.811366 
L 149.294036 139.671393 
L 149.501562 139.679642 
L 149.65144 139.690476 
L 149.824377 139.685103 
L 150.262488 139.749221 
L 150.412366 139.751309 
L 150.619893 139.80476 
L 150.758244 139.80481 
L 150.942708 139.844779 
L 151.081059 139.845712 
L 151.253999 139.872243 
L 151.380819 139.873137 
L 151.542228 139.899364 
L 151.680579 139.900749 
L 151.841985 139.926893 
L 151.980336 139.914964 
L 152.153272 139.915401 
L 152.33774 139.923672 
L 152.545266 139.916569 
L 152.775851 139.927181 
L 152.902671 139.904194 
L 153.202431 139.893304 
L 154.228528 139.862325 
L 154.459113 139.869217 
L 154.666635 139.861012 
L 154.851103 139.870426 
L 155.012513 139.868001 
L 155.231566 139.888536 
L 155.35839 139.87323 
L 155.531327 139.899039 
L 155.669678 139.886703 
L 155.681205 139.898288 
L 156.361428 139.926009 
L 156.511306 139.92758 
L 156.672716 139.939046 
L 156.822594 139.928061 
L 156.995535 139.952035 
L 157.15694 139.942407 
L 157.341408 139.949616 
L 157.595051 139.940175 
L 158.747968 139.854532 
L 158.771026 138.344377 
L 158.782557 138.382988 
L 159.059259 119.478811 
L 159.405133 99.415182 
L 159.416664 102.091371 
L 159.497367 96.884801 
L 159.508894 96.194195 
L 159.531952 98.823061 
L 159.566542 107.206535 
L 159.624186 95.418242 
L 159.762537 81.651244 
L 159.774068 82.14586 
L 159.797127 81.228708 
L 159.820185 82.698269 
L 159.831713 81.407914 
L 159.912419 84.40848 
L 160.096883 90.173228 
L 160.119942 89.552618 
L 160.154531 89.65938 
L 160.166059 88.84965 
L 160.30441 94.436751 
L 160.408171 102.871457 
L 160.684873 144.251255 
L 160.696404 144.424124 
L 160.834751 151.065227 
L 160.857809 150.77864 
L 160.869341 151.37747 
L 161.03075 144.146883 
L 161.042277 144.852276 
L 161.065336 143.808487 
L 161.122984 144.000857 
L 161.146039 143.800718 
L 161.238273 148.339224 
L 161.249804 146.001952 
L 161.330506 148.692173 
L 161.342038 148.20096 
L 161.376623 147.506065 
L 161.388155 149.911512 
L 161.434272 148.80097 
L 161.445799 149.762081 
L 161.526505 148.29756 
L 161.58415 148.859598 
L 161.641794 146.065225 
L 161.676384 145.163902 
L 161.722501 147.356696 
L 162.045316 179.403028 
L 162.079905 182.340465 
L 162.368134 204.81617 
L 162.379662 204.635245 
L 162.414251 204.309784 
L 162.425779 205.66121 
L 162.483427 204.372155 
L 162.494954 204.579914 
L 162.529544 203.440923 
L 162.541071 203.727376 
L 163.797753 113.225197 
L 163.809284 113.7172 
L 163.866928 112.239359 
L 164.9622 84.340866 
L 163.889987 112.457492 
L 164.985259 84.350441 
L 165.227371 86.793986 
L 165.261961 87.197207 
L 165.723126 103.729916 
L 166.691579 194.387893 
L 166.806871 196.958102 
L 166.945222 198.307717 
L 166.95675 198.151396 
L 167.025925 198.516968 
L 167.037456 198.472578 
L 167.060515 198.541273 
L 167.0951 198.422223 
L 167.118159 198.44615 
L 167.141217 198.491588 
L 167.429447 193.988653 
L 168.075084 169.870417 
L 168.248021 164.122461 
L 168.605425 145.883575 
L 169.38941 105.132096 
L 169.839049 88.856494 
L 170.092692 86.40517 
L 170.161863 86.653622 
L 170.415507 88.93297 
L 170.726794 102.915618 
L 171.084199 131.740701 
L 171.787481 190.892125 
L 172.156416 202.757473 
L 172.167944 202.783145 
L 172.214061 202.685759 
L 172.352412 200.743605 
L 172.62911 191.706572 
L 173.009573 171.32615 
L 174.358488 95.516286 
L 174.715893 88.629252 
L 174.854244 87.872631 
L 174.900361 87.968266 
L 174.969536 88.461455 
L 175.61517 103.043278 
L 176.422213 136.4178 
L 177.563602 197.42055 
L 177.817245 201.927443 
L 177.840304 201.977546 
L 177.886421 201.841748 
L 177.990182 200.604389 
L 178.197709 195.109439 
L 178.543586 179.745154 
L 179.050869 146.498995 
L 179.592741 111.650436 
L 180.100028 91.418158 
L 180.353667 87.967343 
L 180.422839 87.837315 
L 180.468956 87.941081 
L 180.572721 88.640698 
L 180.734134 91.158528 
L 180.999305 99.196204 
L 181.471998 121.873969 
L 182.083042 164.410197 
L 182.60186 194.177776 
L 182.924678 201.780869 
L 183.016912 202.256202 
L 183.074553 202.146282 
L 183.212904 200.70431 
L 183.431957 195.494174 
L 183.743245 182.89163 
L 184.377351 146.814137 
L 185.195926 99.44666 
L 185.55333 88.87721 
L 185.737798 87.448217 
L 185.749329 87.461939 
L 185.795446 87.55185 
L 185.956852 89.135788 
L 186.198968 94.835546 
L 186.567896 109.408333 
L 187.709289 167.355868 
L 188.170458 185.620834 
L 188.44716 189.653658 
L 188.493277 189.71743 
L 188.539387 189.565621 
L 188.631621 188.854183 
L 188.850682 185.333054 
L 189.138907 175.931249 
L 190.752993 115.774176 
L 191.041226 112.721615 
L 191.121929 112.528987 
L 191.191101 112.595634 
L 191.352514 113.519594 
L 191.629216 117.143289 
L 192.136495 128.017685 
L 193.162591 150.776537 
L 193.577644 154.709099 
L 193.762112 155.116889 
L 193.958111 154.515914 
L 194.257867 151.963608 
L 194.891974 144.029331 
L 195.641369 134.604273 
L 196.11407 131.176859 
L 196.356178 130.712939 
L 196.609825 131.148268 
L 196.921113 132.647623 
L 197.532157 136.88519 
L 198.270028 142.086384 
L 198.73119 144.106008 
L 199.030954 144.576731 
L 199.042478 144.568877 
L 199.19236 144.506665 
L 199.734232 143.041411 
L 200.137754 141.327576 
L 200.760329 138.90108 
L 201.15232 137.90301 
L 201.429021 137.534948 
L 201.993956 137.644727 
L 202.524297 138.411233 
L 202.789468 138.911709 
L 202.950874 139.200961 
L 203.7118 140.37553 
L 203.91933 140.555429 
L 204.115321 140.685649 
L 204.345906 140.718726 
L 204.472726 140.72033 
L 204.691779 140.670041 
L 204.853193 140.593206 
L 206.155991 139.655054 
L 206.248225 139.614812 
L 206.444217 139.532177 
L 206.559513 139.51933 
L 206.720918 139.478552 
L 206.8708 139.491871 
L 207.009151 139.478848 
L 207.182088 139.51744 
L 207.320439 139.533772 
L 207.51643 139.599122 
L 207.631726 139.615521 
L 207.816194 139.69358 
L 207.908428 139.711058 
L 207.931483 139.732987 
L 208.058303 139.775806 
L 208.680878 139.978105 
L 208.807705 139.995984 
L 208.969111 140.053549 
L 209.084399 140.050265 
L 209.095931 140.074084 
L 209.314984 140.095851 
L 210.110504 140.072681 
L 210.375674 140.044242 
L 213.119615 139.888207 
L 213.304083 139.909776 
L 213.488551 139.916794 
L 213.788315 139.948543 
L 214.065009 139.954653 
L 214.191836 139.972752 
L 215.137223 140.002227 
L 215.275574 139.996467 
L 215.460041 140.000813 
L 215.609923 139.99679 
L 215.759805 139.99414 
L 215.921211 139.981667 
L 216.082617 139.993525 
L 216.24403 139.981959 
L 216.405435 139.993805 
L 216.555317 139.980053 
L 216.693668 139.980533 
L 216.855074 139.967975 
L 217.016487 139.980518 
L 217.177893 139.967697 
L 219.310789 139.995313 
L 219.437616 140.014628 
L 221.36299 140.036142 
L 221.443693 139.998761 
L 221.386045 140.047784 
L 221.478279 140.031026 
L 221.524396 139.963413 
L 221.593575 139.723909 
L 221.605098 140.368279 
L 221.628161 140.422132 
L 221.674278 132.132477 
L 221.743449 124.180611 
L 221.731918 149.507519 
L 221.75498 124.85088 
L 221.801097 164.066406 
L 221.858746 120.413354 
L 221.939448 84.391779 
L 221.985565 92.825204 
L 222.100854 152.410168 
L 222.146971 128.97457 
L 222.193088 83.876753 
L 222.285322 98.423088 
L 222.331439 124.596416 
L 222.366025 95.548112 
L 222.400618 114.367728 
L 222.515907 65.518511 
L 222.550492 70.770316 
L 222.677312 106.572668 
L 222.573555 70.351615 
L 222.688843 95.812847 
L 222.781077 76.217764 
L 222.711906 105.320157 
L 222.80414 90.084504 
L 222.815663 83.976754 
L 222.850257 109.73396 
L 222.873311 96.887545 
L 222.884842 109.353727 
L 222.954014 82.697108 
L 222.965545 85.29438 
L 222.9886 75.609837 
L 223.011662 92.0517 
L 223.057779 82.609224 
L 223.080834 108.705023 
L 223.126951 77.851616 
L 223.150013 83.690672 
L 223.161544 66.189181 
L 223.184599 85.797419 
L 223.265302 76.017676 
L 223.276833 75.396983 
L 223.288364 76.748078 
L 223.495886 153.151859 
L 223.565066 136.28478 
L 223.542003 154.409623 
L 223.599651 150.202204 
L 223.611183 148.517187 
L 223.622706 161.794769 
L 223.645768 152.459607 
L 223.691885 173.838261 
L 223.761057 170.539186 
L 223.92247 122.954265 
L 223.933994 123.391169 
L 224.04929 160.660278 
L 224.118462 155.586995 
L 224.233758 134.578073 
L 224.360578 171.454305 
L 224.372109 173.460735 
L 224.383632 158.586643 
L 224.452812 140.339685 
L 224.406695 161.90603 
L 224.510452 142.032922 
L 224.545045 155.037699 
L 224.614217 148.833643 
L 224.637279 141.597429 
L 224.648803 153.430162 
L 224.717982 148.165513 
L 224.764099 143.857169 
L 224.90245 187.743234 
L 224.994684 176.796181 
L 225.017739 180.362758 
L 225.144558 217.283076 
L 225.15609 215.785215 
L 225.190675 227.310518 
L 225.271386 195.229479 
L 225.282909 210.647669 
L 225.375143 191.173528 
L 225.478908 205.605261 
L 225.490439 198.326608 
L 225.501963 198.595849 
L 225.513494 208.624173 
L 225.594197 185.057762 
L 225.617259 203.309816 
L 225.709493 173.105182 
L 225.767134 175.810228 
L 225.836313 193.016 
L 225.870899 179.255711 
L 226.032312 158.417209 
L 226.043835 166.778497 
L 226.124538 151.450939 
L 226.285951 127.134639 
L 226.297483 132.567714 
L 226.320537 141.117274 
L 226.332068 127.601209 
L 226.343599 122.984927 
L 226.412771 135.208948 
L 226.424302 130.909027 
L 226.435833 131.397915 
L 226.447357 131.101127 
L 226.585708 113.607886 
L 226.631825 125.241052 
L 226.689473 121.643999 
L 226.724059 122.401199 
L 226.827824 96.616449 
L 226.86241 94.903153 
L 226.943112 114.300942 
L 226.966175 99.600951 
L 227.046878 104.125115 
L 227.069932 115.326056 
L 227.150643 110.122109 
L 227.265931 91.142172 
L 227.277462 95.653225 
L 227.323579 107.56668 
L 227.369696 88.400782 
L 227.38122 91.662406 
L 227.438868 101.716426 
L 227.496516 97.682056 
L 227.565688 98.042264 
L 227.646398 85.547915 
L 227.773218 75.046559 
L 227.888506 87.95321 
L 227.98074 81.172454 
L 227.992272 91.100505 
L 228.015326 78.171537 
L 228.096037 90.124415 
L 228.153677 99.452469 
L 228.199794 95.737971 
L 228.326614 82.848446 
L 228.488027 96.840646 
L 228.372731 79.743415 
L 228.499558 94.037909 
L 228.511082 91.611517 
L 228.545675 107.605224 
L 228.591784 97.971299 
L 228.753198 123.385955 
L 228.799315 120.483167 
L 228.810846 123.532642 
L 228.96072 151.452916 
L 228.983782 148.218572 
L 229.064485 148.811049 
L 229.191305 165.952842 
L 229.202836 157.981931 
L 229.260484 176.205626 
L 229.283539 175.245888 
L 229.29507 174.991192 
L 229.306601 177.07498 
L 229.318125 176.613306 
L 229.502593 191.99549 
L 229.652475 203.488532 
L 229.721646 202.474497 
L 229.790826 192.047083 
L 229.75624 202.634833 
L 229.836942 199.587767 
L 229.9407 192.25003 
L 229.963762 196.217609 
L 230.032934 197.632634 
L 229.998348 192.972738 
L 230.067527 196.653661 
L 230.079051 193.341678 
L 230.102113 201.579036 
L 230.159761 198.149876 
L 230.251988 202.398629 
L 230.240464 197.836776 
L 230.263519 200.336097 
L 230.390338 189.443385 
L 230.40187 191.288889 
L 230.424932 199.439229 
L 230.459518 186.291153 
L 230.494104 186.821417 
L 230.586337 176.729258 
L 230.643986 179.241328 
L 230.655509 181.430957 
L 230.713157 174.300115 
L 230.759274 169.342774 
L 230.79386 177.217085 
L 230.828453 172.540913 
L 230.839977 169.510973 
L 230.87457 172.794962 
L 230.932211 170.247044 
L 231.035976 174.825037 
L 231.00139 169.222844 
L 231.047507 174.109824 
L 231.58938 137.924753 
L 231.612434 140.238827 
L 231.623965 140.314804 
L 231.716199 132.497068 
L 231.681613 140.982682 
L 231.739254 134.073491 
L 231.750785 137.613213 
L 231.808433 128.105472 
L 231.831488 131.220662 
L 231.958308 121.129055 
L 232.004425 114.598717 
L 232.015956 112.233348 
L 232.039018 117.51654 
L 232.10819 115.202815 
L 232.119721 114.962725 
L 232.235009 105.523649 
L 232.246541 107.525375 
L 232.258072 110.893427 
L 232.304189 103.552107 
L 232.338775 106.701515 
L 232.465594 97.735298 
L 232.477125 98.363595 
L 232.603945 87.489163 
L 232.684648 90.26727 
L 232.70771 87.75079 
L 232.719234 87.802061 
L 232.822999 88.440142 
L 232.846061 83.389005 
L 232.892178 88.840019 
L 232.96135 86.692499 
L 233.018998 83.96264 
L 233.053584 87.577141 
L 233.134287 91.834251 
L 233.111232 87.418902 
L 233.168872 90.943196 
L 233.203466 86.194811 
L 233.22652 91.629738 
L 233.284169 87.364851 
L 233.457105 95.141669 
L 233.480168 92.514824 
L 233.503222 96.655873 
L 233.537808 93.639589 
L 233.630042 102.939204 
L 233.849096 122.034519 
L 233.860627 121.933214 
L 233.872158 122.72479 
L 234.367913 169.917186 
L 234.506264 183.990831 
L 234.517788 182.512425 
L 234.586967 187.342866 
L 234.610022 188.64739 
L 234.702256 193.251915 
L 234.736842 192.649297 
L 234.921309 199.325713 
L 234.932841 198.767982 
L 234.944372 201.615836 
L 234.990489 201.094798 
L 235.048137 202.344007 
L 235.013543 199.403883 
L 235.071191 200.646915 
L 235.082723 199.902686 
L 235.151894 201.847567 
L 235.209542 204.849188 
L 235.244128 201.186153 
L 235.26719 202.197659 
L 235.786001 176.107894 
L 235.797532 176.627233 
L 235.809063 178.295947 
L 235.866703 170.942689 
L 235.878235 174.80762 
L 236.03964 161.932867 
L 236.051171 162.060765 
L 236.350928 144.402177 
L 236.37399 145.468244 
L 236.454693 139.258064 
L 236.616106 126.601808 
L 237.008096 103.625205 
L 237.400087 91.92342 
L 237.653726 88.202465 
L 237.734437 87.85371 
L 237.792077 87.954796 
L 237.861256 88.495623 
L 238.034193 90.073851 
L 238.149482 92.135919 
L 238.622183 107.393518 
L 239.429226 143.869125 
L 240.293917 191.871579 
L 240.628259 201.240211 
L 240.732024 201.928949 
L 240.778141 201.767598 
L 240.881899 200.492034 
L 241.147077 192.81716 
L 241.527536 174.359972 
L 242.057877 137.268985 
L 242.738101 99.429564 
L 243.107036 89.139235 
L 243.314567 87.774319 
L 243.383738 88.000941 
L 243.499034 88.997349 
L 243.729612 93.776823 
L 244.040907 105.696545 
L 244.513593 131.393427 
L 245.631931 198.575717 
L 245.88557 202.180447 
L 245.977804 201.971515 
L 246.104632 200.545435 
L 246.323678 195.264042 
L 246.646489 182.017425 
L 247.211424 150.26184 
L 248.133763 97.301478 
L 248.479636 88.256165 
L 248.61798 87.365614 
L 248.664104 87.42142 
L 248.710214 87.611008 
L 248.894681 89.916687 
L 249.136805 96.383447 
L 249.713256 121.773312 
L 251.212061 188.51973 
L 251.350404 189.626042 
L 251.396529 189.585848 
L 251.4657 189.235949 
L 251.592512 187.831948 
L 251.788511 183.977229 
L 252.099807 172.851989 
L 253.460253 119.393813 
L 253.852236 113.103401 
L 254.025173 112.444365 
L 254.048235 112.466041 
L 254.19811 113.10856 
L 254.371046 114.876104 
L 254.774575 122.134153 
L 255.454791 138.801067 
L 256.054319 150.852411 
L 256.434771 154.57063 
L 256.642301 155.120837 
L 256.746066 154.953171 
L 257.04583 152.955194 
L 257.56464 146.920652 
L 258.809791 132.189455 
L 259.086493 130.91071 
L 259.27096 130.716023 
L 259.328601 130.775263 
L 259.397773 130.886669 
L 259.536131 131.293339 
L 259.83588 132.81841 
L 260.469986 137.290943 
L 261.311623 142.917541 
L 261.645965 144.18936 
L 262.014901 144.560363 
L 262.026432 144.549747 
L 262.372305 143.908937 
L 263.110177 140.965518 
L 263.467581 139.510603 
L 264.032516 137.91859 
L 264.332265 137.532742 
L 264.712732 137.507553 
L 264.966371 137.743479 
L 265.439072 138.461304 
L 265.750367 139.055433 
L 265.842586 139.210319 
L 266.096241 139.680004 
L 266.292225 139.976321 
L 266.591989 140.372992 
L 266.995518 140.688368 
L 267.007034 140.67491 
L 267.226095 140.742246 
L 267.37597 140.714681 
L 267.502797 140.701547 
L 267.721858 140.60599 
L 267.906311 140.496788 
L 268.344433 140.157597 
L 268.505839 140.031466 
L 269.162992 139.602693 
L 269.266758 139.570249 
L 269.485819 139.495072 
L 269.854755 139.497145 
L 269.981567 139.494562 
L 271.987651 140.078442 
L 272.102947 140.07781 
L 272.114478 140.086741 
L 272.229759 140.102348 
L 272.24129 140.091511 
L 272.575633 140.103875 
L 272.713991 140.103294 
L 272.852334 140.089935 
L 272.9561 140.09017 
L 272.967631 140.074498 
L 273.129036 140.049713 
L 273.255864 140.047996 
L 273.267395 140.036315 
L 273.405738 140.036519 
L 273.555612 139.997673 
L 273.693971 139.9787 
L 273.901501 139.94152 
L 274.016782 139.939964 
L 274.028313 139.919131 
L 275.434884 139.846926 
L 275.550166 139.868108 
L 275.688524 139.853241 
L 275.838398 139.885068 
L 275.999804 139.889448 
L 276.276506 139.924472 
L 276.437911 139.927367 
L 276.622379 139.951301 
L 276.829909 139.963489 
L 277.060487 139.979808 
L 277.210376 139.98184 
L 277.371782 139.993948 
L 277.521656 139.995186 
L 277.683062 140.007732 
L 277.844483 139.995163 
L 277.994357 140.008162 
L 278.144232 139.994675 
L 282.951912 140.022103 
L 283.090255 140.034784 
L 283.251661 140.022575 
L 283.40155 140.021814 
L 284.519873 139.942764 
L 284.531405 139.820271 
L 284.831169 111.437662 
L 284.877278 107.478341 
L 284.888809 108.338612 
L 285.027168 94.959912 
L 285.038684 96.945033 
L 285.073277 91.105343 
L 285.10787 91.370164 
L 285.280807 78.859751 
L 285.292338 80.6507 
L 285.303869 81.44975 
L 285.338448 93.327596 
L 285.396088 79.92854 
L 285.534447 59.069603 
L 285.545978 60.209715 
L 285.56904 59.116647 
L 285.926445 71.025709 
L 285.937961 68.916936 
L 286.018679 73.023209 
L 286.041726 72.441359 
L 286.283849 110.159871 
L 286.514426 151.211558 
L 286.641254 155.83591 
L 286.687363 152.950705 
L 286.894893 145.058775 
L 286.917956 145.007469 
L 287.010189 151.771594 
L 287.021705 148.436906 
L 287.113939 152.058791 
L 287.125471 149.691384 
L 287.137002 154.119849 
L 287.240767 153.027082 
L 287.425235 147.017375 
L 287.448297 146.786487 
L 287.724999 179.85882 
L 287.748046 183.823904 
L 287.759577 183.296158 
L 287.967107 213.331552 
L 288.128513 228.563755 
L 288.174637 230.801611 
L 288.163106 228.195913 
L 288.243809 229.806249 
L 289.189195 134.740588 
L 289.50049 106.114175 
L 289.512022 106.155941 
L 289.673427 100.575465 
L 289.684958 100.971765 
L 289.742599 99.340472 
L 289.765661 99.448239 
L 290.48047 70.155827 
L 290.73411 63.21166 
L 290.837875 63.402591 
L 290.99928 66.556658 
L 291.010812 66.57375 
L 291.414325 82.306421 
L 291.748683 125.394474 
L 292.475023 215.105056 
L 292.636429 219.689861 
L 292.832428 220.810047 
L 292.890068 220.76847 
L 292.913131 220.779418 
L 293.051474 218.962625 
L 293.143708 216.741157 
L 294.365811 149.383761 
L 294.861559 113.725121 
L 295.472603 74.204718 
L 295.783898 66.404703 
L 295.876132 66.010346 
L 295.922242 66.188153 
L 296.222006 71.221106 
L 296.544817 92.481157 
L 296.89069 133.024642 
L 297.570921 210.836829 
L 297.939857 226.629868 
L 297.951388 226.617188 
L 297.985966 226.520757 
L 298.135841 223.49505 
L 298.366433 213.400419 
L 298.781478 183.429839 
L 300.084284 80.463929 
L 300.464751 69.477613 
L 300.626157 68.024958 
L 300.660735 68.083568 
L 300.752969 69.05282 
L 300.925906 71.171985 
L 301.075795 75.413572 
L 301.871307 113.0754 
L 302.240243 138.704925 
L 303.185629 211.861599 
L 303.519972 224.615316 
L 303.612206 225.486186 
L 303.669861 225.228876 
L 303.785142 223.047804 
L 304.027266 213.304579 
L 304.407733 188.036139 
L 304.961121 134.817313 
L 305.61829 84.409966 
L 305.975694 70.177585 
L 306.194756 67.945029 
L 306.240865 68.074756 
L 306.356161 69.1742 
L 306.529098 73.151018 
L 306.817331 86.037806 
L 307.347672 123.442184 
L 308.56976 222.465689 
L 308.800353 225.853285 
L 308.881056 225.415229 
L 309.042461 222.338344 
L 309.28457 212.899938 
L 309.69963 186.230344 
L 310.52972 116.321519 
L 311.106186 76.800663 
L 311.40595 68.064903 
L 311.5097 67.399581 
L 311.555824 67.483975 
L 311.624996 68.001449 
L 311.786402 71.041767 
L 312.063103 81.75455 
L 312.581914 113.694324 
L 314.126828 207.468236 
L 314.265187 208.535054 
L 314.288234 208.479663 
L 314.368952 207.864875 
L 314.61106 202.899097 
L 314.830106 193.910244 
L 315.464212 156.373367 
L 316.213615 116.515111 
L 316.640191 104.247311 
L 316.905362 102.015718 
L 317.04372 102.557451 
L 317.228188 104.866345 
L 317.585593 113.173206 
L 318.242746 134.990646 
L 318.922977 154.551749 
L 319.31496 160.01755 
L 319.534021 160.81953 
L 319.545552 160.790567 
L 319.557084 160.800298 
L 319.591662 160.734772 
L 319.787661 159.50731 
L 320.052831 156.170471 
L 320.779172 143.398262 
L 321.759152 128.643493 
L 322.035853 127.232271 
L 322.162681 127.155631 
L 322.197259 127.197924 
L 322.41632 127.900109 
L 322.658429 129.514764 
L 323.430878 136.993162 
L 324.191812 143.933485 
L 324.64145 146.050742 
L 324.964262 146.17642 
L 325.448494 144.473271 
L 326.220943 139.980446 
L 326.935752 137.043372 
L 327.212454 136.554592 
L 327.535281 136.482746 
L 328.503729 138.2969 
L 328.941837 139.412339 
L 329.126304 139.808338 
L 329.368413 140.281231 
L 329.875707 140.879767 
L 330.613563 140.779957 
L 330.901796 140.516502 
L 331.097795 140.314403 
L 331.72037 139.659011 
L 332.043182 139.411161 
L 332.319883 139.27212 
L 332.446711 139.257193 
L 332.804115 139.242958 
L 332.95399 139.28876 
L 333.080817 139.300666 
L 333.311394 139.410421 
L 333.415159 139.4376 
L 333.68033 139.573041 
L 333.772564 139.600816 
L 333.784095 139.614351 
L 334.003156 139.725673 
L 334.34903 139.884108 
L 334.464311 139.914512 
L 334.648779 139.993024 
L 334.764075 140.007692 
L 334.913949 140.060516 
L 335.040777 140.065033 
L 335.236776 140.098913 
L 335.501946 140.094518 
L 335.767117 140.071125 
L 336.216755 139.986121 
L 336.481926 139.944648 
L 336.631801 139.895018 
L 336.643332 139.909787 
L 338.130606 139.737578 
L 338.292011 139.749348 
L 338.430355 139.750531 
L 338.580244 139.777073 
L 338.59176 139.763584 
L 339.767739 139.88513 
L 339.894566 139.910676 
L 340.044441 139.915849 
L 340.263502 139.936504 
L 340.471032 139.94919 
L 340.770781 139.945648 
L 341.289591 139.947658 
L 342.350289 139.915431 
L 342.534757 139.926788 
L 342.696162 139.901408 
L 342.88063 139.911878 
L 343.042036 139.900426 
L 343.19191 139.912345 
L 343.353316 139.899772 
L 343.503206 139.912605 
L 343.664611 139.899929 
L 343.814486 139.926155 
L 343.964375 139.913731 
L 344.125781 139.925897 
L 344.275655 139.927902 
L 344.42553 139.939019 
L 344.575419 139.927714 
L 344.748356 139.951892 
L 344.921293 139.95128 
L 345.094229 139.960435 
L 345.624571 139.97996 
L 345.751398 139.975788 
L 346.166443 139.974075 
L 347.400063 140.108562 
L 347.457718 134.526085 
L 347.469249 134.637681 
L 347.642186 111.308442 
L 347.653702 119.327168 
L 347.73442 104.995167 
L 347.745936 106.538436 
L 347.884294 89.463771 
L 347.895826 93.475567 
L 347.964997 81.224349 
L 347.976528 86.304413 
L 348.114872 71.295216 
L 348.230168 88.812025 
L 348.137934 69.056291 
L 348.241699 79.476178 
L 348.25323 80.266927 
L 348.391573 48.25881 
L 348.403105 48.918764 
L 348.460745 44.64 
L 348.518401 46.387561 
L 348.656744 58.25981 
L 348.691338 56.131051 
L 348.725931 54.964936 
L 348.737447 59.590554 
L 348.748978 54.985917 
L 348.841212 61.52955 
L 348.864274 60.263792 
L 348.875805 58.592465 
L 348.910384 63.317732 
L 348.933446 62.286095 
L 349.313913 142.762518 
L 349.325444 143.005204 
L 349.475318 158.062266 
L 349.532974 158.536921 
L 349.69438 146.61049 
L 349.728958 145.908352 
L 349.798145 148.934614 
L 349.809661 146.157665 
L 349.878847 151.597636 
L 349.890379 149.94903 
L 349.994128 154.667725 
L 349.913426 149.30036 
L 350.00566 152.276606 
L 350.051784 156.296767 
L 350.063315 151.855578 
L 350.132487 155.223302 
L 350.316955 149.052957 
L 350.340017 148.665172 
L 350.466829 162.745363 
L 350.78964 217.00513 
L 350.801172 216.897611 
L 350.962592 241.04898 
L 350.974108 241.067148 
L 351.089404 246.24 
L 351.123998 245.456987 
L 351.642808 194.272289 
L 352.138556 126.414309 
L 352.426789 98.236868 
L 352.43832 98.351373 
L 352.449851 97.615743 
L 352.472913 97.714082 
L 352.611257 92.761631 
L 352.622788 93.435191 
L 352.668912 91.238453 
L 352.680428 91.522859 
L 352.830318 84.369411 
L 352.841849 84.890804 
L 352.864896 82.811096 
L 352.876427 83.054512 
L 353.095489 69.522255 
L 353.10702 70.238629 
L 353.141598 67.549028 
L 353.153129 68.168035 
L 353.303004 61.499545 
L 353.62583 50.037656 
L 353.648892 50.107991 
L 353.671939 50.106318 
L 353.764173 52.003266 
L 353.775704 50.734994 
L 353.844876 53.258408 
L 353.856407 53.108656 
L 354.282999 70.665618 
L 355.193792 214.905619 
L 355.447446 231.569449 
L 355.631914 234.288897 
L 355.64343 234.082041 
L 355.724133 234.575913 
L 355.977788 231.551428 
L 356.381302 207.996765 
L 356.819409 184.241792 
L 357.211407 155.002245 
L 358.133746 77.36471 
L 358.502682 57.324796 
L 358.756321 53.440919 
L 358.802431 53.576557 
L 359.090664 58.273379 
L 359.563364 99.625501 
L 360.670156 235.670613 
L 360.831577 241.396339 
L 360.889218 241.069165 
L 360.981452 239.146963 
L 361.200498 229.145392 
L 361.569433 200.411415 
L 363.068239 66.140372 
L 363.425643 56.367308 
L 363.517877 55.80959 
L 363.563987 55.961333 
L 363.633158 56.791941 
L 363.840688 60.080253 
L 364.036687 67.924911 
L 364.532435 95.67697 
L 365.074308 133.262003 
L 366.250286 233.887222 
L 366.503926 240.059112 
L 366.55005 239.818622 
L 366.642284 238.106587 
L 366.861331 228.838589 
L 367.218735 202.91118 
L 367.691436 153.177201 
L 368.233308 95.928375 
L 368.740587 62.337777 
L 369.005758 55.982002 
L 369.086476 55.710014 
L 369.132585 55.874464 
L 369.270929 57.636297 
L 369.466928 63.781009 
L 369.766692 81.10987 
L 370.297033 127.108908 
L 371.392294 234.055951 
L 371.645949 240.358212 
L 371.692073 240.483692 
L 371.738167 240.276982 
L 371.864995 238.199401 
L 372.084071 230.026229 
L 372.44146 206.295963 
L 373.202394 133.539378 
L 374.009422 65.229802 
L 374.309201 55.633828 
L 374.389904 55.054506 
L 374.447545 55.165329 
L 374.562826 56.569605 
L 374.747294 61.901008 
L 375.093167 80.808892 
L 375.842585 138.083247 
L 376.891721 215.800038 
L 377.122313 220.188823 
L 377.133829 220.180257 
L 377.156892 220.178458 
L 377.179954 220.114302 
L 377.272203 219.147843 
L 377.468187 214.55988 
L 377.698779 204.140251 
L 378.298277 163.015513 
L 379.093789 112.848585 
L 379.497333 98.7731 
L 379.77402 95.571584 
L 379.785566 95.535488 
L 379.854723 95.651805 
L 380.073799 98.094162 
L 380.385064 105.744213 
L 380.96153 127.156533 
L 381.745526 155.389273 
L 382.172102 163.136488 
L 382.391148 164.338738 
L 382.529491 164.010298 
L 382.748568 161.892341 
L 383.221238 153.56766 
L 384.685465 126.352563 
L 384.93909 125.015409 
L 385.054401 124.950443 
L 385.088979 124.994161 
L 385.377212 126.293368 
L 385.803788 130.34141 
L 387.210344 145.560552 
L 387.648467 147.264353 
L 387.752232 147.303786 
L 387.78681 147.27401 
L 387.982794 146.859885 
L 388.420917 144.670328 
L 389.931238 136.239048 
L 390.150284 135.876015 
L 390.496157 135.920016 
L 390.749812 136.289083 
L 391.464621 138.197558 
L 392.433085 140.612477 
L 392.709772 140.971782 
L 392.95188 141.093676 
L 393.193988 141.072591 
L 393.413065 140.948551 
L 393.597533 140.799306 
L 394.923386 139.287614 
L 395.096307 139.175594 
L 395.38454 139.092769 
L 395.626649 139.086393 
L 395.822663 139.122979 
L 395.903366 139.138962 
L 395.926428 139.167132 
L 396.053225 139.192451 
L 396.064771 139.214222 
L 396.387582 139.358266 
L 396.595113 139.479546 
L 396.791096 139.589433 
L 396.964048 139.689549 
L 397.067813 139.747466 
L 397.3445 139.877169 
L 397.563576 139.958214 
L 397.713436 140.018569 
L 397.886388 140.050793 
L 398.105434 140.087841 
L 398.278386 140.078241 
L 398.428245 140.082107 
L 398.555072 140.064556 
L 398.704962 140.051341 
L 398.854821 140.007845 
L 398.981648 139.994259 
L 399.166116 139.940789 
L 399.281397 139.926557 
L 399.477411 139.858972 
L 399.604239 139.84487 
L 399.788707 139.791046 
L 399.915504 139.777534 
L 400.065393 139.736495 
L 400.169158 139.73663 
L 400.180674 139.718702 
L 400.422813 139.683582 
L 400.584219 139.696787 
L 400.711016 139.670645 
L 400.895483 139.678817 
L 401.103014 139.671753 
L 401.345122 139.690974 
L 401.564198 139.714183 
L 402.313586 139.81365 
L 402.440413 139.823733 
L 402.705584 139.848637 
L 402.820865 139.876442 
L 402.832411 139.861268 
L 403.48958 139.925228 
L 403.662501 139.916959 
L 403.858485 139.914353 
L 404.019921 139.925881 
L 404.181327 139.913737 
L 404.331186 139.913784 
L 404.481076 139.899908 
L 404.619419 139.912715 
L 404.780824 139.886514 
L 404.919198 139.885209 
L 405.057541 139.87198 
L 405.069057 139.887985 
L 405.380353 139.873549 
L 405.530242 139.870537 
L 405.680101 139.858316 
L 405.691648 139.876286 
L 405.876116 139.861142 
L 406.060583 139.869028 
L 406.268114 139.862442 
L 406.521738 139.86752 
L 406.763846 139.873835 
L 406.890674 139.878309 
L 408.435573 139.944164 
L 408.550884 139.941988 
L 408.5624 139.952096 
L 408.723806 139.941638 
L 408.885212 139.95431 
L 409.035101 139.942354 
L 409.48474 139.940289 
L 410.176487 139.832923 
L 410.234127 140.102626 
L 410.222611 139.785524 
L 410.291798 139.920638 
L 410.31483 138.873752 
L 410.499298 120.081758 
L 410.533906 123.400621 
L 410.545422 128.19749 
L 410.556969 116.824628 
L 410.626125 118.147266 
L 410.637671 119.686489 
L 410.67225 113.711923 
L 410.695312 116.320705 
L 410.822139 103.940826 
L 410.833655 110.155919 
L 410.902842 99.58287 
L 410.914358 105.974691 
L 410.93742 106.044136 
L 411.029639 94.064248 
L 411.121888 108.825978 
L 411.052701 93.90098 
L 411.14495 103.135711 
L 411.271778 82.355615 
L 411.283294 84.214901 
L 411.306356 80.174006 
L 411.410121 81.353478 
L 411.548464 90.761474 
L 411.560011 83.829344 
L 411.652229 91.549945 
L 411.663745 87.5731 
L 411.70987 87.409168 
L 411.779057 91.706956 
L 411.813635 89.620769 
L 411.85976 95.101363 
L 411.928916 100.055619 
L 412.343976 150.321463 
L 412.390101 151.846217 
L 412.401617 150.126704 
L 412.424679 151.127675 
L 412.551506 144.982497 
L 412.563022 146.536291 
L 412.574569 143.259209 
L 412.655271 145.013345 
L 412.666787 142.87127 
L 412.735974 147.843768 
L 412.74749 144.513278 
L 412.782099 148.671523 
L 412.862802 147.576952 
L 412.908896 151.184508 
L 412.89738 145.193387 
L 412.966567 150.820408 
L 412.978083 147.619784 
L 413.081848 148.12596 
L 413.197129 144.186343 
L 413.10491 149.623668 
L 413.220191 144.344131 
L 413.381597 157.785806 
L 413.393143 157.372241 
L 413.404659 158.15877 
L 413.566064 175.817391 
L 413.577611 175.415722 
L 413.72747 193.563383 
L 413.739016 192.098802 
L 413.773595 197.065953 
L 413.785141 196.695251 
L 413.923484 205.831823 
L 413.935 202.643041 
L 413.946546 206.586795 
L 414.038765 204.551767 
L 414.061828 203.836527 
L 414.08489 202.998879 
L 414.096406 204.532657 
L 414.211717 197.504434 
L 414.119468 205.301311 
L 414.223233 197.860159 
L 414.465341 178.629347 
L 414.476888 179.121774 
L 414.638293 163.591965 
L 414.649809 163.389552 
L 414.822761 146.817402 
L 414.834277 147.397417 
L 414.845824 143.896153 
L 414.857339 145.657555 
L 415.018745 130.64184 
L 415.030291 132.102952 
L 415.076386 126.957732 
L 415.087932 127.344046 
L 415.249337 116.043812 
L 415.260853 117.075831 
L 415.318524 113.472607 
L 415.33004 114.686401 
L 415.422259 110.523781 
L 415.456868 111.282714 
L 415.468384 112.09257 
L 415.526024 109.292656 
L 415.53757 111.381368 
L 415.664398 107.527299 
L 415.848866 101.313288 
L 415.860382 101.806397 
L 415.987209 96.12969 
L 415.998725 96.797935 
L 416.137098 92.069284 
L 416.148614 93.181056 
L 416.229317 90.303021 
L 416.402269 85.086048 
L 416.413785 85.797422 
L 416.482972 84.351297 
L 416.494488 84.898268 
L 416.609769 84.077949 
L 416.736596 86.335128 
L 416.748143 85.976921 
L 416.805783 87.046456 
L 417.220813 99.973619 
L 418.258464 194.992024 
L 418.546697 198.520976 
L 418.581275 198.490327 
L 418.673494 198.045131 
L 418.661978 198.613087 
L 418.708102 198.211731 
L 418.719618 198.33532 
L 418.777259 197.799492 
L 418.938664 194.730334 
L 418.950211 194.828753 
L 419.215381 184.384371 
L 420.149237 146.064379 
L 421.313684 90.464654 
L 421.509698 87.118071 
L 421.659558 86.313838 
L 421.901666 87.777746 
L 422.005431 90.350769 
L 422.639537 132.364828 
L 423.377409 192.690777 
L 423.711766 202.729592 
L 423.746345 202.685726 
L 423.792469 202.392332 
L 423.976937 198.753457 
L 424.357389 182.93098 
L 425.222087 131.125155 
L 425.66018 104.009147 
L 426.029115 92.534846 
L 426.363473 87.88196 
L 426.398051 87.797735 
L 426.455692 87.921649 
L 426.524878 88.486287 
L 426.69783 90.062448 
L 426.813111 92.170605 
L 427.205109 104.477168 
L 427.954497 135.387188 
L 429.153523 198.474104 
L 429.384115 201.872695 
L 429.395661 201.888261 
L 429.43024 201.785394 
L 429.534005 200.580462 
L 429.706926 196.284406 
L 430.0528 181.722767 
L 430.583141 147.761629 
L 431.113513 113.037796 
L 431.632308 91.74283 
L 431.897478 87.885669 
L 431.978181 87.739756 
L 432.01279 87.824306 
L 432.151133 88.84481 
L 432.370179 93.163346 
L 432.727599 106.819942 
L 433.234878 135.372082 
L 434.284014 198.289709 
L 434.537669 202.098508 
L 434.572247 202.155989 
L 434.618372 202.052127 
L 434.71059 201.290971 
L 434.883542 198.096548 
L 435.148713 189.239943 
L 435.586835 167.175897 
L 437.02797 90.128897 
L 437.270078 87.35789 
L 437.304687 87.349839 
L 437.339265 87.428241 
L 437.489124 88.79048 
L 437.696654 93.220652 
L 438.077136 107.549823 
L 439.057116 156.525669 
L 439.656614 183.8268 
L 439.944847 189.282608 
L 440.037096 189.597603 
L 440.08322 189.48808 
L 440.244626 187.947017 
L 440.452126 183.92199 
L 440.786483 171.81069 
L 442.112337 119.605087 
L 442.481272 113.35113 
L 442.688802 112.438953 
L 442.700318 112.444535 
L 442.827146 112.891303 
L 442.965489 114.074544 
L 443.276784 118.848205 
L 443.818672 131.260825 
L 444.648762 149.804112 
L 445.017698 154.099034 
L 445.282868 155.106201 
L 445.294384 155.093388 
L 445.340509 155.078958 
L 445.375117 155.023208 
L 445.60568 153.833662 
L 446.02074 149.540372 
L 447.62331 131.333737 
L 447.934575 130.70853 
L 447.946121 130.729944 
L 448.049886 130.859057 
L 448.18823 131.247844 
L 448.4534 132.546635 
L 449.087507 136.942356 
L 450.067486 143.363745 
L 450.494063 144.507352 
L 450.667015 144.561107 
L 451.024404 143.915733 
L 451.589323 141.752499 
L 452.523209 138.274446 
L 452.972848 137.536625 
L 453.387878 137.51097 
L 453.67611 137.801185 
L 454.114233 138.480274 
L 454.39092 139.009839 
L 455.566914 140.633499 
L 456.431582 140.576515 
L 457.042656 140.126195 
L 457.711341 139.661229 
L 457.8612 139.597246 
L 458.022636 139.519355 
L 458.172496 139.49757 
L 459.014132 139.565892 
L 459.152475 139.626768 
L 459.164022 139.617418 
L 459.302365 139.663225 
L 459.475286 139.736576 
L 459.590598 139.759762 
L 459.775066 139.844565 
L 459.901893 139.872144 
L 460.074815 139.940205 
L 460.086361 139.927414 
L 460.363048 140.0082 
L 460.524453 140.048433 
L 460.628218 140.048605 
L 460.639734 140.064389 
L 460.80117 140.089535 
L 460.939513 140.09074 
L 461.100919 140.115721 
L 461.273841 140.092425 
L 461.458308 140.101892 
L 461.642776 140.07361 
L 461.873369 140.038856 
L 462.034774 140.035774 
L 462.046321 140.013582 
L 463.187706 139.862361 
L 463.337565 139.877813 
L 463.475939 139.849398 
L 463.764172 139.863619 
L 463.902515 139.848009 
L 464.110045 139.856248 
L 464.282967 139.86051 
L 464.478981 139.884842 
L 464.640386 139.881459 
L 464.77873 139.914024 
L 464.928619 139.900954 
L 465.124603 139.940689 
L 465.262947 139.927161 
L 465.424352 139.953697 
L 465.551179 139.95416 
L 465.701069 139.981248 
L 465.850928 139.966755 
L 465.989302 139.993902 
L 466.150708 139.982221 
L 466.323629 140.006677 
L 466.485035 139.999619 
L 466.738689 140.005459 
L 466.923157 139.997711 
L 467.130687 140.004336 
L 467.395858 139.985581 
L 467.684091 139.988835 
L 468.249011 139.972915 
L 468.767836 139.967362 
L 473.068207 139.997237 
L 473.137394 139.801139 
L 473.14891 140.29806 
L 473.171972 140.374892 
L 473.20655 135.705768 
L 473.287253 121.658657 
L 473.275737 149.747058 
L 473.298799 125.685955 
L 473.333377 163.300916 
L 473.402564 117.415642 
L 473.483267 85.829302 
L 473.529392 94.24308 
L 473.633157 149.744071 
L 473.702313 126.315172 
L 473.748438 85.701834 
L 473.82914 99.68927 
L 473.875265 123.042954 
L 473.909843 98.796407 
L 473.944422 113.407072 
L 474.048187 65.275566 
L 474.105827 75.285961 
L 474.117373 71.285595 
L 474.163498 92.840187 
L 474.221138 107.981788 
L 474.244201 84.58827 
L 474.278779 95.397364 
L 474.324904 76.415005 
L 474.370998 94.356122 
L 474.39406 110.585429 
L 474.474763 97.372174 
L 474.532434 71.653443 
L 474.60159 82.643123 
L 474.624652 109.065908 
L 474.670777 79.492381 
L 474.693839 84.87674 
L 474.705355 64.776352 
L 474.728418 85.697086 
L 474.80912 75.914557 
L 474.820636 75.855344 
L 474.866761 88.020426 
L 474.982072 149.562557 
L 475.005104 146.594205 
L 475.01665 132.900395 
L 475.085807 155.58902 
L 475.120415 140.163778 
L 475.235697 174.998391 
L 475.316399 163.057307 
L 475.408648 135.318529 
L 475.443227 137.56642 
L 475.477805 122.46944 
L 475.535445 143.001378 
L 475.558508 134.370397 
L 475.604632 159.025869 
L 475.685335 143.766911 
L 475.696881 143.429539 
L 475.7891 156.190078 
L 475.777584 136.304681 
L 475.800616 153.981899 
L 475.812162 145.076313 
L 475.846741 168.001218 
L 475.892865 165.868606 
L 475.915927 173.811478 
L 475.93899 154.160956 
L 475.962052 155.612534 
L 476.008146 141.548861 
L 476.077333 151.080367 
L 476.088849 154.863753 
L 476.158036 147.780128 
L 476.169552 141.758356 
L 476.192614 152.909745 
L 476.261801 148.083807 
L 476.400144 180.309649 
L 476.307925 144.591603 
L 476.423206 175.459665 
L 476.446269 188.383959 
L 476.538488 177.840997 
L 476.550034 178.180724 
L 476.722955 227.123913 
L 476.746018 220.150663 
L 476.861329 190.870639 
L 476.872845 196.653197 
L 476.884361 205.904062 
L 476.91897 190.912173 
L 476.988126 200.319084 
L 477.057313 208.182719 
L 477.034251 197.376638 
L 477.091891 200.386015 
L 477.195656 180.963532 
L 477.161078 204.380045 
L 477.218718 189.786669 
L 477.230234 191.971354 
L 477.241781 174.453172 
L 477.253297 172.554303 
L 477.287905 184.316904 
L 477.310968 177.058458 
L 477.380124 192.749045 
L 477.414702 179.323324 
L 477.564592 159.276365 
L 477.587654 165.633243 
L 477.59917 156.038488 
L 477.725997 134.901837 
L 477.622232 156.207006 
L 477.737544 138.264023 
L 477.74906 139.74945 
L 477.783638 135.2644 
L 477.887403 122.829205 
L 477.864341 140.721365 
L 477.898949 132.676883 
L 477.933528 124.869756 
L 477.95659 135.615658 
L 478.01423 126.04021 
L 478.037293 129.368337 
L 478.071871 121.831812 
L 478.106479 125.687798 
L 478.152574 113.877899 
L 478.175636 125.835863 
L 478.221761 120.994171 
L 478.233276 121.23206 
L 478.267885 121.571519 
L 478.37165 97.38161 
L 478.406228 95.8095 
L 478.486931 114.553942 
L 478.533056 100.252946 
L 478.590696 104.402883 
L 478.602212 114.342979 
L 478.694461 109.893715 
L 478.809742 90.857995 
L 478.867383 107.995888 
L 478.913507 88.383032 
L 478.982694 102.362048 
L 479.040335 97.926873 
L 479.178678 88.191341 
L 479.317021 76.206484 
L 479.432333 88.054448 
L 479.524551 81.704619 
L 479.536098 91.37111 
L 479.55913 78.405445 
L 479.639863 90.416054 
L 479.697503 99.513335 
L 479.743598 95.659539 
L 479.870425 83.316673 
L 480.031831 97.075128 
L 479.916549 79.340598 
L 480.054893 91.90215 
L 480.066439 92.056434 
L 480.227845 113.741578 
L 480.250907 111.793307 
L 480.285485 116.986528 
L 480.423828 135.209172 
L 480.723608 166.137332 
L 480.735124 165.336582 
L 480.74664 157.939613 
L 480.804311 176.399722 
L 480.827342 175.29411 
L 480.838889 175.240355 
L 481.046419 192.244563 
L 481.080997 198.160626 
L 481.104059 193.116223 
L 481.196278 203.652245 
L 481.334652 192.022894 
L 481.380746 199.730951 
L 481.449933 197.050857 
L 481.472995 197.820241 
L 481.484511 191.772013 
L 481.57676 197.723843 
L 481.622854 193.332454 
L 481.634401 197.255271 
L 481.726619 202.81887 
L 481.680525 193.962497 
L 481.749682 199.201732 
L 481.795806 202.706448 
L 481.818869 196.38659 
L 481.864993 199.565831 
L 481.93415 189.531698 
L 481.968758 199.495709 
L 482.003336 186.326519 
L 482.026399 192.950798 
L 482.130164 177.204707 
L 482.153226 181.320164 
L 482.19932 181.632119 
L 482.303085 169.666776 
L 482.337694 176.97769 
L 482.383788 169.329915 
L 482.418397 173.101599 
L 482.487553 174.545804 
L 482.545194 169.38038 
L 482.579802 175.019973 
L 482.648959 169.679334 
L 482.775786 155.063425 
L 482.787332 155.384968 
L 482.810364 158.419256 
L 482.833427 154.490384 
L 482.937192 147.450972 
L 482.868035 154.751862 
L 482.948738 150.994749 
L 482.960254 151.53309 
L 482.97177 148.091598 
L 482.994832 149.073944 
L 483.1793 137.300216 
L 483.190846 138.369202 
L 483.225425 140.973294 
L 483.248487 133.084753 
L 483.260003 132.741733 
L 483.283065 134.347098 
L 483.294611 137.932312 
L 483.352252 128.214127 
L 483.375314 130.398487 
L 483.502142 121.070981 
L 483.525174 118.996613 
L 483.628939 112.545748 
L 483.652001 115.318974 
L 483.663547 114.898029 
L 483.778828 105.614662 
L 483.80189 111.042821 
L 483.848015 103.174697 
L 483.882593 106.951079 
L 484.009421 97.790524 
L 484.020937 98.470032 
L 484.067061 95.374539 
L 484.090123 91.465759 
L 484.136218 91.91418 
L 484.15928 94.030113 
L 484.251529 87.746009 
L 484.263045 87.840184 
L 484.36681 88.635413 
L 484.389872 83.500989 
L 484.435997 88.909059 
L 484.505153 86.678866 
L 484.562824 84.199355 
L 484.597402 87.906839 
L 484.678105 92.36979 
L 484.655043 87.607146 
L 484.712683 91.060717 
L 484.747292 86.247389 
L 484.770324 91.744963 
L 484.827995 87.547368 
L 484.9894 95.094157 
L 485.000916 95.323112 
L 485.012463 94.859586 
L 485.023979 92.43034 
L 485.058557 100.882577 
L 485.093165 98.560823 
L 486.015505 181.486968 
L 486.027021 179.103911 
L 486.084661 186.918627 
L 486.096208 185.581142 
L 486.315254 196.363061 
L 486.338316 195.765618 
L 486.372894 197.763821 
L 486.38441 195.645005 
L 486.465143 199.207359 
L 486.476659 199.044628 
L 486.59194 202.300427 
L 486.626549 200.092402 
L 486.695705 201.960739 
L 486.753346 205.010061 
L 486.787954 201.16291 
L 486.79947 202.45988 
L 486.868657 198.430716 
L 486.926298 198.607998 
L 487.076187 190.285094 
L 487.099219 191.11802 
L 487.110766 188.381942 
L 487.133828 188.437887 
L 487.410514 171.310813 
L 487.422061 175.03738 
L 487.502764 167.537919 
L 487.72181 154.52976 
L 487.733326 155.783115 
L 487.767934 152.444838 
L 487.790996 152.521913 
L 487.963918 140.889486 
L 487.975464 141.49087 
L 487.998496 139.052036 
L 488.159932 126.596867 
L 488.5519 103.652094 
L 488.955444 91.690265 
L 489.266709 87.954667 
L 489.278255 87.921354 
L 489.335896 88.028269 
L 489.428115 89.104914 
L 489.981518 100.789188 
L 490.730936 129.745184 
L 491.238215 161.155658 
L 491.860775 192.901236 
L 492.195132 201.608975 
L 492.264319 202.019488 
L 492.32196 201.85673 
L 492.425725 200.551181 
L 492.656287 194.172584 
L 493.025223 176.97769 
L 493.486407 146.096211 
L 494.005203 112.607622 
L 494.512512 91.889268 
L 494.766136 88.092671 
L 494.846839 87.863332 
L 494.892964 87.952729 
L 495.042853 89.113138 
L 495.250383 93.287314 
L 495.550132 104.29118 
L 496.045895 130.813193 
L 497.210343 199.50689 
L 497.440905 202.276148 
L 497.463967 202.282107 
L 497.498576 202.201879 
L 497.625373 201.020954 
L 497.867481 195.364192 
L 498.178776 182.662821 
L 498.824429 145.701281 
L 499.550754 102.844222 
L 499.942752 89.603607 
L 500.161798 87.485856 
L 500.265563 87.817568 
L 500.426969 89.834914 
L 500.726748 98.177173 
L 501.141778 116.307783 
L 502.629037 186.350639 
L 502.894208 189.738543 
L 502.97491 189.577743 
L 503.101738 188.416249 
L 503.297752 184.94819 
L 503.562923 176.196927 
L 505.188525 115.724008 
L 505.453695 112.831942 
L 505.55746 112.55553 
L 505.615101 112.622522 
L 505.718866 113.053817 
L 506.007099 116.322347 
L 506.4798 125.968387 
L 507.805653 153.332763 
L 508.093886 155.016184 
L 508.197651 155.129564 
L 508.255291 155.046712 
L 508.370572 154.615356 
L 508.578103 153.072514 
L 509.085382 147.21993 
L 510.330532 132.340804 
L 510.699468 130.780285 
L 510.941606 130.888909 
L 511.379699 132.823057 
L 512.013805 137.292253 
L 512.659427 141.865457 
L 513.143674 144.070442 
L 513.397299 144.53761 
L 513.627891 144.489453 
L 513.858484 144.049443 
L 514.089076 143.328435 
L 514.550231 141.409535 
L 515.230461 138.776781 
L 515.610913 137.863204 
L 515.864568 137.535192 
L 516.394909 137.630968 
L 516.936766 138.393345 
L 517.248062 138.965695 
L 517.674638 139.725657 
L 518.26262 140.487999 
L 518.52779 140.686274 
L 518.689196 140.709805 
L 518.839085 140.736643 
L 519.346365 140.560238 
L 519.542379 140.430135 
L 520.614577 139.656735 
L 521.744447 139.531871 
L 521.917368 139.59046 
L 522.194085 139.680169 
L 522.320913 139.711166 
L 522.493834 139.7885 
L 522.597599 139.804421 
L 522.759005 139.872758 
L 523.808171 140.098725 
L 523.981093 140.11113 
L 525.779647 139.900544 
L 525.918021 139.885691 
L 526.06788 139.858499 
L 526.206223 139.871899 
L 526.379175 139.845613 
L 526.529065 139.84638 
L 526.69047 139.8576 
L 526.851876 139.846267 
L 527.013281 139.872613 
L 527.151625 139.855475 
L 527.382217 139.883967 
L 527.532107 139.888216 
L 527.739607 139.910234 
L 527.901042 139.916438 
L 528.166213 139.945509 
L 528.638884 139.975056 
L 529.042428 139.98873 
L 529.180771 139.999878 
L 529.595831 139.995572 
L 530.541203 139.982605 
L 530.702608 139.993644 
L 530.852498 139.982327 
L 531.013903 139.99362 
L 531.186855 139.967997 
L 531.348261 139.980565 
L 531.49812 139.96775 
L 531.636494 139.967637 
L 534.242076 140.01034 
L 534.368903 140.026644 
L 534.726293 140.029424 
L 534.876182 140.021871 
L 535.971473 139.928043 
L 536.04063 139.525182 
L 536.052176 140.619729 
L 536.271222 112.009791 
L 536.282738 129.775937 
L 536.374987 110.143073 
L 536.386503 111.5127 
L 536.421112 105.473363 
L 536.432628 110.495939 
L 536.513331 96.153935 
L 536.559455 97.401244 
L 536.60558 101.87924 
L 536.697798 83.243293 
L 536.709314 94.020671 
L 536.720861 78.346868 
L 536.801564 78.469728 
L 536.882266 95.657485 
L 536.824626 75.549224 
L 536.916845 86.710921 
L 537.043672 60.634341 
L 537.055218 63.780047 
L 537.147437 57.895678 
L 537.170499 60.619803 
L 537.182015 59.921112 
L 537.193562 62.89219 
L 537.22814 62.600203 
L 537.297327 61.597642 
L 537.343421 71.849456 
L 537.354967 64.460597 
L 537.366483 72.767451 
L 537.458732 68.468688 
L 537.481794 66.54425 
L 537.574013 75.232939 
L 537.585559 70.296894 
L 537.666262 82.055733 
L 538.185057 156.508546 
L 538.20812 152.934265 
L 538.219666 154.12737 
L 538.277306 149.294143 
L 538.346463 144.068505 
L 538.300369 151.770524 
L 538.438712 145.09336 
L 538.461774 144.007553 
L 538.553993 152.74199 
L 538.565539 147.652867 
L 538.646242 152.760692 
L 538.669304 148.985026 
L 538.68082 155.288048 
L 538.784585 152.989639 
L 538.88835 148.318995 
L 538.899866 153.140562 
L 538.992116 146.546811 
L 539.153521 165.540415 
L 539.165037 163.211844 
L 539.211162 173.199178 
L 539.222678 171.383436 
L 539.39563 197.976808 
L 539.6608 228.564193 
L 539.672316 227.698756 
L 539.718441 231.210426 
L 539.729987 227.871274 
L 539.741503 231.331222 
L 539.833752 228.933998 
L 539.856784 229.013967 
L 539.983611 219.477485 
L 539.995158 219.624503 
L 540.006674 219.16822 
L 540.306423 184.465276 
L 540.317969 184.819332 
L 540.513953 157.718363 
L 540.525499 158.906778 
L 540.560077 152.810113 
L 540.571593 153.474809 
L 540.744545 133.214494 
L 540.963591 110.543969 
L 540.975137 111.572236 
L 541.009716 106.912936 
L 541.032778 107.009865 
L 541.194184 99.831179 
L 541.2057 103.704759 
L 541.297949 98.690112 
L 541.309465 99.932965 
L 541.344073 96.417198 
L 541.390167 97.02406 
L 541.574635 88.369589 
L 541.586182 88.672657 
L 542.174163 64.024757 
L 542.185679 65.832049 
L 542.254866 63.232674 
L 542.266382 64.203386 
L 542.277928 62.76373 
L 542.381693 63.103206 
L 542.473912 65.834099 
L 542.404756 62.951987 
L 542.508521 65.774382 
L 542.520037 65.711293 
L 542.681442 70.02403 
L 542.692989 69.652446 
L 543.096503 96.397949 
L 543.822828 201.503327 
L 544.064936 217.274185 
L 544.111061 218.549199 
L 544.122607 218.531688 
L 544.26095 220.533919 
L 544.272466 220.220559 
L 544.341653 220.854503 
L 544.364715 220.622029 
L 544.376231 220.895238 
L 544.445418 220.307562 
L 544.456934 220.890082 
L 544.606824 218.826455 
L 545.114103 193.519235 
L 545.39082 181.140234 
L 545.459976 178.353461 
L 545.725147 163.721573 
L 546.416894 112.635456 
L 546.762767 88.158646 
L 547.108641 70.719696 
L 547.362295 66.11537 
L 547.40842 65.962147 
L 547.454544 66.075206 
L 547.731231 69.389569 
L 547.984886 84.265144 
L 548.250056 108.957059 
L 549.206974 216.153362 
L 549.506723 226.61671 
L 549.518269 226.5638 
L 549.587426 225.802923 
L 549.875658 215.153461 
L 550.25611 189.027291 
L 551.754915 75.852855 
L 552.077726 68.526859 
L 552.169976 67.990813 
L 552.2161 68.144719 
L 552.273741 68.582357 
L 552.665739 77.373847 
L 553.092315 97.114177 
L 553.703359 132.040352 
L 554.902385 220.057729 
L 555.15604 225.452333 
L 555.167556 225.447655 
L 555.236742 224.911456 
L 555.386602 221.165832 
L 555.663319 208.026398 
L 556.170598 169.095742 
L 557.23128 80.607557 
L 557.565638 69.265177 
L 557.750106 67.897129 
L 557.911511 69.302905 
L 558.107495 74.24165 
L 558.41879 89.398549 
L 558.914553 125.48311 
L 560.055939 220.603894 
L 560.309563 225.758599 
L 560.344172 225.811058 
L 560.37875 225.713797 
L 560.470969 224.758585 
L 560.678499 219.265978 
L 560.978278 204.361645 
L 561.612384 156.687859 
L 562.592364 79.543997 
L 562.915175 68.469995 
L 563.042003 67.329213 
L 563.088097 67.393177 
L 563.157284 67.865127 
L 563.261049 69.399037 
L 563.480095 76.049871 
L 563.79139 91.86488 
L 564.759854 157.758126 
L 565.440054 201.092509 
L 565.728287 208.121993 
L 565.80899 208.448397 
L 565.843599 208.343619 
L 565.970396 206.959607 
L 566.212504 200.882913 
L 566.512283 186.312509 
L 567.999542 108.221213 
L 568.310837 102.572148 
L 568.449181 101.93709 
L 568.483759 101.98712 
L 568.622133 102.794431 
L 568.818116 105.612665 
L 569.129412 113.102334 
L 569.867283 137.734131 
L 570.466781 154.571926 
L 570.847263 159.957793 
L 571.066309 160.816551 
L 571.077825 160.809529 
L 571.204652 160.431947 
L 571.423698 158.490055 
L 571.815696 152.691211 
L 573.279923 128.818724 
L 573.591188 127.218238 
L 573.706499 127.143881 
L 573.718015 127.167269 
L 573.97167 127.939851 
L 574.640355 133.528721 
L 575.57421 142.741846 
L 576.023848 145.534407 
L 576.358206 146.257402 
L 576.438909 146.246101 
L 576.450425 146.235996 
L 576.934672 144.738579 
L 577.511138 141.441878 
L 578.248979 137.738178 
L 578.548758 136.877578 
L 578.917694 136.446219 
L 579.067553 136.479065 
L 579.182864 136.560768 
L 579.378848 136.801989 
L 580.32425 138.996648 
L 580.566358 139.590021 
L 581.500213 140.931817 
L 581.638587 140.944367 
L 581.77693 140.95928 
L 581.995976 140.864382 
L 582.088225 140.823358 
L 583.206549 139.708803 
L 583.344892 139.582598 
L 583.817593 139.291039 
L 583.94442 139.272965 
L 584.082763 139.234034 
L 584.209591 139.238232 
L 585.397101 139.653324 
L 585.662271 139.788571 
L 585.777552 139.829212 
L 585.985082 139.926327 
L 586.11191 139.954421 
L 586.411659 140.047793 
L 586.538486 140.062685 
L 586.688345 140.091255 
L 586.826719 140.090459 
L 586.976578 140.102851 
L 587.14953 140.076597 
L 587.276357 140.075672 
L 587.449279 140.036046 
L 587.576106 140.034889 
L 587.749028 139.981597 
L 587.864339 139.981811 
L 588.014199 139.928864 
L 588.152572 139.903326 
L 588.313978 139.885951 
L 588.463837 139.838845 
L 589.132552 139.754488 
L 589.397723 139.748 
L 589.52455 139.743508 
L 590.204751 139.766307 
L 590.331578 139.785293 
L 590.700514 139.822883 
L 590.838857 139.859847 
L 590.9772 139.859358 
L 591.150152 139.884967 
L 591.288495 139.895715 
L 591.54215 139.925374 
L 591.692009 139.926807 
L 591.853445 139.941497 
L 591.991789 139.940849 
L 592.153194 139.95337 
L 592.3146 139.940813 
L 592.464489 139.953774 
L 592.614349 139.940872 
L 593.70964 139.91659 
L 593.928686 139.926158 
L 594.055513 139.922394 
L 594.343746 139.904006 
L 594.597371 139.910674 
L 594.724198 139.904804 
L 594.977853 139.91878 
L 595.116196 139.907563 
L 595.508194 139.916914 
L 595.773365 139.93782 
L 595.969348 139.929087 
L 596.165363 139.955086 
L 596.303706 139.949342 
L 596.476627 139.952556 
L 596.626517 139.954779 
L 596.787923 139.966654 
L 596.937812 139.967554 
L 597.076156 139.981826 
L 597.226045 139.967978 
L 597.375904 139.98067 
L 597.514278 139.968035 
L 597.675684 139.980002 
L 597.802481 139.966631 
L 597.814027 139.984173 
L 597.998495 139.993515 
L 598.1599 139.982435 
L 598.332822 139.99282 
L 598.494258 139.983193 
L 598.667179 139.987096 
L 598.93235 139.907775 
L 598.943896 140.060336 
L 598.966928 139.046882 
L 599.186005 111.685703 
L 599.197521 118.70854 
L 599.278224 105.917186 
L 599.324348 101.241978 
L 599.474238 86.686842 
L 599.485754 86.946591 
L 599.49727 87.185535 
L 599.635643 72.152119 
L 599.716346 69.561158 
L 599.773987 87.462493 
L 599.923876 48.439337 
L 599.935392 48.498657 
L 599.946908 48.361186 
L 600.004579 44.699499 
L 600.062219 46.479825 
L 600.200563 57.562121 
L 600.235141 55.520457 
L 600.385031 60.516982 
L 600.396547 58.313523 
L 600.454217 63.283998 
L 600.47728 62.941948 
L 601.042199 158.374265 
L 601.076778 158.29949 
L 601.238183 146.944806 
L 601.272792 145.600484 
L 601.341948 148.205791 
L 601.353494 146.744201 
L 601.411135 151.897647 
L 601.422651 150.278699 
L 601.45726 150.027256 
L 601.537962 155.436264 
L 601.549478 151.26705 
L 601.618665 156.477394 
L 601.641727 155.38836 
L 601.780071 152.09191 
L 601.791587 154.45652 
L 601.849227 148.352796 
L 601.872289 148.845339 
L 601.964539 157.372253 
L 601.976055 157.168579 
L 602.218163 197.141044 
L 602.633223 246.220678 
L 602.679348 244.697557 
L 603.336516 172.740824 
L 603.555562 141.219323 
L 603.567078 141.723264 
L 603.578625 138.210902 
L 603.659328 129.311478 
L 603.878374 103.994652 
L 603.959076 99.240365 
L 604.155091 92.933539 
L 604.166607 93.08699 
L 604.316496 87.595793 
L 604.36259 85.736361 
L 604.581667 73.113582 
L 604.593183 73.189118 
L 604.766135 64.22456 
L 604.777651 64.827238 
L 604.812229 62.445654 
L 604.823775 62.502684 
L 605.088946 51.138659 
L 605.100462 51.545875 
L 605.158102 50.482779 
L 605.169649 50.055671 
L 605.250351 50.827636 
L 605.261867 50.143728 
L 605.423273 53.92294 
L 605.469398 54.805682 
L 605.930582 82.098073 
L 606.195753 125.807271 
L 606.576205 196.044746 
L 606.991265 231.679841 
L 607.267952 234.524437 
L 607.291014 234.416434 
L 607.314076 234.561694 
L 607.602309 228.584881 
L 609.204849 116.212068 
L 610.127188 55.25036 
L 610.30014 53.373637 
L 610.346234 53.535432 
L 610.634467 58.291786 
L 611.118714 101.338054 
L 611.672118 188.105107 
L 611.994929 222.388261 
L 612.352318 241.166313 
L 612.375381 241.335851 
L 612.433021 240.998194 
L 612.548333 238.313768 
L 612.801957 225.473241 
L 613.159377 195.860848 
L 614.600511 66.520834 
L 614.969447 56.311837 
L 615.061696 55.751246 
L 615.10779 55.909465 
L 615.176977 56.757889 
L 615.372961 59.78195 
L 615.545913 66.386568 
L 616.318362 109.542316 
L 616.744938 146.133393 
L 617.609637 223.659294 
L 617.943995 238.845395 
L 618.04776 239.996216 
L 618.093854 239.741241 
L 618.197619 237.693353 
L 618.405149 228.73184 
L 618.762569 202.814477 
L 619.246786 151.520391 
L 619.788643 94.854789 
L 620.284406 62.234279 
L 620.549577 55.919763 
L 620.630279 55.646116 
L 620.664858 55.775147 
L 620.780169 56.988897 
L 620.941575 61.117332 
L 621.218261 74.939744 
L 621.737087 116.50158 
L 622.636364 215.077347 
L 622.636364 215.077347 
" clip-path="url(#p5b43390d26)" style="fill: none; stroke: #4c72b0; stroke-width: 1.5; stroke-linecap: round"/>
   </g>
   <g id="patch_3">
    <path d="M 90 256.32 
L 90 34.56 
" style="fill: none; stroke: #cccccc; stroke-width: 1.25; stroke-linejoin: miter; stroke-linecap: square"/>
   </g>
   <g id="patch_4">
    <path d="M 648 256.32 
L 648 34.56 
" style="fill: none; stroke: #cccccc; stroke-width: 1.25; stroke-linejoin: miter; stroke-linecap: square"/>
   </g>
   <g id="patch_5">
    <path d="M 90 256.32 
L 648 256.32 
" style="fill: none; stroke: #cccccc; stroke-width: 1.25; stroke-linejoin: miter; stroke-linecap: square"/>
   </g>
   <g id="patch_6">
    <path d="M 90 34.56 
L 648 34.56 
" style="fill: none; stroke: #cccccc; stroke-width: 1.25; stroke-linejoin: miter; stroke-linecap: square"/>
   </g>
   <g id="text_17">
    <!-- drums Waveform -->
    <g style="fill: #262626" transform="translate(323.55375 28.56) scale(0.12 -0.12)">
     <defs>
      <path id="ArialMT-72" d="M 416 0 
L 416 3319 
L 922 3319 
L 922 2816 
Q 1116 3169 1280 3281 
Q 1444 3394 1641 3394 
Q 1925 3394 2219 3213 
L 2025 2691 
Q 1819 2813 1613 2813 
Q 1428 2813 1281 2702 
Q 1134 2591 1072 2394 
Q 978 2094 978 1738 
L 978 0 
L 416 0 
z
" transform="scale(0.015625)"/>
      <path id="ArialMT-57" d="M 1294 0 
L 78 4581 
L 700 4581 
L 1397 1578 
Q 1509 1106 1591 641 
Q 1766 1375 1797 1488 
L 2669 4581 
L 3400 4581 
L 4056 2263 
Q 4303 1400 4413 641 
Q 4500 1075 4641 1638 
L 5359 4581 
L 5969 4581 
L 4713 0 
L 4128 0 
L 3163 3491 
Q 3041 3928 3019 4028 
Q 2947 3713 2884 3491 
L 1913 0 
L 1294 0 
z
" transform="scale(0.015625)"/>
      <path id="ArialMT-61" d="M 2588 409 
Q 2275 144 1986 34 
Q 1697 -75 1366 -75 
Q 819 -75 525 192 
Q 231 459 231 875 
Q 231 1119 342 1320 
Q 453 1522 633 1644 
Q 813 1766 1038 1828 
Q 1203 1872 1538 1913 
Q 2219 1994 2541 2106 
Q 2544 2222 2544 2253 
Q 2544 2597 2384 2738 
Q 2169 2928 1744 2928 
Q 1347 2928 1158 2789 
Q 969 2650 878 2297 
L 328 2372 
Q 403 2725 575 2942 
Q 747 3159 1072 3276 
Q 1397 3394 1825 3394 
Q 2250 3394 2515 3294 
Q 2781 3194 2906 3042 
Q 3031 2891 3081 2659 
Q 3109 2516 3109 2141 
L 3109 1391 
Q 3109 606 3145 398 
Q 3181 191 3288 0 
L 2700 0 
Q 2613 175 2588 409 
z
M 2541 1666 
Q 2234 1541 1622 1453 
Q 1275 1403 1131 1340 
Q 988 1278 909 1158 
Q 831 1038 831 891 
Q 831 666 1001 516 
Q 1172 366 1500 366 
Q 1825 366 2078 508 
Q 2331 650 2450 897 
Q 2541 1088 2541 1459 
L 2541 1666 
z
" transform="scale(0.015625)"/>
      <path id="ArialMT-76" d="M 1344 0 
L 81 3319 
L 675 3319 
L 1388 1331 
Q 1503 1009 1600 663 
Q 1675 925 1809 1294 
L 2547 3319 
L 3125 3319 
L 1869 0 
L 1344 0 
z
" transform="scale(0.015625)"/>
      <path id="ArialMT-66" d="M 556 0 
L 556 2881 
L 59 2881 
L 59 3319 
L 556 3319 
L 556 3672 
Q 556 4006 616 4169 
Q 697 4388 901 4523 
Q 1106 4659 1475 4659 
Q 1713 4659 2000 4603 
L 1916 4113 
Q 1741 4144 1584 4144 
Q 1328 4144 1222 4034 
Q 1116 3925 1116 3625 
L 1116 3319 
L 1763 3319 
L 1763 2881 
L 1116 2881 
L 1116 0 
L 556 0 
z
" transform="scale(0.015625)"/>
      <path id="ArialMT-6f" d="M 213 1659 
Q 213 2581 725 3025 
Q 1153 3394 1769 3394 
Q 2453 3394 2887 2945 
Q 3322 2497 3322 1706 
Q 3322 1066 3130 698 
Q 2938 331 2570 128 
Q 2203 -75 1769 -75 
Q 1072 -75 642 372 
Q 213 819 213 1659 
z
M 791 1659 
Q 791 1022 1069 705 
Q 1347 388 1769 388 
Q 2188 388 2466 706 
Q 2744 1025 2744 1678 
Q 2744 2294 2464 2611 
Q 2184 2928 1769 2928 
Q 1347 2928 1069 2612 
Q 791 2297 791 1659 
z
" transform="scale(0.015625)"/>
     </defs>
     <use xlink:href="#ArialMT-64"/>
     <use xlink:href="#ArialMT-72" x="55.615234"/>
     <use xlink:href="#ArialMT-75" x="88.916016"/>
     <use xlink:href="#ArialMT-6d" x="144.53125"/>
     <use xlink:href="#ArialMT-73" x="227.832031"/>
     <use xlink:href="#ArialMT-20" x="277.832031"/>
     <use xlink:href="#ArialMT-57" x="305.615234"/>
     <use xlink:href="#ArialMT-61" x="396.25"/>
     <use xlink:href="#ArialMT-76" x="451.865234"/>
     <use xlink:href="#ArialMT-65" x="501.865234"/>
     <use xlink:href="#ArialMT-66" x="557.480469"/>
     <use xlink:href="#ArialMT-6f" x="585.263672"/>
     <use xlink:href="#ArialMT-72" x="640.878906"/>
     <use xlink:href="#ArialMT-6d" x="674.179688"/>
    </g>
   </g>
  </g>
 </g>
 <defs>
  <clipPath id="p5b43390d26">
   <rect x="90" y="34.56" width="558" height="221.76"/>
  </clipPath>
 </defs>
</svg>
